  0
SECTION
  2
BLOCKS
  0
ENDSEC
  0
SECTION
  2
ENTITIES
  0
LINE
  8
0
 10
360
 20
97
 11
325
 21
97
  0
LINE
  8
0
 10
325
 20
97
 11
325
 21
128.748
  0
LINE
  8
0
 10
325
 20
128.748
 11
219.264
 21
128.748
  0
LINE
  8
0
 10
219.264
 20
128.748
 11
218.575
 21
128.695
  0
LINE
  8
0
 10
218.575
 20
128.695
 11
217.899
 21
128.556
  0
LINE
  8
0
 10
217.899
 20
128.556
 11
217.245
 21
128.334
  0
LINE
  8
0
 10
217.245
 20
128.334
 11
216.624
 21
128.031
  0
LINE
  8
0
 10
216.624
 20
128.031
 11
216.046
 21
127.653
  0
LINE
  8
0
 10
216.046
 20
127.653
 11
215.52
 21
127.205
  0
LINE
  8
0
 10
215.52
 20
127.205
 11
215.054
 21
126.695
  0
LINE
  8
0
 10
215.054
 20
126.695
 11
214.656
 21
126.131
  0
LINE
  8
0
 10
214.656
 20
126.131
 11
214.332
 21
125.521
  0
LINE
  8
0
 10
214.332
 20
125.521
 11
214.087
 21
124.875
  0
LINE
  8
0
 10
214.087
 20
124.875
 11
213.924
 21
124.204
  0
LINE
  8
0
 10
213.924
 20
124.204
 11
191.688
 21
-1.90094
  0
LINE
  8
0
 10
191.688
 20
-1.90094
 11
191.612
 21
-2.58733
  0
LINE
  8
0
 10
191.612
 20
-2.58733
 11
191.621
 21
-3.27795
  0
LINE
  8
0
 10
191.621
 20
-3.27795
 11
191.717
 21
-3.96193
  0
LINE
  8
0
 10
191.717
 20
-3.96193
 11
191.898
 21
-4.62846
  0
LINE
  8
0
 10
191.898
 20
-4.62846
 11
192.162
 21
-5.26704
  0
LINE
  8
0
 10
192.162
 20
-5.26704
 11
192.503
 21
-5.8676
  0
LINE
  8
0
 10
192.503
 20
-5.8676
 11
192.916
 21
-6.42065
  0
LINE
  8
0
 10
192.916
 20
-6.42065
 11
193.396
 21
-6.91751
  0
LINE
  8
0
 10
193.396
 20
-6.91751
 11
193.935
 21
-7.3503
  0
LINE
  8
0
 10
193.935
 20
-7.3503
 11
194.523
 21
-7.71222
  0
LINE
  8
0
 10
194.523
 20
-7.71222
 11
195.152
 21
-7.99754
  0
LINE
  8
0
 10
195.152
 20
-7.99754
 11
195.812
 21
-8.20178
  0
LINE
  8
0
 10
195.812
 20
-8.20178
 11
196.492
 21
-8.32173
  0
LINE
  8
0
 10
196.492
 20
-8.32173
 11
197.182
 21
-8.35547
  0
LINE
  8
0
 10
197.182
 20
-8.35547
 11
360
 21
-8.35547
  0
LINE
  8
0
 10
360
 20
-8.35547
 11
360
 21
97
  0
LINE
  8
0
 10
219.173
 20
121.758
 11
218.988
 21
121.791
  0
LINE
  8
0
 10
218.988
 20
121.791
 11
218.808
 21
121.846
  0
LINE
  8
0
 10
218.808
 20
121.846
 11
218.636
 21
121.924
  0
LINE
  8
0
 10
218.636
 20
121.924
 11
218.476
 21
122.023
  0
LINE
  8
0
 10
218.476
 20
122.023
 11
218.329
 21
122.141
  0
LINE
  8
0
 10
218.329
 20
122.141
 11
218.198
 21
122.276
  0
LINE
  8
0
 10
218.198
 20
122.276
 11
218.085
 21
122.427
  0
LINE
  8
0
 10
218.085
 20
122.427
 11
217.992
 21
122.591
  0
LINE
  8
0
 10
217.992
 20
122.591
 11
217.921
 21
122.765
  0
LINE
  8
0
 10
217.921
 20
122.765
 11
217.871
 21
122.947
  0
LINE
  8
0
 10
217.871
 20
122.947
 11
217.845
 21
123.134
  0
LINE
  8
0
 10
217.845
 20
123.134
 11
217.842
 21
123.322
  0
LINE
  8
0
 10
217.842
 20
123.322
 11
217.863
 21
123.509
  0
LINE
  8
0
 10
217.863
 20
123.509
 11
217.908
 21
123.692
  0
LINE
  8
0
 10
217.908
 20
123.692
 11
217.975
 21
123.868
  0
LINE
  8
0
 10
217.975
 20
123.868
 11
218.063
 21
124.035
  0
LINE
  8
0
 10
218.063
 20
124.035
 11
218.172
 21
124.189
  0
LINE
  8
0
 10
218.172
 20
124.189
 11
218.299
 21
124.328
  0
LINE
  8
0
 10
218.299
 20
124.328
 11
218.442
 21
124.45
  0
LINE
  8
0
 10
218.442
 20
124.45
 11
218.6
 21
124.553
  0
LINE
  8
0
 10
218.6
 20
124.553
 11
218.769
 21
124.635
  0
LINE
  8
0
 10
218.769
 20
124.635
 11
218.947
 21
124.696
  0
LINE
  8
0
 10
218.947
 20
124.696
 11
219.132
 21
124.734
  0
LINE
  8
0
 10
219.132
 20
124.734
 11
219.32
 21
124.748
  0
LINE
  8
0
 10
219.32
 20
124.748
 11
219.508
 21
124.739
  0
LINE
  8
0
 10
219.508
 20
124.739
 11
219.693
 21
124.707
  0
LINE
  8
0
 10
219.693
 20
124.707
 11
219.873
 21
124.651
  0
LINE
  8
0
 10
219.873
 20
124.651
 11
220.045
 21
124.573
  0
LINE
  8
0
 10
220.045
 20
124.573
 11
220.205
 21
124.474
  0
LINE
  8
0
 10
220.205
 20
124.474
 11
220.352
 21
124.356
  0
LINE
  8
0
 10
220.352
 20
124.356
 11
220.483
 21
124.221
  0
LINE
  8
0
 10
220.483
 20
124.221
 11
220.596
 21
124.07
  0
LINE
  8
0
 10
220.596
 20
124.07
 11
220.689
 21
123.906
  0
LINE
  8
0
 10
220.689
 20
123.906
 11
220.761
 21
123.732
  0
LINE
  8
0
 10
220.761
 20
123.732
 11
220.81
 21
123.55
  0
LINE
  8
0
 10
220.81
 20
123.55
 11
220.836
 21
123.364
  0
LINE
  8
0
 10
220.836
 20
123.364
 11
220.839
 21
123.175
  0
LINE
  8
0
 10
220.839
 20
123.175
 11
220.818
 21
122.988
  0
LINE
  8
0
 10
220.818
 20
122.988
 11
220.773
 21
122.805
  0
LINE
  8
0
 10
220.773
 20
122.805
 11
220.707
 21
122.629
  0
LINE
  8
0
 10
220.707
 20
122.629
 11
220.618
 21
122.463
  0
LINE
  8
0
 10
220.618
 20
122.463
 11
220.51
 21
122.309
  0
LINE
  8
0
 10
220.51
 20
122.309
 11
220.383
 21
122.17
  0
LINE
  8
0
 10
220.383
 20
122.17
 11
220.239
 21
122.048
  0
LINE
  8
0
 10
220.239
 20
122.048
 11
220.081
 21
121.944
  0
LINE
  8
0
 10
220.081
 20
121.944
 11
219.912
 21
121.862
  0
LINE
  8
0
 10
219.912
 20
121.862
 11
219.734
 21
121.801
  0
LINE
  8
0
 10
219.734
 20
121.801
 11
219.549
 21
121.763
  0
LINE
  8
0
 10
219.549
 20
121.763
 11
219.362
 21
121.749
  0
LINE
  8
0
 10
219.362
 20
121.749
 11
219.173
 21
121.758
  0
LINE
  8
0
 10
316.147
 20
121.758
 11
315.961
 21
121.791
  0
LINE
  8
0
 10
315.961
 20
121.791
 11
315.781
 21
121.846
  0
LINE
  8
0
 10
315.781
 20
121.846
 11
315.61
 21
121.924
  0
LINE
  8
0
 10
315.61
 20
121.924
 11
315.449
 21
122.023
  0
LINE
  8
0
 10
315.449
 20
122.023
 11
315.302
 21
122.141
  0
LINE
  8
0
 10
315.302
 20
122.141
 11
315.172
 21
122.276
  0
LINE
  8
0
 10
315.172
 20
122.276
 11
315.059
 21
122.427
  0
LINE
  8
0
 10
315.059
 20
122.427
 11
314.966
 21
122.591
  0
LINE
  8
0
 10
314.966
 20
122.591
 11
314.894
 21
122.765
  0
LINE
  8
0
 10
314.894
 20
122.765
 11
314.844
 21
122.947
  0
LINE
  8
0
 10
314.844
 20
122.947
 11
314.818
 21
123.134
  0
LINE
  8
0
 10
314.818
 20
123.134
 11
314.816
 21
123.322
  0
LINE
  8
0
 10
314.816
 20
123.322
 11
314.837
 21
123.509
  0
LINE
  8
0
 10
314.837
 20
123.509
 11
314.881
 21
123.692
  0
LINE
  8
0
 10
314.881
 20
123.692
 11
314.948
 21
123.868
  0
LINE
  8
0
 10
314.948
 20
123.868
 11
315.036
 21
124.035
  0
LINE
  8
0
 10
315.036
 20
124.035
 11
315.145
 21
124.189
  0
LINE
  8
0
 10
315.145
 20
124.189
 11
315.272
 21
124.328
  0
LINE
  8
0
 10
315.272
 20
124.328
 11
315.415
 21
124.45
  0
LINE
  8
0
 10
315.415
 20
124.45
 11
315.573
 21
124.553
  0
LINE
  8
0
 10
315.573
 20
124.553
 11
315.742
 21
124.635
  0
LINE
  8
0
 10
315.742
 20
124.635
 11
315.921
 21
124.696
  0
LINE
  8
0
 10
315.921
 20
124.696
 11
316.105
 21
124.734
  0
LINE
  8
0
 10
316.105
 20
124.734
 11
316.293
 21
124.748
  0
LINE
  8
0
 10
316.293
 20
124.748
 11
316.481
 21
124.739
  0
LINE
  8
0
 10
316.481
 20
124.739
 11
316.667
 21
124.707
  0
LINE
  8
0
 10
316.667
 20
124.707
 11
316.846
 21
124.651
  0
LINE
  8
0
 10
316.846
 20
124.651
 11
317.018
 21
124.573
  0
LINE
  8
0
 10
317.018
 20
124.573
 11
317.178
 21
124.474
  0
LINE
  8
0
 10
317.178
 20
124.474
 11
317.325
 21
124.356
  0
LINE
  8
0
 10
317.325
 20
124.356
 11
317.456
 21
124.221
  0
LINE
  8
0
 10
317.456
 20
124.221
 11
317.569
 21
124.07
  0
LINE
  8
0
 10
317.569
 20
124.07
 11
317.662
 21
123.906
  0
LINE
  8
0
 10
317.662
 20
123.906
 11
317.734
 21
123.732
  0
LINE
  8
0
 10
317.734
 20
123.732
 11
317.783
 21
123.55
  0
LINE
  8
0
 10
317.783
 20
123.55
 11
317.809
 21
123.364
  0
LINE
  8
0
 10
317.809
 20
123.364
 11
317.812
 21
123.175
  0
LINE
  8
0
 10
317.812
 20
123.175
 11
317.791
 21
122.988
  0
LINE
  8
0
 10
317.791
 20
122.988
 11
317.747
 21
122.805
  0
LINE
  8
0
 10
317.747
 20
122.805
 11
317.68
 21
122.629
  0
LINE
  8
0
 10
317.68
 20
122.629
 11
317.591
 21
122.463
  0
LINE
  8
0
 10
317.591
 20
122.463
 11
317.483
 21
122.309
  0
LINE
  8
0
 10
317.483
 20
122.309
 11
317.356
 21
122.17
  0
LINE
  8
0
 10
317.356
 20
122.17
 11
317.212
 21
122.048
  0
LINE
  8
0
 10
317.212
 20
122.048
 11
317.055
 21
121.944
  0
LINE
  8
0
 10
317.055
 20
121.944
 11
316.885
 21
121.862
  0
LINE
  8
0
 10
316.885
 20
121.862
 11
316.707
 21
121.801
  0
LINE
  8
0
 10
316.707
 20
121.801
 11
316.523
 21
121.763
  0
LINE
  8
0
 10
316.523
 20
121.763
 11
316.335
 21
121.749
  0
LINE
  8
0
 10
316.335
 20
121.749
 11
316.147
 21
121.758
  0
LINE
  8
0
 10
333.897
 20
3.59122
 11
333.711
 21
3.62393
  0
LINE
  8
0
 10
333.711
 20
3.62393
 11
333.531
 21
3.67964
  0
LINE
  8
0
 10
333.531
 20
3.67964
 11
333.36
 21
3.75746
  0
LINE
  8
0
 10
333.36
 20
3.75746
 11
333.199
 21
3.85616
  0
LINE
  8
0
 10
333.199
 20
3.85616
 11
333.053
 21
3.9742
  0
LINE
  8
0
 10
333.053
 20
3.9742
 11
332.922
 21
4.1097
  0
LINE
  8
0
 10
332.922
 20
4.1097
 11
332.809
 21
4.26053
  0
LINE
  8
0
 10
332.809
 20
4.26053
 11
332.716
 21
4.42432
  0
LINE
  8
0
 10
332.716
 20
4.42432
 11
332.644
 21
4.59848
  0
LINE
  8
0
 10
332.644
 20
4.59848
 11
332.595
 21
4.78026
  0
LINE
  8
0
 10
332.595
 20
4.78026
 11
332.568
 21
4.9668
  0
LINE
  8
0
 10
332.568
 20
4.9668
 11
332.566
 21
5.15515
  0
LINE
  8
0
 10
332.566
 20
5.15515
 11
332.587
 21
5.34235
  0
LINE
  8
0
 10
332.587
 20
5.34235
 11
332.631
 21
5.52544
  0
LINE
  8
0
 10
332.631
 20
5.52544
 11
332.698
 21
5.70154
  0
LINE
  8
0
 10
332.698
 20
5.70154
 11
332.786
 21
5.86786
  0
LINE
  8
0
 10
332.786
 20
5.86786
 11
332.895
 21
6.02179
  0
LINE
  8
0
 10
332.895
 20
6.02179
 11
333.022
 21
6.16089
  0
LINE
  8
0
 10
333.022
 20
6.16089
 11
333.166
 21
6.28297
  0
LINE
  8
0
 10
333.166
 20
6.28297
 11
333.323
 21
6.38612
  0
LINE
  8
0
 10
333.323
 20
6.38612
 11
333.492
 21
6.46869
  0
LINE
  8
0
 10
333.492
 20
6.46869
 11
333.671
 21
6.5294
  0
LINE
  8
0
 10
333.671
 20
6.5294
 11
333.855
 21
6.56728
  0
LINE
  8
0
 10
333.855
 20
6.56728
 11
334.043
 21
6.58173
  0
LINE
  8
0
 10
334.043
 20
6.58173
 11
334.231
 21
6.57253
  0
LINE
  8
0
 10
334.231
 20
6.57253
 11
334.417
 21
6.53983
  0
LINE
  8
0
 10
334.417
 20
6.53983
 11
334.597
 21
6.48412
  0
LINE
  8
0
 10
334.597
 20
6.48412
 11
334.768
 21
6.4063
  0
LINE
  8
0
 10
334.768
 20
6.4063
 11
334.929
 21
6.30759
  0
LINE
  8
0
 10
334.929
 20
6.30759
 11
335.076
 21
6.18956
  0
LINE
  8
0
 10
335.076
 20
6.18956
 11
335.206
 21
6.05406
  0
LINE
  8
0
 10
335.206
 20
6.05406
 11
335.319
 21
5.90323
  0
LINE
  8
0
 10
335.319
 20
5.90323
 11
335.412
 21
5.73944
  0
LINE
  8
0
 10
335.412
 20
5.73944
 11
335.484
 21
5.56528
  0
LINE
  8
0
 10
335.484
 20
5.56528
 11
335.533
 21
5.3835
  0
LINE
  8
0
 10
335.533
 20
5.3835
 11
335.56
 21
5.19696
  0
LINE
  8
0
 10
335.56
 20
5.19696
 11
335.562
 21
5.00861
  0
LINE
  8
0
 10
335.562
 20
5.00861
 11
335.541
 21
4.82141
  0
LINE
  8
0
 10
335.541
 20
4.82141
 11
335.497
 21
4.63832
  0
LINE
  8
0
 10
335.497
 20
4.63832
 11
335.43
 21
4.46222
  0
LINE
  8
0
 10
335.43
 20
4.46222
 11
335.342
 21
4.2959
  0
LINE
  8
0
 10
335.342
 20
4.2959
 11
335.233
 21
4.14197
  0
LINE
  8
0
 10
335.233
 20
4.14197
 11
335.106
 21
4.00287
  0
LINE
  8
0
 10
335.106
 20
4.00287
 11
334.963
 21
3.88078
  0
LINE
  8
0
 10
334.963
 20
3.88078
 11
334.805
 21
3.77763
  0
LINE
  8
0
 10
334.805
 20
3.77763
 11
334.636
 21
3.69505
  0
LINE
  8
0
 10
334.636
 20
3.69505
 11
334.457
 21
3.63435
  0
LINE
  8
0
 10
334.457
 20
3.63435
 11
334.273
 21
3.59648
  0
LINE
  8
0
 10
334.273
 20
3.59648
 11
334.085
 21
3.58202
  0
LINE
  8
0
 10
334.085
 20
3.58202
 11
333.897
 21
3.59122
  0
LINE
  8
0
 10
196.938
 20
-4.34665
 11
196.752
 21
-4.31395
  0
LINE
  8
0
 10
196.752
 20
-4.31395
 11
196.572
 21
-4.25824
  0
LINE
  8
0
 10
196.572
 20
-4.25824
 11
196.401
 21
-4.18042
  0
LINE
  8
0
 10
196.401
 20
-4.18042
 11
196.24
 21
-4.08171
  0
LINE
  8
0
 10
196.24
 20
-4.08171
 11
196.093
 21
-3.96368
  0
LINE
  8
0
 10
196.093
 20
-3.96368
 11
195.963
 21
-3.82819
  0
LINE
  8
0
 10
195.963
 20
-3.82819
 11
195.85
 21
-3.67735
  0
LINE
  8
0
 10
195.85
 20
-3.67735
 11
195.757
 21
-3.51355
  0
LINE
  8
0
 10
195.757
 20
-3.51355
 11
195.685
 21
-3.3394
  0
LINE
  8
0
 10
195.685
 20
-3.3394
 11
195.636
 21
-3.15762
  0
LINE
  8
0
 10
195.636
 20
-3.15762
 11
195.609
 21
-2.97108
  0
LINE
  8
0
 10
195.609
 20
-2.97108
 11
195.607
 21
-2.78273
  0
LINE
  8
0
 10
195.607
 20
-2.78273
 11
195.628
 21
-2.59554
  0
LINE
  8
0
 10
195.628
 20
-2.59554
 11
195.672
 21
-2.41245
  0
LINE
  8
0
 10
195.672
 20
-2.41245
 11
195.739
 21
-2.23634
  0
LINE
  8
0
 10
195.739
 20
-2.23634
 11
195.827
 21
-2.07002
  0
LINE
  8
0
 10
195.827
 20
-2.07002
 11
195.936
 21
-1.91609
  0
LINE
  8
0
 10
195.936
 20
-1.91609
 11
196.063
 21
-1.77699
  0
LINE
  8
0
 10
196.063
 20
-1.77699
 11
196.206
 21
-1.65491
  0
LINE
  8
0
 10
196.206
 20
-1.65491
 11
196.364
 21
-1.55176
  0
LINE
  8
0
 10
196.364
 20
-1.55176
 11
196.533
 21
-1.46918
  0
LINE
  8
0
 10
196.533
 20
-1.46918
 11
196.712
 21
-1.40848
  0
LINE
  8
0
 10
196.712
 20
-1.40848
 11
196.896
 21
-1.37061
  0
LINE
  8
0
 10
196.896
 20
-1.37061
 11
197.084
 21
-1.35614
  0
LINE
  8
0
 10
197.084
 20
-1.35614
 11
197.272
 21
-1.36536
  0
LINE
  8
0
 10
197.272
 20
-1.36536
 11
197.458
 21
-1.39806
  0
LINE
  8
0
 10
197.458
 20
-1.39806
 11
197.638
 21
-1.45377
  0
LINE
  8
0
 10
197.638
 20
-1.45377
 11
197.809
 21
-1.53159
  0
LINE
  8
0
 10
197.809
 20
-1.53159
 11
197.97
 21
-1.63028
  0
LINE
  8
0
 10
197.97
 20
-1.63028
 11
198.116
 21
-1.74832
  0
LINE
  8
0
 10
198.116
 20
-1.74832
 11
198.247
 21
-1.88382
  0
LINE
  8
0
 10
198.247
 20
-1.88382
 11
198.36
 21
-2.03465
  0
LINE
  8
0
 10
198.36
 20
-2.03465
 11
198.453
 21
-2.19844
  0
LINE
  8
0
 10
198.453
 20
-2.19844
 11
198.525
 21
-2.3726
  0
LINE
  8
0
 10
198.525
 20
-2.3726
 11
198.574
 21
-2.55438
  0
LINE
  8
0
 10
198.574
 20
-2.55438
 11
198.601
 21
-2.74092
  0
LINE
  8
0
 10
198.601
 20
-2.74092
 11
198.603
 21
-2.92928
  0
LINE
  8
0
 10
198.603
 20
-2.92928
 11
198.582
 21
-3.11647
  0
LINE
  8
0
 10
198.582
 20
-3.11647
 11
198.538
 21
-3.29956
  0
LINE
  8
0
 10
198.538
 20
-3.29956
 11
198.471
 21
-3.47566
  0
LINE
  8
0
 10
198.471
 20
-3.47566
 11
198.383
 21
-3.64198
  0
LINE
  8
0
 10
198.383
 20
-3.64198
 11
198.274
 21
-3.79591
  0
LINE
  8
0
 10
198.274
 20
-3.79591
 11
198.147
 21
-3.93501
  0
LINE
  8
0
 10
198.147
 20
-3.93501
 11
198.003
 21
-4.0571
  0
LINE
  8
0
 10
198.003
 20
-4.0571
 11
197.846
 21
-4.16025
  0
LINE
  8
0
 10
197.846
 20
-4.16025
 11
197.677
 21
-4.24281
  0
LINE
  8
0
 10
197.677
 20
-4.24281
 11
197.498
 21
-4.30353
  0
LINE
  8
0
 10
197.498
 20
-4.30353
 11
197.314
 21
-4.3414
  0
LINE
  8
0
 10
197.314
 20
-4.3414
 11
197.126
 21
-4.35585
  0
LINE
  8
0
 10
197.126
 20
-4.35585
 11
196.938
 21
-4.34665
  0
LINE
  8
0
 10
543.508
 20
-8.32173
 11
544.188
 21
-8.20178
  0
LINE
  8
0
 10
544.188
 20
-8.20178
 11
544.848
 21
-7.99754
  0
LINE
  8
0
 10
544.848
 20
-7.99754
 11
545.477
 21
-7.71222
  0
LINE
  8
0
 10
545.477
 20
-7.71222
 11
546.065
 21
-7.3503
  0
LINE
  8
0
 10
546.065
 20
-7.3503
 11
546.604
 21
-6.91751
  0
LINE
  8
0
 10
546.604
 20
-6.91751
 11
547.083
 21
-6.42065
  0
LINE
  8
0
 10
547.083
 20
-6.42065
 11
547.497
 21
-5.8676
  0
LINE
  8
0
 10
547.497
 20
-5.8676
 11
547.838
 21
-5.26704
  0
LINE
  8
0
 10
547.838
 20
-5.26704
 11
548.102
 21
-4.62846
  0
LINE
  8
0
 10
548.102
 20
-4.62846
 11
548.283
 21
-3.96193
  0
LINE
  8
0
 10
548.283
 20
-3.96193
 11
548.379
 21
-3.27795
  0
LINE
  8
0
 10
548.379
 20
-3.27795
 11
548.388
 21
-2.58733
  0
LINE
  8
0
 10
548.388
 20
-2.58733
 11
548.312
 21
-1.90094
  0
LINE
  8
0
 10
548.312
 20
-1.90094
 11
526.076
 21
124.204
  0
LINE
  8
0
 10
526.076
 20
124.204
 11
525.913
 21
124.875
  0
LINE
  8
0
 10
525.913
 20
124.875
 11
525.668
 21
125.521
  0
LINE
  8
0
 10
525.668
 20
125.521
 11
525.344
 21
126.131
  0
LINE
  8
0
 10
525.344
 20
126.131
 11
524.946
 21
126.695
  0
LINE
  8
0
 10
524.946
 20
126.695
 11
524.48
 21
127.205
  0
LINE
  8
0
 10
524.48
 20
127.205
 11
523.954
 21
127.653
  0
LINE
  8
0
 10
523.954
 20
127.653
 11
523.376
 21
128.031
  0
LINE
  8
0
 10
523.376
 20
128.031
 11
522.755
 21
128.334
  0
LINE
  8
0
 10
522.755
 20
128.334
 11
522.101
 21
128.556
  0
LINE
  8
0
 10
522.101
 20
128.556
 11
521.425
 21
128.695
  0
LINE
  8
0
 10
521.425
 20
128.695
 11
520.736
 21
128.748
  0
LINE
  8
0
 10
520.736
 20
128.748
 11
415
 21
128.748
  0
LINE
  8
0
 10
415
 20
128.748
 11
415
 21
97
  0
LINE
  8
0
 10
415
 20
97
 11
380
 21
97
  0
LINE
  8
0
 10
380
 20
97
 11
380
 21
-8.35547
  0
LINE
  8
0
 10
380
 20
-8.35547
 11
542.818
 21
-8.35547
  0
LINE
  8
0
 10
542.818
 20
-8.35547
 11
543.508
 21
-8.32173
  0
LINE
  8
0
 10
520.451
 20
121.763
 11
520.266
 21
121.801
  0
LINE
  8
0
 10
520.266
 20
121.801
 11
520.088
 21
121.862
  0
LINE
  8
0
 10
520.088
 20
121.862
 11
519.919
 21
121.944
  0
LINE
  8
0
 10
519.919
 20
121.944
 11
519.761
 21
122.048
  0
LINE
  8
0
 10
519.761
 20
122.048
 11
519.617
 21
122.17
  0
LINE
  8
0
 10
519.617
 20
122.17
 11
519.49
 21
122.309
  0
LINE
  8
0
 10
519.49
 20
122.309
 11
519.382
 21
122.463
  0
LINE
  8
0
 10
519.382
 20
122.463
 11
519.293
 21
122.629
  0
LINE
  8
0
 10
519.293
 20
122.629
 11
519.227
 21
122.805
  0
LINE
  8
0
 10
519.227
 20
122.805
 11
519.182
 21
122.988
  0
LINE
  8
0
 10
519.182
 20
122.988
 11
519.161
 21
123.175
  0
LINE
  8
0
 10
519.161
 20
123.175
 11
519.164
 21
123.364
  0
LINE
  8
0
 10
519.164
 20
123.364
 11
519.19
 21
123.55
  0
LINE
  8
0
 10
519.19
 20
123.55
 11
519.239
 21
123.732
  0
LINE
  8
0
 10
519.239
 20
123.732
 11
519.311
 21
123.906
  0
LINE
  8
0
 10
519.311
 20
123.906
 11
519.404
 21
124.07
  0
LINE
  8
0
 10
519.404
 20
124.07
 11
519.517
 21
124.221
  0
LINE
  8
0
 10
519.517
 20
124.221
 11
519.648
 21
124.356
  0
LINE
  8
0
 10
519.648
 20
124.356
 11
519.795
 21
124.474
  0
LINE
  8
0
 10
519.795
 20
124.474
 11
519.955
 21
124.573
  0
LINE
  8
0
 10
519.955
 20
124.573
 11
520.127
 21
124.651
  0
LINE
  8
0
 10
520.127
 20
124.651
 11
520.307
 21
124.707
  0
LINE
  8
0
 10
520.307
 20
124.707
 11
520.492
 21
124.739
  0
LINE
  8
0
 10
520.492
 20
124.739
 11
520.68
 21
124.748
  0
LINE
  8
0
 10
520.68
 20
124.748
 11
520.868
 21
124.734
  0
LINE
  8
0
 10
520.868
 20
124.734
 11
521.053
 21
124.696
  0
LINE
  8
0
 10
521.053
 20
124.696
 11
521.231
 21
124.635
  0
LINE
  8
0
 10
521.231
 20
124.635
 11
521.4
 21
124.553
  0
LINE
  8
0
 10
521.4
 20
124.553
 11
521.558
 21
124.45
  0
LINE
  8
0
 10
521.558
 20
124.45
 11
521.701
 21
124.328
  0
LINE
  8
0
 10
521.701
 20
124.328
 11
521.828
 21
124.189
  0
LINE
  8
0
 10
521.828
 20
124.189
 11
521.937
 21
124.035
  0
LINE
  8
0
 10
521.937
 20
124.035
 11
522.025
 21
123.868
  0
LINE
  8
0
 10
522.025
 20
123.868
 11
522.092
 21
123.692
  0
LINE
  8
0
 10
522.092
 20
123.692
 11
522.137
 21
123.509
  0
LINE
  8
0
 10
522.137
 20
123.509
 11
522.158
 21
123.322
  0
LINE
  8
0
 10
522.158
 20
123.322
 11
522.155
 21
123.134
  0
LINE
  8
0
 10
522.155
 20
123.134
 11
522.129
 21
122.947
  0
LINE
  8
0
 10
522.129
 20
122.947
 11
522.079
 21
122.765
  0
LINE
  8
0
 10
522.079
 20
122.765
 11
522.008
 21
122.591
  0
LINE
  8
0
 10
522.008
 20
122.591
 11
521.915
 21
122.427
  0
LINE
  8
0
 10
521.915
 20
122.427
 11
521.802
 21
122.276
  0
LINE
  8
0
 10
521.802
 20
122.276
 11
521.671
 21
122.141
  0
LINE
  8
0
 10
521.671
 20
122.141
 11
521.524
 21
122.023
  0
LINE
  8
0
 10
521.524
 20
122.023
 11
521.364
 21
121.924
  0
LINE
  8
0
 10
521.364
 20
121.924
 11
521.192
 21
121.846
  0
LINE
  8
0
 10
521.192
 20
121.846
 11
521.012
 21
121.791
  0
LINE
  8
0
 10
521.012
 20
121.791
 11
520.827
 21
121.758
  0
LINE
  8
0
 10
520.827
 20
121.758
 11
520.638
 21
121.749
  0
LINE
  8
0
 10
520.638
 20
121.749
 11
520.451
 21
121.763
  0
LINE
  8
0
 10
423.477
 20
121.763
 11
423.293
 21
121.801
  0
LINE
  8
0
 10
423.293
 20
121.801
 11
423.115
 21
121.862
  0
LINE
  8
0
 10
423.115
 20
121.862
 11
422.945
 21
121.944
  0
LINE
  8
0
 10
422.945
 20
121.944
 11
422.788
 21
122.048
  0
LINE
  8
0
 10
422.788
 20
122.048
 11
422.644
 21
122.17
  0
LINE
  8
0
 10
422.644
 20
122.17
 11
422.517
 21
122.309
  0
LINE
  8
0
 10
422.517
 20
122.309
 11
422.409
 21
122.463
  0
LINE
  8
0
 10
422.409
 20
122.463
 11
422.32
 21
122.629
  0
LINE
  8
0
 10
422.32
 20
122.629
 11
422.253
 21
122.805
  0
LINE
  8
0
 10
422.253
 20
122.805
 11
422.209
 21
122.988
  0
LINE
  8
0
 10
422.209
 20
122.988
 11
422.188
 21
123.175
  0
LINE
  8
0
 10
422.188
 20
123.175
 11
422.191
 21
123.364
  0
LINE
  8
0
 10
422.191
 20
123.364
 11
422.217
 21
123.55
  0
LINE
  8
0
 10
422.217
 20
123.55
 11
422.266
 21
123.732
  0
LINE
  8
0
 10
422.266
 20
123.732
 11
422.338
 21
123.906
  0
LINE
  8
0
 10
422.338
 20
123.906
 11
422.431
 21
124.07
  0
LINE
  8
0
 10
422.431
 20
124.07
 11
422.544
 21
124.221
  0
LINE
  8
0
 10
422.544
 20
124.221
 11
422.675
 21
124.356
  0
LINE
  8
0
 10
422.675
 20
124.356
 11
422.822
 21
124.474
  0
LINE
  8
0
 10
422.822
 20
124.474
 11
422.982
 21
124.573
  0
LINE
  8
0
 10
422.982
 20
124.573
 11
423.154
 21
124.651
  0
LINE
  8
0
 10
423.154
 20
124.651
 11
423.333
 21
124.707
  0
LINE
  8
0
 10
423.333
 20
124.707
 11
423.519
 21
124.739
  0
LINE
  8
0
 10
423.519
 20
124.739
 11
423.707
 21
124.748
  0
LINE
  8
0
 10
423.707
 20
124.748
 11
423.895
 21
124.734
  0
LINE
  8
0
 10
423.895
 20
124.734
 11
424.079
 21
124.696
  0
LINE
  8
0
 10
424.079
 20
124.696
 11
424.258
 21
124.635
  0
LINE
  8
0
 10
424.258
 20
124.635
 11
424.427
 21
124.553
  0
LINE
  8
0
 10
424.427
 20
124.553
 11
424.585
 21
124.45
  0
LINE
  8
0
 10
424.585
 20
124.45
 11
424.728
 21
124.328
  0
LINE
  8
0
 10
424.728
 20
124.328
 11
424.855
 21
124.189
  0
LINE
  8
0
 10
424.855
 20
124.189
 11
424.964
 21
124.035
  0
LINE
  8
0
 10
424.964
 20
124.035
 11
425.052
 21
123.868
  0
LINE
  8
0
 10
425.052
 20
123.868
 11
425.119
 21
123.692
  0
LINE
  8
0
 10
425.119
 20
123.692
 11
425.163
 21
123.509
  0
LINE
  8
0
 10
425.163
 20
123.509
 11
425.184
 21
123.322
  0
LINE
  8
0
 10
425.184
 20
123.322
 11
425.182
 21
123.134
  0
LINE
  8
0
 10
425.182
 20
123.134
 11
425.156
 21
122.947
  0
LINE
  8
0
 10
425.156
 20
122.947
 11
425.106
 21
122.765
  0
LINE
  8
0
 10
425.106
 20
122.765
 11
425.034
 21
122.591
  0
LINE
  8
0
 10
425.034
 20
122.591
 11
424.941
 21
122.427
  0
LINE
  8
0
 10
424.941
 20
122.427
 11
424.828
 21
122.276
  0
LINE
  8
0
 10
424.828
 20
122.276
 11
424.698
 21
122.141
  0
LINE
  8
0
 10
424.698
 20
122.141
 11
424.551
 21
122.023
  0
LINE
  8
0
 10
424.551
 20
122.023
 11
424.39
 21
121.924
  0
LINE
  8
0
 10
424.39
 20
121.924
 11
424.219
 21
121.846
  0
LINE
  8
0
 10
424.219
 20
121.846
 11
424.039
 21
121.791
  0
LINE
  8
0
 10
424.039
 20
121.791
 11
423.853
 21
121.758
  0
LINE
  8
0
 10
423.853
 20
121.758
 11
423.665
 21
121.749
  0
LINE
  8
0
 10
423.665
 20
121.749
 11
423.477
 21
121.763
  0
LINE
  8
0
 10
405.727
 20
3.59648
 11
405.543
 21
3.63435
  0
LINE
  8
0
 10
405.543
 20
3.63435
 11
405.364
 21
3.69505
  0
LINE
  8
0
 10
405.364
 20
3.69505
 11
405.195
 21
3.77763
  0
LINE
  8
0
 10
405.195
 20
3.77763
 11
405.037
 21
3.88078
  0
LINE
  8
0
 10
405.037
 20
3.88078
 11
404.894
 21
4.00287
  0
LINE
  8
0
 10
404.894
 20
4.00287
 11
404.767
 21
4.14197
  0
LINE
  8
0
 10
404.767
 20
4.14197
 11
404.658
 21
4.2959
  0
LINE
  8
0
 10
404.658
 20
4.2959
 11
404.57
 21
4.46222
  0
LINE
  8
0
 10
404.57
 20
4.46222
 11
404.503
 21
4.63832
  0
LINE
  8
0
 10
404.503
 20
4.63832
 11
404.459
 21
4.82141
  0
LINE
  8
0
 10
404.459
 20
4.82141
 11
404.438
 21
5.00861
  0
LINE
  8
0
 10
404.438
 20
5.00861
 11
404.44
 21
5.19696
  0
LINE
  8
0
 10
404.44
 20
5.19696
 11
404.467
 21
5.3835
  0
LINE
  8
0
 10
404.467
 20
5.3835
 11
404.516
 21
5.56528
  0
LINE
  8
0
 10
404.516
 20
5.56528
 11
404.588
 21
5.73944
  0
LINE
  8
0
 10
404.588
 20
5.73944
 11
404.681
 21
5.90323
  0
LINE
  8
0
 10
404.681
 20
5.90323
 11
404.794
 21
6.05406
  0
LINE
  8
0
 10
404.794
 20
6.05406
 11
404.924
 21
6.18956
  0
LINE
  8
0
 10
404.924
 20
6.18956
 11
405.071
 21
6.30759
  0
LINE
  8
0
 10
405.071
 20
6.30759
 11
405.232
 21
6.4063
  0
LINE
  8
0
 10
405.232
 20
6.4063
 11
405.403
 21
6.48412
  0
LINE
  8
0
 10
405.403
 20
6.48412
 11
405.583
 21
6.53983
  0
LINE
  8
0
 10
405.583
 20
6.53983
 11
405.769
 21
6.57253
  0
LINE
  8
0
 10
405.769
 20
6.57253
 11
405.957
 21
6.58173
  0
LINE
  8
0
 10
405.957
 20
6.58173
 11
406.145
 21
6.56728
  0
LINE
  8
0
 10
406.145
 20
6.56728
 11
406.329
 21
6.5294
  0
LINE
  8
0
 10
406.329
 20
6.5294
 11
406.508
 21
6.46869
  0
LINE
  8
0
 10
406.508
 20
6.46869
 11
406.677
 21
6.38612
  0
LINE
  8
0
 10
406.677
 20
6.38612
 11
406.834
 21
6.28297
  0
LINE
  8
0
 10
406.834
 20
6.28297
 11
406.978
 21
6.16089
  0
LINE
  8
0
 10
406.978
 20
6.16089
 11
407.105
 21
6.02179
  0
LINE
  8
0
 10
407.105
 20
6.02179
 11
407.214
 21
5.86786
  0
LINE
  8
0
 10
407.214
 20
5.86786
 11
407.302
 21
5.70154
  0
LINE
  8
0
 10
407.302
 20
5.70154
 11
407.369
 21
5.52544
  0
LINE
  8
0
 10
407.369
 20
5.52544
 11
407.413
 21
5.34235
  0
LINE
  8
0
 10
407.413
 20
5.34235
 11
407.434
 21
5.15515
  0
LINE
  8
0
 10
407.434
 20
5.15515
 11
407.432
 21
4.9668
  0
LINE
  8
0
 10
407.432
 20
4.9668
 11
407.405
 21
4.78026
  0
LINE
  8
0
 10
407.405
 20
4.78026
 11
407.356
 21
4.59848
  0
LINE
  8
0
 10
407.356
 20
4.59848
 11
407.284
 21
4.42432
  0
LINE
  8
0
 10
407.284
 20
4.42432
 11
407.191
 21
4.26053
  0
LINE
  8
0
 10
407.191
 20
4.26053
 11
407.078
 21
4.1097
  0
LINE
  8
0
 10
407.078
 20
4.1097
 11
406.947
 21
3.9742
  0
LINE
  8
0
 10
406.947
 20
3.9742
 11
406.801
 21
3.85616
  0
LINE
  8
0
 10
406.801
 20
3.85616
 11
406.64
 21
3.75746
  0
LINE
  8
0
 10
406.64
 20
3.75746
 11
406.469
 21
3.67964
  0
LINE
  8
0
 10
406.469
 20
3.67964
 11
406.289
 21
3.62393
  0
LINE
  8
0
 10
406.289
 20
3.62393
 11
406.103
 21
3.59122
  0
LINE
  8
0
 10
406.103
 20
3.59122
 11
405.915
 21
3.58202
  0
LINE
  8
0
 10
405.915
 20
3.58202
 11
405.727
 21
3.59648
  0
LINE
  8
0
 10
542.686
 20
-4.3414
 11
542.502
 21
-4.30353
  0
LINE
  8
0
 10
542.502
 20
-4.30353
 11
542.323
 21
-4.24281
  0
LINE
  8
0
 10
542.323
 20
-4.24281
 11
542.154
 21
-4.16025
  0
LINE
  8
0
 10
542.154
 20
-4.16025
 11
541.997
 21
-4.0571
  0
LINE
  8
0
 10
541.997
 20
-4.0571
 11
541.853
 21
-3.93501
  0
LINE
  8
0
 10
541.853
 20
-3.93501
 11
541.726
 21
-3.79591
  0
LINE
  8
0
 10
541.726
 20
-3.79591
 11
541.617
 21
-3.64198
  0
LINE
  8
0
 10
541.617
 20
-3.64198
 11
541.529
 21
-3.47566
  0
LINE
  8
0
 10
541.529
 20
-3.47566
 11
541.462
 21
-3.29956
  0
LINE
  8
0
 10
541.462
 20
-3.29956
 11
541.418
 21
-3.11647
  0
LINE
  8
0
 10
541.418
 20
-3.11647
 11
541.397
 21
-2.92928
  0
LINE
  8
0
 10
541.397
 20
-2.92928
 11
541.399
 21
-2.74092
  0
LINE
  8
0
 10
541.399
 20
-2.74092
 11
541.426
 21
-2.55438
  0
LINE
  8
0
 10
541.426
 20
-2.55438
 11
541.475
 21
-2.3726
  0
LINE
  8
0
 10
541.475
 20
-2.3726
 11
541.547
 21
-2.19844
  0
LINE
  8
0
 10
541.547
 20
-2.19844
 11
541.64
 21
-2.03465
  0
LINE
  8
0
 10
541.64
 20
-2.03465
 11
541.753
 21
-1.88382
  0
LINE
  8
0
 10
541.753
 20
-1.88382
 11
541.884
 21
-1.74832
  0
LINE
  8
0
 10
541.884
 20
-1.74832
 11
542.03
 21
-1.63028
  0
LINE
  8
0
 10
542.03
 20
-1.63028
 11
542.191
 21
-1.53159
  0
LINE
  8
0
 10
542.191
 20
-1.53159
 11
542.362
 21
-1.45377
  0
LINE
  8
0
 10
542.362
 20
-1.45377
 11
542.542
 21
-1.39806
  0
LINE
  8
0
 10
542.542
 20
-1.39806
 11
542.728
 21
-1.36536
  0
LINE
  8
0
 10
542.728
 20
-1.36536
 11
542.916
 21
-1.35614
  0
LINE
  8
0
 10
542.916
 20
-1.35614
 11
543.104
 21
-1.37061
  0
LINE
  8
0
 10
543.104
 20
-1.37061
 11
543.288
 21
-1.40848
  0
LINE
  8
0
 10
543.288
 20
-1.40848
 11
543.467
 21
-1.46918
  0
LINE
  8
0
 10
543.467
 20
-1.46918
 11
543.636
 21
-1.55176
  0
LINE
  8
0
 10
543.636
 20
-1.55176
 11
543.794
 21
-1.65491
  0
LINE
  8
0
 10
543.794
 20
-1.65491
 11
543.937
 21
-1.77699
  0
LINE
  8
0
 10
543.937
 20
-1.77699
 11
544.064
 21
-1.91609
  0
LINE
  8
0
 10
544.064
 20
-1.91609
 11
544.173
 21
-2.07002
  0
LINE
  8
0
 10
544.173
 20
-2.07002
 11
544.261
 21
-2.23634
  0
LINE
  8
0
 10
544.261
 20
-2.23634
 11
544.328
 21
-2.41245
  0
LINE
  8
0
 10
544.328
 20
-2.41245
 11
544.372
 21
-2.59554
  0
LINE
  8
0
 10
544.372
 20
-2.59554
 11
544.393
 21
-2.78273
  0
LINE
  8
0
 10
544.393
 20
-2.78273
 11
544.391
 21
-2.97108
  0
LINE
  8
0
 10
544.391
 20
-2.97108
 11
544.364
 21
-3.15762
  0
LINE
  8
0
 10
544.364
 20
-3.15762
 11
544.315
 21
-3.3394
  0
LINE
  8
0
 10
544.315
 20
-3.3394
 11
544.243
 21
-3.51355
  0
LINE
  8
0
 10
544.243
 20
-3.51355
 11
544.15
 21
-3.67735
  0
LINE
  8
0
 10
544.15
 20
-3.67735
 11
544.037
 21
-3.82819
  0
LINE
  8
0
 10
544.037
 20
-3.82819
 11
543.906
 21
-3.96368
  0
LINE
  8
0
 10
543.906
 20
-3.96368
 11
543.76
 21
-4.08171
  0
LINE
  8
0
 10
543.76
 20
-4.08171
 11
543.599
 21
-4.18042
  0
LINE
  8
0
 10
543.599
 20
-4.18042
 11
543.428
 21
-4.25824
  0
LINE
  8
0
 10
543.428
 20
-4.25824
 11
543.248
 21
-4.31395
  0
LINE
  8
0
 10
543.248
 20
-4.31395
 11
543.062
 21
-4.34665
  0
LINE
  8
0
 10
543.062
 20
-4.34665
 11
542.874
 21
-4.35585
  0
LINE
  8
0
 10
542.874
 20
-4.35585
 11
542.686
 21
-4.3414
  0
ENDSEC
  0
SECTION
  2
OBJECTS
  0
DICTIONARY
  0
ENDSEC
  0
EOF
