  0
SECTION
  2
BLOCKS
  0
ENDSEC
  0
SECTION
  2
ENTITIES
  0
LINE
  8
0
 10
173.508
 20
-8.32173
 11
174.188
 21
-8.20178
  0
LINE
  8
0
 10
174.188
 20
-8.20178
 11
174.848
 21
-7.99754
  0
LINE
  8
0
 10
174.848
 20
-7.99754
 11
175.477
 21
-7.71222
  0
LINE
  8
0
 10
175.477
 20
-7.71222
 11
176.065
 21
-7.3503
  0
LINE
  8
0
 10
176.065
 20
-7.3503
 11
176.604
 21
-6.91751
  0
LINE
  8
0
 10
176.604
 20
-6.91751
 11
177.084
 21
-6.42065
  0
LINE
  8
0
 10
177.084
 20
-6.42065
 11
177.497
 21
-5.8676
  0
LINE
  8
0
 10
177.497
 20
-5.8676
 11
177.838
 21
-5.26704
  0
LINE
  8
0
 10
177.838
 20
-5.26704
 11
178.102
 21
-4.62846
  0
LINE
  8
0
 10
178.102
 20
-4.62846
 11
178.283
 21
-3.96193
  0
LINE
  8
0
 10
178.283
 20
-3.96193
 11
178.379
 21
-3.27795
  0
LINE
  8
0
 10
178.379
 20
-3.27795
 11
178.388
 21
-2.58733
  0
LINE
  8
0
 10
178.388
 20
-2.58733
 11
178.312
 21
-1.90094
  0
LINE
  8
0
 10
178.312
 20
-1.90094
 11
156.076
 21
124.204
  0
LINE
  8
0
 10
156.076
 20
124.204
 11
155.913
 21
124.875
  0
LINE
  8
0
 10
155.913
 20
124.875
 11
155.668
 21
125.521
  0
LINE
  8
0
 10
155.668
 20
125.521
 11
155.344
 21
126.131
  0
LINE
  8
0
 10
155.344
 20
126.131
 11
154.946
 21
126.695
  0
LINE
  8
0
 10
154.946
 20
126.695
 11
154.48
 21
127.205
  0
LINE
  8
0
 10
154.48
 20
127.205
 11
153.954
 21
127.653
  0
LINE
  8
0
 10
153.954
 20
127.653
 11
153.376
 21
128.031
  0
LINE
  8
0
 10
153.376
 20
128.031
 11
152.755
 21
128.334
  0
LINE
  8
0
 10
152.755
 20
128.334
 11
152.101
 21
128.556
  0
LINE
  8
0
 10
152.101
 20
128.556
 11
151.425
 21
128.695
  0
LINE
  8
0
 10
151.425
 20
128.695
 11
150.736
 21
128.748
  0
LINE
  8
0
 10
150.736
 20
128.748
 11
119.5
 21
128.748
  0
LINE
  8
0
 10
119.5
 20
128.748
 11
119.5
 21
118.195
  0
LINE
  8
0
 10
119.5
 20
118.195
 11
147.015
 21
116.564
  0
LINE
  8
0
 10
147.015
 20
116.564
 11
154.47
 21
93.0007
  0
LINE
  8
0
 10
154.47
 20
93.0007
 11
164.02
 21
38.8363
  0
LINE
  8
0
 10
164.02
 20
38.8363
 11
158.051
 21
17.9829
  0
LINE
  8
0
 10
158.051
 20
17.9829
 11
122.278
 21
2.02861
  0
LINE
  8
0
 10
122.278
 20
2.02861
 11
119.5
 21
1.53879
  0
LINE
  8
0
 10
119.5
 20
1.53879
 11
119.5
 21
-8.35547
  0
LINE
  8
0
 10
119.5
 20
-8.35547
 11
172.818
 21
-8.35547
  0
LINE
  8
0
 10
172.818
 20
-8.35547
 11
173.508
 21
-8.32173
  0
LINE
  8
0
 10
150.451
 20
121.763
 11
150.266
 21
121.801
  0
LINE
  8
0
 10
150.266
 20
121.801
 11
150.088
 21
121.862
  0
LINE
  8
0
 10
150.088
 20
121.862
 11
149.919
 21
121.944
  0
LINE
  8
0
 10
149.919
 20
121.944
 11
149.761
 21
122.048
  0
LINE
  8
0
 10
149.761
 20
122.048
 11
149.617
 21
122.17
  0
LINE
  8
0
 10
149.617
 20
122.17
 11
149.49
 21
122.309
  0
LINE
  8
0
 10
149.49
 20
122.309
 11
149.382
 21
122.463
  0
LINE
  8
0
 10
149.382
 20
122.463
 11
149.293
 21
122.629
  0
LINE
  8
0
 10
149.293
 20
122.629
 11
149.227
 21
122.805
  0
LINE
  8
0
 10
149.227
 20
122.805
 11
149.182
 21
122.988
  0
LINE
  8
0
 10
149.182
 20
122.988
 11
149.161
 21
123.175
  0
LINE
  8
0
 10
149.161
 20
123.175
 11
149.164
 21
123.364
  0
LINE
  8
0
 10
149.164
 20
123.364
 11
149.19
 21
123.55
  0
LINE
  8
0
 10
149.19
 20
123.55
 11
149.239
 21
123.732
  0
LINE
  8
0
 10
149.239
 20
123.732
 11
149.311
 21
123.906
  0
LINE
  8
0
 10
149.311
 20
123.906
 11
149.404
 21
124.07
  0
LINE
  8
0
 10
149.404
 20
124.07
 11
149.517
 21
124.221
  0
LINE
  8
0
 10
149.517
 20
124.221
 11
149.648
 21
124.356
  0
LINE
  8
0
 10
149.648
 20
124.356
 11
149.795
 21
124.474
  0
LINE
  8
0
 10
149.795
 20
124.474
 11
149.955
 21
124.573
  0
LINE
  8
0
 10
149.955
 20
124.573
 11
150.127
 21
124.651
  0
LINE
  8
0
 10
150.127
 20
124.651
 11
150.307
 21
124.707
  0
LINE
  8
0
 10
150.307
 20
124.707
 11
150.492
 21
124.739
  0
LINE
  8
0
 10
150.492
 20
124.739
 11
150.68
 21
124.748
  0
LINE
  8
0
 10
150.68
 20
124.748
 11
150.868
 21
124.734
  0
LINE
  8
0
 10
150.868
 20
124.734
 11
151.053
 21
124.696
  0
LINE
  8
0
 10
151.053
 20
124.696
 11
151.231
 21
124.635
  0
LINE
  8
0
 10
151.231
 20
124.635
 11
151.4
 21
124.553
  0
LINE
  8
0
 10
151.4
 20
124.553
 11
151.558
 21
124.45
  0
LINE
  8
0
 10
151.558
 20
124.45
 11
151.701
 21
124.328
  0
LINE
  8
0
 10
151.701
 20
124.328
 11
151.828
 21
124.189
  0
LINE
  8
0
 10
151.828
 20
124.189
 11
151.937
 21
124.035
  0
LINE
  8
0
 10
151.937
 20
124.035
 11
152.025
 21
123.868
  0
LINE
  8
0
 10
152.025
 20
123.868
 11
152.092
 21
123.692
  0
LINE
  8
0
 10
152.092
 20
123.692
 11
152.137
 21
123.509
  0
LINE
  8
0
 10
152.137
 20
123.509
 11
152.158
 21
123.322
  0
LINE
  8
0
 10
152.158
 20
123.322
 11
152.155
 21
123.134
  0
LINE
  8
0
 10
152.155
 20
123.134
 11
152.129
 21
122.947
  0
LINE
  8
0
 10
152.129
 20
122.947
 11
152.079
 21
122.765
  0
LINE
  8
0
 10
152.079
 20
122.765
 11
152.008
 21
122.591
  0
LINE
  8
0
 10
152.008
 20
122.591
 11
151.915
 21
122.427
  0
LINE
  8
0
 10
151.915
 20
122.427
 11
151.802
 21
122.276
  0
LINE
  8
0
 10
151.802
 20
122.276
 11
151.671
 21
122.141
  0
LINE
  8
0
 10
151.671
 20
122.141
 11
151.524
 21
122.023
  0
LINE
  8
0
 10
151.524
 20
122.023
 11
151.364
 21
121.924
  0
LINE
  8
0
 10
151.364
 20
121.924
 11
151.192
 21
121.846
  0
LINE
  8
0
 10
151.192
 20
121.846
 11
151.012
 21
121.791
  0
LINE
  8
0
 10
151.012
 20
121.791
 11
150.827
 21
121.758
  0
LINE
  8
0
 10
150.827
 20
121.758
 11
150.638
 21
121.749
  0
LINE
  8
0
 10
150.638
 20
121.749
 11
150.451
 21
121.763
  0
LINE
  8
0
 10
172.686
 20
-4.3414
 11
172.502
 21
-4.30353
  0
LINE
  8
0
 10
172.502
 20
-4.30353
 11
172.323
 21
-4.24281
  0
LINE
  8
0
 10
172.323
 20
-4.24281
 11
172.154
 21
-4.16025
  0
LINE
  8
0
 10
172.154
 20
-4.16025
 11
171.997
 21
-4.0571
  0
LINE
  8
0
 10
171.997
 20
-4.0571
 11
171.853
 21
-3.93501
  0
LINE
  8
0
 10
171.853
 20
-3.93501
 11
171.726
 21
-3.79591
  0
LINE
  8
0
 10
171.726
 20
-3.79591
 11
171.617
 21
-3.64198
  0
LINE
  8
0
 10
171.617
 20
-3.64198
 11
171.529
 21
-3.47566
  0
LINE
  8
0
 10
171.529
 20
-3.47566
 11
171.462
 21
-3.29956
  0
LINE
  8
0
 10
171.462
 20
-3.29956
 11
171.418
 21
-3.11647
  0
LINE
  8
0
 10
171.418
 20
-3.11647
 11
171.397
 21
-2.92928
  0
LINE
  8
0
 10
171.397
 20
-2.92928
 11
171.399
 21
-2.74092
  0
LINE
  8
0
 10
171.399
 20
-2.74092
 11
171.426
 21
-2.55438
  0
LINE
  8
0
 10
171.426
 20
-2.55438
 11
171.475
 21
-2.3726
  0
LINE
  8
0
 10
171.475
 20
-2.3726
 11
171.547
 21
-2.19844
  0
LINE
  8
0
 10
171.547
 20
-2.19844
 11
171.64
 21
-2.03465
  0
LINE
  8
0
 10
171.64
 20
-2.03465
 11
171.753
 21
-1.88382
  0
LINE
  8
0
 10
171.753
 20
-1.88382
 11
171.884
 21
-1.74832
  0
LINE
  8
0
 10
171.884
 20
-1.74832
 11
172.03
 21
-1.63028
  0
LINE
  8
0
 10
172.03
 20
-1.63028
 11
172.191
 21
-1.53159
  0
LINE
  8
0
 10
172.191
 20
-1.53159
 11
172.362
 21
-1.45377
  0
LINE
  8
0
 10
172.362
 20
-1.45377
 11
172.542
 21
-1.39806
  0
LINE
  8
0
 10
172.542
 20
-1.39806
 11
172.728
 21
-1.36536
  0
LINE
  8
0
 10
172.728
 20
-1.36536
 11
172.916
 21
-1.35614
  0
LINE
  8
0
 10
172.916
 20
-1.35614
 11
173.104
 21
-1.37061
  0
LINE
  8
0
 10
173.104
 20
-1.37061
 11
173.288
 21
-1.40848
  0
LINE
  8
0
 10
173.288
 20
-1.40848
 11
173.467
 21
-1.46918
  0
LINE
  8
0
 10
173.467
 20
-1.46918
 11
173.636
 21
-1.55176
  0
LINE
  8
0
 10
173.636
 20
-1.55176
 11
173.794
 21
-1.65491
  0
LINE
  8
0
 10
173.794
 20
-1.65491
 11
173.937
 21
-1.77699
  0
LINE
  8
0
 10
173.937
 20
-1.77699
 11
174.064
 21
-1.91609
  0
LINE
  8
0
 10
174.064
 20
-1.91609
 11
174.173
 21
-2.07002
  0
LINE
  8
0
 10
174.173
 20
-2.07002
 11
174.261
 21
-2.23634
  0
LINE
  8
0
 10
174.261
 20
-2.23634
 11
174.328
 21
-2.41245
  0
LINE
  8
0
 10
174.328
 20
-2.41245
 11
174.372
 21
-2.59554
  0
LINE
  8
0
 10
174.372
 20
-2.59554
 11
174.393
 21
-2.78273
  0
LINE
  8
0
 10
174.393
 20
-2.78273
 11
174.391
 21
-2.97108
  0
LINE
  8
0
 10
174.391
 20
-2.97108
 11
174.364
 21
-3.15762
  0
LINE
  8
0
 10
174.364
 20
-3.15762
 11
174.315
 21
-3.3394
  0
LINE
  8
0
 10
174.315
 20
-3.3394
 11
174.243
 21
-3.51355
  0
LINE
  8
0
 10
174.243
 20
-3.51355
 11
174.15
 21
-3.67735
  0
LINE
  8
0
 10
174.15
 20
-3.67735
 11
174.037
 21
-3.82819
  0
LINE
  8
0
 10
174.037
 20
-3.82819
 11
173.907
 21
-3.96368
  0
LINE
  8
0
 10
173.907
 20
-3.96368
 11
173.76
 21
-4.08171
  0
LINE
  8
0
 10
173.76
 20
-4.08171
 11
173.599
 21
-4.18042
  0
LINE
  8
0
 10
173.599
 20
-4.18042
 11
173.428
 21
-4.25824
  0
LINE
  8
0
 10
173.428
 20
-4.25824
 11
173.248
 21
-4.31395
  0
LINE
  8
0
 10
173.248
 20
-4.31395
 11
173.062
 21
-4.34665
  0
LINE
  8
0
 10
173.062
 20
-4.34665
 11
172.874
 21
-4.35585
  0
LINE
  8
0
 10
172.874
 20
-4.35585
 11
172.686
 21
-4.3414
  0
LINE
  8
0
 10
-119.5
 20
11.1853
 11
-167.407
 21
19.6326
  0
LINE
  8
0
 10
-167.407
 20
19.6326
 11
-154.47
 21
93.0007
  0
LINE
  8
0
 10
-154.47
 20
93.0007
 11
-147.015
 21
116.564
  0
LINE
  8
0
 10
-147.015
 20
116.564
 11
-130
 21
117.573
  0
LINE
  8
0
 10
-130
 20
117.573
 11
-130
 21
128.748
  0
LINE
  8
0
 10
-130
 20
128.748
 11
-150.736
 21
128.748
  0
LINE
  8
0
 10
-150.736
 20
128.748
 11
-151.425
 21
128.695
  0
LINE
  8
0
 10
-151.425
 20
128.695
 11
-152.101
 21
128.556
  0
LINE
  8
0
 10
-152.101
 20
128.556
 11
-152.755
 21
128.334
  0
LINE
  8
0
 10
-152.755
 20
128.334
 11
-153.376
 21
128.031
  0
LINE
  8
0
 10
-153.376
 20
128.031
 11
-153.954
 21
127.653
  0
LINE
  8
0
 10
-153.954
 20
127.653
 11
-154.48
 21
127.205
  0
LINE
  8
0
 10
-154.48
 20
127.205
 11
-154.946
 21
126.695
  0
LINE
  8
0
 10
-154.946
 20
126.695
 11
-155.344
 21
126.131
  0
LINE
  8
0
 10
-155.344
 20
126.131
 11
-155.668
 21
125.521
  0
LINE
  8
0
 10
-155.668
 20
125.521
 11
-155.913
 21
124.875
  0
LINE
  8
0
 10
-155.913
 20
124.875
 11
-156.076
 21
124.204
  0
LINE
  8
0
 10
-156.076
 20
124.204
 11
-178.312
 21
-1.90094
  0
LINE
  8
0
 10
-178.312
 20
-1.90094
 11
-178.389
 21
-2.58733
  0
LINE
  8
0
 10
-178.389
 20
-2.58733
 11
-178.379
 21
-3.27795
  0
LINE
  8
0
 10
-178.379
 20
-3.27795
 11
-178.283
 21
-3.96193
  0
LINE
  8
0
 10
-178.283
 20
-3.96193
 11
-178.102
 21
-4.62846
  0
LINE
  8
0
 10
-178.102
 20
-4.62846
 11
-177.838
 21
-5.26704
  0
LINE
  8
0
 10
-177.838
 20
-5.26704
 11
-177.497
 21
-5.8676
  0
LINE
  8
0
 10
-177.497
 20
-5.8676
 11
-177.084
 21
-6.42065
  0
LINE
  8
0
 10
-177.084
 20
-6.42065
 11
-176.604
 21
-6.91751
  0
LINE
  8
0
 10
-176.604
 20
-6.91751
 11
-176.065
 21
-7.3503
  0
LINE
  8
0
 10
-176.065
 20
-7.3503
 11
-175.477
 21
-7.71222
  0
LINE
  8
0
 10
-175.477
 20
-7.71222
 11
-174.848
 21
-7.99754
  0
LINE
  8
0
 10
-174.848
 20
-7.99754
 11
-174.188
 21
-8.20178
  0
LINE
  8
0
 10
-174.188
 20
-8.20178
 11
-173.508
 21
-8.32173
  0
LINE
  8
0
 10
-173.508
 20
-8.32173
 11
-172.818
 21
-8.35547
  0
LINE
  8
0
 10
-172.818
 20
-8.35547
 11
-119.5
 21
-8.35547
  0
LINE
  8
0
 10
-119.5
 20
-8.35547
 11
-119.5
 21
11.1853
  0
LINE
  8
0
 10
-150.827
 20
121.758
 11
-151.012
 21
121.791
  0
LINE
  8
0
 10
-151.012
 20
121.791
 11
-151.192
 21
121.846
  0
LINE
  8
0
 10
-151.192
 20
121.846
 11
-151.364
 21
121.924
  0
LINE
  8
0
 10
-151.364
 20
121.924
 11
-151.524
 21
122.023
  0
LINE
  8
0
 10
-151.524
 20
122.023
 11
-151.671
 21
122.141
  0
LINE
  8
0
 10
-151.671
 20
122.141
 11
-151.802
 21
122.276
  0
LINE
  8
0
 10
-151.802
 20
122.276
 11
-151.915
 21
122.427
  0
LINE
  8
0
 10
-151.915
 20
122.427
 11
-152.008
 21
122.591
  0
LINE
  8
0
 10
-152.008
 20
122.591
 11
-152.079
 21
122.765
  0
LINE
  8
0
 10
-152.079
 20
122.765
 11
-152.129
 21
122.947
  0
LINE
  8
0
 10
-152.129
 20
122.947
 11
-152.155
 21
123.134
  0
LINE
  8
0
 10
-152.155
 20
123.134
 11
-152.158
 21
123.322
  0
LINE
  8
0
 10
-152.158
 20
123.322
 11
-152.137
 21
123.509
  0
LINE
  8
0
 10
-152.137
 20
123.509
 11
-152.092
 21
123.692
  0
LINE
  8
0
 10
-152.092
 20
123.692
 11
-152.025
 21
123.868
  0
LINE
  8
0
 10
-152.025
 20
123.868
 11
-151.937
 21
124.035
  0
LINE
  8
0
 10
-151.937
 20
124.035
 11
-151.828
 21
124.189
  0
LINE
  8
0
 10
-151.828
 20
124.189
 11
-151.701
 21
124.328
  0
LINE
  8
0
 10
-151.701
 20
124.328
 11
-151.558
 21
124.45
  0
LINE
  8
0
 10
-151.558
 20
124.45
 11
-151.4
 21
124.553
  0
LINE
  8
0
 10
-151.4
 20
124.553
 11
-151.231
 21
124.635
  0
LINE
  8
0
 10
-151.231
 20
124.635
 11
-151.053
 21
124.696
  0
LINE
  8
0
 10
-151.053
 20
124.696
 11
-150.868
 21
124.734
  0
LINE
  8
0
 10
-150.868
 20
124.734
 11
-150.68
 21
124.748
  0
LINE
  8
0
 10
-150.68
 20
124.748
 11
-150.492
 21
124.739
  0
LINE
  8
0
 10
-150.492
 20
124.739
 11
-150.307
 21
124.707
  0
LINE
  8
0
 10
-150.307
 20
124.707
 11
-150.127
 21
124.651
  0
LINE
  8
0
 10
-150.127
 20
124.651
 11
-149.955
 21
124.573
  0
LINE
  8
0
 10
-149.955
 20
124.573
 11
-149.795
 21
124.474
  0
LINE
  8
0
 10
-149.795
 20
124.474
 11
-149.648
 21
124.356
  0
LINE
  8
0
 10
-149.648
 20
124.356
 11
-149.517
 21
124.221
  0
LINE
  8
0
 10
-149.517
 20
124.221
 11
-149.404
 21
124.07
  0
LINE
  8
0
 10
-149.404
 20
124.07
 11
-149.311
 21
123.906
  0
LINE
  8
0
 10
-149.311
 20
123.906
 11
-149.239
 21
123.732
  0
LINE
  8
0
 10
-149.239
 20
123.732
 11
-149.19
 21
123.55
  0
LINE
  8
0
 10
-149.19
 20
123.55
 11
-149.164
 21
123.364
  0
LINE
  8
0
 10
-149.164
 20
123.364
 11
-149.161
 21
123.175
  0
LINE
  8
0
 10
-149.161
 20
123.175
 11
-149.182
 21
122.988
  0
LINE
  8
0
 10
-149.182
 20
122.988
 11
-149.227
 21
122.805
  0
LINE
  8
0
 10
-149.227
 20
122.805
 11
-149.293
 21
122.629
  0
LINE
  8
0
 10
-149.293
 20
122.629
 11
-149.382
 21
122.463
  0
LINE
  8
0
 10
-149.382
 20
122.463
 11
-149.49
 21
122.309
  0
LINE
  8
0
 10
-149.49
 20
122.309
 11
-149.617
 21
122.17
  0
LINE
  8
0
 10
-149.617
 20
122.17
 11
-149.761
 21
122.048
  0
LINE
  8
0
 10
-149.761
 20
122.048
 11
-149.919
 21
121.944
  0
LINE
  8
0
 10
-149.919
 20
121.944
 11
-150.088
 21
121.862
  0
LINE
  8
0
 10
-150.088
 20
121.862
 11
-150.266
 21
121.801
  0
LINE
  8
0
 10
-150.266
 20
121.801
 11
-150.451
 21
121.763
  0
LINE
  8
0
 10
-150.451
 20
121.763
 11
-150.638
 21
121.749
  0
LINE
  8
0
 10
-150.638
 20
121.749
 11
-150.827
 21
121.758
  0
LINE
  8
0
 10
-173.062
 20
-4.34665
 11
-173.248
 21
-4.31395
  0
LINE
  8
0
 10
-173.248
 20
-4.31395
 11
-173.428
 21
-4.25824
  0
LINE
  8
0
 10
-173.428
 20
-4.25824
 11
-173.599
 21
-4.18042
  0
LINE
  8
0
 10
-173.599
 20
-4.18042
 11
-173.76
 21
-4.08171
  0
LINE
  8
0
 10
-173.76
 20
-4.08171
 11
-173.907
 21
-3.96368
  0
LINE
  8
0
 10
-173.907
 20
-3.96368
 11
-174.037
 21
-3.82819
  0
LINE
  8
0
 10
-174.037
 20
-3.82819
 11
-174.15
 21
-3.67735
  0
LINE
  8
0
 10
-174.15
 20
-3.67735
 11
-174.243
 21
-3.51355
  0
LINE
  8
0
 10
-174.243
 20
-3.51355
 11
-174.315
 21
-3.3394
  0
LINE
  8
0
 10
-174.315
 20
-3.3394
 11
-174.364
 21
-3.15762
  0
LINE
  8
0
 10
-174.364
 20
-3.15762
 11
-174.391
 21
-2.97108
  0
LINE
  8
0
 10
-174.391
 20
-2.97108
 11
-174.393
 21
-2.78273
  0
LINE
  8
0
 10
-174.393
 20
-2.78273
 11
-174.372
 21
-2.59554
  0
LINE
  8
0
 10
-174.372
 20
-2.59554
 11
-174.328
 21
-2.41245
  0
LINE
  8
0
 10
-174.328
 20
-2.41245
 11
-174.261
 21
-2.23634
  0
LINE
  8
0
 10
-174.261
 20
-2.23634
 11
-174.173
 21
-2.07002
  0
LINE
  8
0
 10
-174.173
 20
-2.07002
 11
-174.064
 21
-1.91609
  0
LINE
  8
0
 10
-174.064
 20
-1.91609
 11
-173.937
 21
-1.77699
  0
LINE
  8
0
 10
-173.937
 20
-1.77699
 11
-173.794
 21
-1.65491
  0
LINE
  8
0
 10
-173.794
 20
-1.65491
 11
-173.636
 21
-1.55176
  0
LINE
  8
0
 10
-173.636
 20
-1.55176
 11
-173.467
 21
-1.46918
  0
LINE
  8
0
 10
-173.467
 20
-1.46918
 11
-173.288
 21
-1.40848
  0
LINE
  8
0
 10
-173.288
 20
-1.40848
 11
-173.104
 21
-1.37061
  0
LINE
  8
0
 10
-173.104
 20
-1.37061
 11
-172.916
 21
-1.35614
  0
LINE
  8
0
 10
-172.916
 20
-1.35614
 11
-172.728
 21
-1.36536
  0
LINE
  8
0
 10
-172.728
 20
-1.36536
 11
-172.542
 21
-1.39806
  0
LINE
  8
0
 10
-172.542
 20
-1.39806
 11
-172.362
 21
-1.45377
  0
LINE
  8
0
 10
-172.362
 20
-1.45377
 11
-172.191
 21
-1.53159
  0
LINE
  8
0
 10
-172.191
 20
-1.53159
 11
-172.03
 21
-1.63028
  0
LINE
  8
0
 10
-172.03
 20
-1.63028
 11
-171.884
 21
-1.74832
  0
LINE
  8
0
 10
-171.884
 20
-1.74832
 11
-171.753
 21
-1.88382
  0
LINE
  8
0
 10
-171.753
 20
-1.88382
 11
-171.64
 21
-2.03465
  0
LINE
  8
0
 10
-171.64
 20
-2.03465
 11
-171.547
 21
-2.19844
  0
LINE
  8
0
 10
-171.547
 20
-2.19844
 11
-171.475
 21
-2.3726
  0
LINE
  8
0
 10
-171.475
 20
-2.3726
 11
-171.426
 21
-2.55438
  0
LINE
  8
0
 10
-171.426
 20
-2.55438
 11
-171.399
 21
-2.74092
  0
LINE
  8
0
 10
-171.399
 20
-2.74092
 11
-171.397
 21
-2.92928
  0
LINE
  8
0
 10
-171.397
 20
-2.92928
 11
-171.418
 21
-3.11647
  0
LINE
  8
0
 10
-171.418
 20
-3.11647
 11
-171.462
 21
-3.29956
  0
LINE
  8
0
 10
-171.462
 20
-3.29956
 11
-171.529
 21
-3.47566
  0
LINE
  8
0
 10
-171.529
 20
-3.47566
 11
-171.617
 21
-3.64198
  0
LINE
  8
0
 10
-171.617
 20
-3.64198
 11
-171.726
 21
-3.79591
  0
LINE
  8
0
 10
-171.726
 20
-3.79591
 11
-171.853
 21
-3.93501
  0
LINE
  8
0
 10
-171.853
 20
-3.93501
 11
-171.997
 21
-4.0571
  0
LINE
  8
0
 10
-171.997
 20
-4.0571
 11
-172.154
 21
-4.16025
  0
LINE
  8
0
 10
-172.154
 20
-4.16025
 11
-172.323
 21
-4.24281
  0
LINE
  8
0
 10
-172.323
 20
-4.24281
 11
-172.502
 21
-4.30353
  0
LINE
  8
0
 10
-172.502
 20
-4.30353
 11
-172.686
 21
-4.3414
  0
LINE
  8
0
 10
-172.686
 20
-4.3414
 11
-172.874
 21
-4.35585
  0
LINE
  8
0
 10
-172.874
 20
-4.35585
 11
-173.062
 21
-4.34665
  0
LINE
  8
0
 10
44.2992
 20
117.783
 11
44.9794
 21
117.903
  0
LINE
  8
0
 10
44.9794
 20
117.903
 11
45.6393
 21
118.107
  0
LINE
  8
0
 10
45.6393
 20
118.107
 11
46.2683
 21
118.392
  0
LINE
  8
0
 10
46.2683
 20
118.392
 11
46.8565
 21
118.754
  0
LINE
  8
0
 10
46.8565
 20
118.754
 11
47.3948
 21
119.187
  0
LINE
  8
0
 10
47.3948
 20
119.187
 11
47.8746
 21
119.684
  0
LINE
  8
0
 10
47.8746
 20
119.684
 11
48.2884
 21
120.237
  0
LINE
  8
0
 10
48.2884
 20
120.237
 11
48.6295
 21
120.838
  0
LINE
  8
0
 10
48.6295
 20
120.838
 11
48.8927
 21
121.476
  0
LINE
  8
0
 10
48.8927
 20
121.476
 11
48.9761
 21
121.783
  0
LINE
  8
0
 10
48.9761
 20
121.783
 11
109.5
 21
118.195
  0
LINE
  8
0
 10
109.5
 20
118.195
 11
109.5
 21
128.748
  0
LINE
  8
0
 10
109.5
 20
128.748
 11
-99
 21
128.748
  0
LINE
  8
0
 10
-99
 20
128.748
 11
-99
 21
118.818
  0
LINE
  8
0
 10
-99
 20
118.818
 11
-48.9761
 21
121.783
  0
LINE
  8
0
 10
-48.9761
 20
121.783
 11
-48.8927
 21
121.476
  0
LINE
  8
0
 10
-48.8927
 20
121.476
 11
-48.6295
 21
120.838
  0
LINE
  8
0
 10
-48.6295
 20
120.838
 11
-48.2884
 21
120.237
  0
LINE
  8
0
 10
-48.2884
 20
120.237
 11
-47.8746
 21
119.684
  0
LINE
  8
0
 10
-47.8746
 20
119.684
 11
-47.3948
 21
119.187
  0
LINE
  8
0
 10
-47.3948
 20
119.187
 11
-46.8565
 21
118.754
  0
LINE
  8
0
 10
-46.8565
 20
118.754
 11
-46.2683
 21
118.392
  0
LINE
  8
0
 10
-46.2683
 20
118.392
 11
-45.6393
 21
118.107
  0
LINE
  8
0
 10
-45.6393
 20
118.107
 11
-44.9794
 21
117.903
  0
LINE
  8
0
 10
-44.9794
 20
117.903
 11
-44.2992
 21
117.783
  0
LINE
  8
0
 10
-44.2992
 20
117.783
 11
-43.6094
 21
117.749
  0
LINE
  8
0
 10
-43.6094
 20
117.749
 11
-42.9207
 21
117.802
  0
LINE
  8
0
 10
-42.9207
 20
117.802
 11
-42.2441
 21
117.941
  0
LINE
  8
0
 10
-42.2441
 20
117.941
 11
-41.5903
 21
118.164
  0
LINE
  8
0
 10
-41.5903
 20
118.164
 11
-40.9695
 21
118.466
  0
LINE
  8
0
 10
-40.9695
 20
118.466
 11
-40.3915
 21
118.845
  0
LINE
  8
0
 10
-40.3915
 20
118.845
 11
-39.8655
 21
119.292
  0
LINE
  8
0
 10
-39.8655
 20
119.292
 11
-39.3998
 21
119.802
  0
LINE
  8
0
 10
-39.3998
 20
119.802
 11
-39.0017
 21
120.367
  0
LINE
  8
0
 10
-39.0017
 20
120.367
 11
-38.6774
 21
120.977
  0
LINE
  8
0
 10
-38.6774
 20
120.977
 11
-38.4321
 21
121.622
  0
LINE
  8
0
 10
-38.4321
 20
121.622
 11
-38.2697
 21
122.294
  0
LINE
  8
0
 10
-38.2697
 20
122.294
 11
-38.2557
 21
122.419
  0
LINE
  8
0
 10
-38.2557
 20
122.419
 11
-34.6561
 21
122.632
  0
LINE
  8
0
 10
-34.6561
 20
122.632
 11
34.6561
 21
122.632
  0
LINE
  8
0
 10
34.6561
 20
122.632
 11
38.2557
 21
122.419
  0
LINE
  8
0
 10
38.2557
 20
122.419
 11
38.2697
 21
122.294
  0
LINE
  8
0
 10
38.2697
 20
122.294
 11
38.4321
 21
121.622
  0
LINE
  8
0
 10
38.4321
 20
121.622
 11
38.6774
 21
120.977
  0
LINE
  8
0
 10
38.6774
 20
120.977
 11
39.0017
 21
120.367
  0
LINE
  8
0
 10
39.0017
 20
120.367
 11
39.3998
 21
119.802
  0
LINE
  8
0
 10
39.3998
 20
119.802
 11
39.8655
 21
119.292
  0
LINE
  8
0
 10
39.8655
 20
119.292
 11
40.3915
 21
118.845
  0
LINE
  8
0
 10
40.3915
 20
118.845
 11
40.9695
 21
118.466
  0
LINE
  8
0
 10
40.9695
 20
118.466
 11
41.5903
 21
118.164
  0
LINE
  8
0
 10
41.5903
 20
118.164
 11
42.2441
 21
117.941
  0
LINE
  8
0
 10
42.2441
 20
117.941
 11
42.9207
 21
117.802
  0
LINE
  8
0
 10
42.9207
 20
117.802
 11
43.6094
 21
117.749
  0
LINE
  8
0
 10
43.6094
 20
117.749
 11
44.2992
 21
117.783
  0
LINE
  8
0
 10
43.4774
 20
121.763
 11
43.2929
 21
121.801
  0
LINE
  8
0
 10
43.2929
 20
121.801
 11
43.1146
 21
121.862
  0
LINE
  8
0
 10
43.1146
 20
121.862
 11
42.9453
 21
121.944
  0
LINE
  8
0
 10
42.9453
 20
121.944
 11
42.7876
 21
122.048
  0
LINE
  8
0
 10
42.7876
 20
122.048
 11
42.6442
 21
122.17
  0
LINE
  8
0
 10
42.6442
 20
122.17
 11
42.5172
 21
122.309
  0
LINE
  8
0
 10
42.5172
 20
122.309
 11
42.4086
 21
122.463
  0
LINE
  8
0
 10
42.4086
 20
122.463
 11
42.3201
 21
122.629
  0
LINE
  8
0
 10
42.3201
 20
122.629
 11
42.2533
 21
122.805
  0
LINE
  8
0
 10
42.2533
 20
122.805
 11
42.209
 21
122.988
  0
LINE
  8
0
 10
42.209
 20
122.988
 11
42.188
 21
123.175
  0
LINE
  8
0
 10
42.188
 20
123.175
 11
42.1906
 21
123.364
  0
LINE
  8
0
 10
42.1906
 20
123.364
 11
42.2168
 21
123.55
  0
LINE
  8
0
 10
42.2168
 20
123.55
 11
42.2662
 21
123.732
  0
LINE
  8
0
 10
42.2662
 20
123.732
 11
42.338
 21
123.906
  0
LINE
  8
0
 10
42.338
 20
123.906
 11
42.431
 21
124.07
  0
LINE
  8
0
 10
42.431
 20
124.07
 11
42.5439
 21
124.221
  0
LINE
  8
0
 10
42.5439
 20
124.221
 11
42.6747
 21
124.356
  0
LINE
  8
0
 10
42.6747
 20
124.356
 11
42.8215
 21
124.474
  0
LINE
  8
0
 10
42.8215
 20
124.474
 11
42.982
 21
124.573
  0
LINE
  8
0
 10
42.982
 20
124.573
 11
43.1535
 21
124.651
  0
LINE
  8
0
 10
43.1535
 20
124.651
 11
43.3335
 21
124.707
  0
LINE
  8
0
 10
43.3335
 20
124.707
 11
43.519
 21
124.739
  0
LINE
  8
0
 10
43.519
 20
124.739
 11
43.7071
 21
124.748
  0
LINE
  8
0
 10
43.7071
 20
124.748
 11
43.8949
 21
124.734
  0
LINE
  8
0
 10
43.8949
 20
124.734
 11
44.0795
 21
124.696
  0
LINE
  8
0
 10
44.0795
 20
124.696
 11
44.2578
 21
124.635
  0
LINE
  8
0
 10
44.2578
 20
124.635
 11
44.4271
 21
124.553
  0
LINE
  8
0
 10
44.4271
 20
124.553
 11
44.5847
 21
124.45
  0
LINE
  8
0
 10
44.5847
 20
124.45
 11
44.7281
 21
124.328
  0
LINE
  8
0
 10
44.7281
 20
124.328
 11
44.8552
 21
124.189
  0
LINE
  8
0
 10
44.8552
 20
124.189
 11
44.9638
 21
124.035
  0
LINE
  8
0
 10
44.9638
 20
124.035
 11
45.0522
 21
123.868
  0
LINE
  8
0
 10
45.0522
 20
123.868
 11
45.1191
 21
123.692
  0
LINE
  8
0
 10
45.1191
 20
123.692
 11
45.1634
 21
123.509
  0
LINE
  8
0
 10
45.1634
 20
123.509
 11
45.1844
 21
123.322
  0
LINE
  8
0
 10
45.1844
 20
123.322
 11
45.1817
 21
123.134
  0
LINE
  8
0
 10
45.1817
 20
123.134
 11
45.1555
 21
122.947
  0
LINE
  8
0
 10
45.1555
 20
122.947
 11
45.1061
 21
122.765
  0
LINE
  8
0
 10
45.1061
 20
122.765
 11
45.0344
 21
122.591
  0
LINE
  8
0
 10
45.0344
 20
122.591
 11
44.9413
 21
122.427
  0
LINE
  8
0
 10
44.9413
 20
122.427
 11
44.8285
 21
122.276
  0
LINE
  8
0
 10
44.8285
 20
122.276
 11
44.6976
 21
122.141
  0
LINE
  8
0
 10
44.6976
 20
122.141
 11
44.5508
 21
122.023
  0
LINE
  8
0
 10
44.5508
 20
122.023
 11
44.3904
 21
121.924
  0
LINE
  8
0
 10
44.3904
 20
121.924
 11
44.2188
 21
121.846
  0
LINE
  8
0
 10
44.2188
 20
121.846
 11
44.0389
 21
121.791
  0
LINE
  8
0
 10
44.0389
 20
121.791
 11
43.8534
 21
121.758
  0
LINE
  8
0
 10
43.8534
 20
121.758
 11
43.6652
 21
121.749
  0
LINE
  8
0
 10
43.6652
 20
121.749
 11
43.4774
 21
121.763
  0
LINE
  8
0
 10
-43.8534
 20
121.758
 11
-44.0389
 21
121.791
  0
LINE
  8
0
 10
-44.0389
 20
121.791
 11
-44.2188
 21
121.846
  0
LINE
  8
0
 10
-44.2188
 20
121.846
 11
-44.3904
 21
121.924
  0
LINE
  8
0
 10
-44.3904
 20
121.924
 11
-44.5508
 21
122.023
  0
LINE
  8
0
 10
-44.5508
 20
122.023
 11
-44.6976
 21
122.141
  0
LINE
  8
0
 10
-44.6976
 20
122.141
 11
-44.8285
 21
122.276
  0
LINE
  8
0
 10
-44.8285
 20
122.276
 11
-44.9413
 21
122.427
  0
LINE
  8
0
 10
-44.9413
 20
122.427
 11
-45.0344
 21
122.591
  0
LINE
  8
0
 10
-45.0344
 20
122.591
 11
-45.1061
 21
122.765
  0
LINE
  8
0
 10
-45.1061
 20
122.765
 11
-45.1555
 21
122.947
  0
LINE
  8
0
 10
-45.1555
 20
122.947
 11
-45.1817
 21
123.134
  0
LINE
  8
0
 10
-45.1817
 20
123.134
 11
-45.1844
 21
123.322
  0
LINE
  8
0
 10
-45.1844
 20
123.322
 11
-45.1634
 21
123.509
  0
LINE
  8
0
 10
-45.1634
 20
123.509
 11
-45.1191
 21
123.692
  0
LINE
  8
0
 10
-45.1191
 20
123.692
 11
-45.0522
 21
123.868
  0
LINE
  8
0
 10
-45.0522
 20
123.868
 11
-44.9638
 21
124.035
  0
LINE
  8
0
 10
-44.9638
 20
124.035
 11
-44.8552
 21
124.189
  0
LINE
  8
0
 10
-44.8552
 20
124.189
 11
-44.7281
 21
124.328
  0
LINE
  8
0
 10
-44.7281
 20
124.328
 11
-44.5847
 21
124.45
  0
LINE
  8
0
 10
-44.5847
 20
124.45
 11
-44.4271
 21
124.553
  0
LINE
  8
0
 10
-44.4271
 20
124.553
 11
-44.2578
 21
124.635
  0
LINE
  8
0
 10
-44.2578
 20
124.635
 11
-44.0795
 21
124.696
  0
LINE
  8
0
 10
-44.0795
 20
124.696
 11
-43.8949
 21
124.734
  0
LINE
  8
0
 10
-43.8949
 20
124.734
 11
-43.7071
 21
124.748
  0
LINE
  8
0
 10
-43.7071
 20
124.748
 11
-43.519
 21
124.739
  0
LINE
  8
0
 10
-43.519
 20
124.739
 11
-43.3335
 21
124.707
  0
LINE
  8
0
 10
-43.3335
 20
124.707
 11
-43.1535
 21
124.651
  0
LINE
  8
0
 10
-43.1535
 20
124.651
 11
-42.982
 21
124.573
  0
LINE
  8
0
 10
-42.982
 20
124.573
 11
-42.8215
 21
124.474
  0
LINE
  8
0
 10
-42.8215
 20
124.474
 11
-42.6747
 21
124.356
  0
LINE
  8
0
 10
-42.6747
 20
124.356
 11
-42.5439
 21
124.221
  0
LINE
  8
0
 10
-42.5439
 20
124.221
 11
-42.431
 21
124.07
  0
LINE
  8
0
 10
-42.431
 20
124.07
 11
-42.338
 21
123.906
  0
LINE
  8
0
 10
-42.338
 20
123.906
 11
-42.2662
 21
123.732
  0
LINE
  8
0
 10
-42.2662
 20
123.732
 11
-42.2168
 21
123.55
  0
LINE
  8
0
 10
-42.2168
 20
123.55
 11
-42.1906
 21
123.364
  0
LINE
  8
0
 10
-42.1906
 20
123.364
 11
-42.188
 21
123.175
  0
LINE
  8
0
 10
-42.188
 20
123.175
 11
-42.209
 21
122.988
  0
LINE
  8
0
 10
-42.209
 20
122.988
 11
-42.2533
 21
122.805
  0
LINE
  8
0
 10
-42.2533
 20
122.805
 11
-42.3201
 21
122.629
  0
LINE
  8
0
 10
-42.3201
 20
122.629
 11
-42.4086
 21
122.463
  0
LINE
  8
0
 10
-42.4086
 20
122.463
 11
-42.5172
 21
122.309
  0
LINE
  8
0
 10
-42.5172
 20
122.309
 11
-42.6442
 21
122.17
  0
LINE
  8
0
 10
-42.6442
 20
122.17
 11
-42.7876
 21
122.048
  0
LINE
  8
0
 10
-42.7876
 20
122.048
 11
-42.9453
 21
121.944
  0
LINE
  8
0
 10
-42.9453
 20
121.944
 11
-43.1146
 21
121.862
  0
LINE
  8
0
 10
-43.1146
 20
121.862
 11
-43.2929
 21
121.801
  0
LINE
  8
0
 10
-43.2929
 20
121.801
 11
-43.4774
 21
121.763
  0
LINE
  8
0
 10
-43.4774
 20
121.763
 11
-43.6652
 21
121.749
  0
LINE
  8
0
 10
-43.6652
 20
121.749
 11
-43.8534
 21
121.758
  0
LINE
  8
0
 10
109.5
 20
1.53879
 11
95.5361
 21
-0.923401
  0
LINE
  8
0
 10
95.5361
 20
-0.923401
 11
37.7524
 21
-1.46567
  0
LINE
  8
0
 10
37.7524
 20
-1.46567
 11
35.4582
 21
-1.46567
  0
LINE
  8
0
 10
35.4582
 20
-1.46567
 11
35.3308
 21
-0.938843
  0
LINE
  8
0
 10
35.3308
 20
-0.938843
 11
35.0855
 21
-0.293167
  0
LINE
  8
0
 10
35.0855
 20
-0.293167
 11
34.7613
 21
0.316666
  0
LINE
  8
0
 10
34.7613
 20
0.316666
 11
30.6204
 21
7.96381
  0
LINE
  8
0
 10
30.6204
 20
7.96381
 11
30.2223
 21
8.5282
  0
LINE
  8
0
 10
30.2223
 20
8.5282
 11
29.7566
 21
9.03824
  0
LINE
  8
0
 10
29.7566
 20
9.03824
 11
29.2306
 21
9.4859
  0
LINE
  8
0
 10
29.2306
 20
9.4859
 11
28.6526
 21
9.86411
  0
LINE
  8
0
 10
28.6526
 20
9.86411
 11
28.0318
 21
10.1669
  0
LINE
  8
0
 10
28.0318
 20
10.1669
 11
27.378
 21
10.3895
  0
LINE
  8
0
 10
27.378
 20
10.3895
 11
26.7014
 21
10.5284
  0
LINE
  8
0
 10
26.7014
 20
10.5284
 11
26.0127
 21
10.5813
  0
LINE
  8
0
 10
26.0127
 20
10.5813
 11
25.3229
 21
10.5476
  0
LINE
  8
0
 10
25.3229
 20
10.5476
 11
24.6427
 21
10.4277
  0
LINE
  8
0
 10
24.6427
 20
10.4277
 11
23.9828
 21
10.2234
  0
LINE
  8
0
 10
23.9828
 20
10.2234
 11
23.3539
 21
9.9381
  0
LINE
  8
0
 10
23.3539
 20
9.9381
 11
22.7656
 21
9.57617
  0
LINE
  8
0
 10
22.7656
 20
9.57617
 11
22.2273
 21
9.14339
  0
LINE
  8
0
 10
22.2273
 20
9.14339
 11
21.7475
 21
8.64653
  0
LINE
  8
0
 10
21.7475
 20
8.64653
 11
21.3337
 21
8.09348
  0
LINE
  8
0
 10
21.3337
 20
8.09348
 11
20.9926
 21
7.49292
  0
LINE
  8
0
 10
20.9926
 20
7.49292
 11
16.77
 21
-0.232681
  0
LINE
  8
0
 10
16.77
 20
-0.232681
 11
16.5068
 21
-0.871262
  0
LINE
  8
0
 10
16.5068
 20
-0.871262
 11
16.3453
 21
-1.46567
  0
LINE
  8
0
 10
16.3453
 20
-1.46567
 11
-16.3453
 21
-1.46567
  0
LINE
  8
0
 10
-16.3453
 20
-1.46567
 11
-16.5068
 21
-0.871262
  0
LINE
  8
0
 10
-16.5068
 20
-0.871262
 11
-16.77
 21
-0.232681
  0
LINE
  8
0
 10
-16.77
 20
-0.232681
 11
-20.9926
 21
7.49292
  0
LINE
  8
0
 10
-20.9926
 20
7.49292
 11
-21.3337
 21
8.09348
  0
LINE
  8
0
 10
-21.3337
 20
8.09348
 11
-21.7475
 21
8.64653
  0
LINE
  8
0
 10
-21.7475
 20
8.64653
 11
-22.2273
 21
9.14339
  0
LINE
  8
0
 10
-22.2273
 20
9.14339
 11
-22.7656
 21
9.57617
  0
LINE
  8
0
 10
-22.7656
 20
9.57617
 11
-23.3539
 21
9.9381
  0
LINE
  8
0
 10
-23.3539
 20
9.9381
 11
-23.9828
 21
10.2234
  0
LINE
  8
0
 10
-23.9828
 20
10.2234
 11
-24.6427
 21
10.4277
  0
LINE
  8
0
 10
-24.6427
 20
10.4277
 11
-25.3229
 21
10.5476
  0
LINE
  8
0
 10
-25.3229
 20
10.5476
 11
-26.0127
 21
10.5813
  0
LINE
  8
0
 10
-26.0127
 20
10.5813
 11
-26.7014
 21
10.5284
  0
LINE
  8
0
 10
-26.7014
 20
10.5284
 11
-27.378
 21
10.3895
  0
LINE
  8
0
 10
-27.378
 20
10.3895
 11
-28.0318
 21
10.1669
  0
LINE
  8
0
 10
-28.0318
 20
10.1669
 11
-28.6526
 21
9.86411
  0
LINE
  8
0
 10
-28.6526
 20
9.86411
 11
-29.2306
 21
9.4859
  0
LINE
  8
0
 10
-29.2306
 20
9.4859
 11
-29.7566
 21
9.03824
  0
LINE
  8
0
 10
-29.7566
 20
9.03824
 11
-30.2223
 21
8.5282
  0
LINE
  8
0
 10
-30.2223
 20
8.5282
 11
-30.6204
 21
7.96381
  0
LINE
  8
0
 10
-30.6204
 20
7.96381
 11
-34.7613
 21
0.316666
  0
LINE
  8
0
 10
-34.7613
 20
0.316666
 11
-35.0855
 21
-0.293167
  0
LINE
  8
0
 10
-35.0855
 20
-0.293167
 11
-35.3308
 21
-0.938843
  0
LINE
  8
0
 10
-35.3308
 20
-0.938843
 11
-35.4582
 21
-1.46567
  0
LINE
  8
0
 10
-35.4582
 20
-1.46567
 11
-37.7524
 21
-1.46567
  0
LINE
  8
0
 10
-37.7524
 20
-1.46567
 11
-109.5
 21
11.1853
  0
LINE
  8
0
 10
-109.5
 20
11.1853
 11
-109.5
 21
-8.35547
  0
LINE
  8
0
 10
-109.5
 20
-8.35547
 11
109.5
 21
-8.35547
  0
LINE
  8
0
 10
109.5
 20
-8.35547
 11
109.5
 21
1.53879
  0
LINE
  8
0
 10
-26.1031
 20
3.59122
 11
-26.2887
 21
3.62393
  0
LINE
  8
0
 10
-26.2887
 20
3.62393
 11
-26.4686
 21
3.67964
  0
LINE
  8
0
 10
-26.4686
 20
3.67964
 11
-26.6402
 21
3.75746
  0
LINE
  8
0
 10
-26.6402
 20
3.75746
 11
-26.8006
 21
3.85616
  0
LINE
  8
0
 10
-26.8006
 20
3.85616
 11
-26.9474
 21
3.9742
  0
LINE
  8
0
 10
-26.9474
 20
3.9742
 11
-27.0782
 21
4.1097
  0
LINE
  8
0
 10
-27.0782
 20
4.1097
 11
-27.1911
 21
4.26053
  0
LINE
  8
0
 10
-27.1911
 20
4.26053
 11
-27.2841
 21
4.42432
  0
LINE
  8
0
 10
-27.2841
 20
4.42432
 11
-27.3559
 21
4.59848
  0
LINE
  8
0
 10
-27.3559
 20
4.59848
 11
-27.4053
 21
4.78026
  0
LINE
  8
0
 10
-27.4053
 20
4.78026
 11
-27.4315
 21
4.9668
  0
LINE
  8
0
 10
-27.4315
 20
4.9668
 11
-27.4341
 21
5.15515
  0
LINE
  8
0
 10
-27.4341
 20
5.15515
 11
-27.4131
 21
5.34235
  0
LINE
  8
0
 10
-27.4131
 20
5.34235
 11
-27.3689
 21
5.52544
  0
LINE
  8
0
 10
-27.3689
 20
5.52544
 11
-27.302
 21
5.70154
  0
LINE
  8
0
 10
-27.302
 20
5.70154
 11
-27.2135
 21
5.86786
  0
LINE
  8
0
 10
-27.2135
 20
5.86786
 11
-27.1049
 21
6.02179
  0
LINE
  8
0
 10
-27.1049
 20
6.02179
 11
-26.9779
 21
6.16089
  0
LINE
  8
0
 10
-26.9779
 20
6.16089
 11
-26.8345
 21
6.28297
  0
LINE
  8
0
 10
-26.8345
 20
6.28297
 11
-26.6768
 21
6.38612
  0
LINE
  8
0
 10
-26.6768
 20
6.38612
 11
-26.5075
 21
6.46869
  0
LINE
  8
0
 10
-26.5075
 20
6.46869
 11
-26.3292
 21
6.5294
  0
LINE
  8
0
 10
-26.3292
 20
6.5294
 11
-26.1447
 21
6.56728
  0
LINE
  8
0
 10
-26.1447
 20
6.56728
 11
-25.9569
 21
6.58173
  0
LINE
  8
0
 10
-25.9569
 20
6.58173
 11
-25.7687
 21
6.57253
  0
LINE
  8
0
 10
-25.7687
 20
6.57253
 11
-25.5832
 21
6.53983
  0
LINE
  8
0
 10
-25.5832
 20
6.53983
 11
-25.4033
 21
6.48412
  0
LINE
  8
0
 10
-25.4033
 20
6.48412
 11
-25.2317
 21
6.4063
  0
LINE
  8
0
 10
-25.2317
 20
6.4063
 11
-25.0713
 21
6.30759
  0
LINE
  8
0
 10
-25.0713
 20
6.30759
 11
-24.9245
 21
6.18956
  0
LINE
  8
0
 10
-24.9245
 20
6.18956
 11
-24.7936
 21
6.05406
  0
LINE
  8
0
 10
-24.7936
 20
6.05406
 11
-24.6808
 21
5.90323
  0
LINE
  8
0
 10
-24.6808
 20
5.90323
 11
-24.5878
 21
5.73944
  0
LINE
  8
0
 10
-24.5878
 20
5.73944
 11
-24.516
 21
5.56528
  0
LINE
  8
0
 10
-24.516
 20
5.56528
 11
-24.4666
 21
5.3835
  0
LINE
  8
0
 10
-24.4666
 20
5.3835
 11
-24.4404
 21
5.19696
  0
LINE
  8
0
 10
-24.4404
 20
5.19696
 11
-24.4377
 21
5.00861
  0
LINE
  8
0
 10
-24.4377
 20
5.00861
 11
-24.4587
 21
4.82141
  0
LINE
  8
0
 10
-24.4587
 20
4.82141
 11
-24.503
 21
4.63832
  0
LINE
  8
0
 10
-24.503
 20
4.63832
 11
-24.5699
 21
4.46222
  0
LINE
  8
0
 10
-24.5699
 20
4.46222
 11
-24.6584
 21
4.2959
  0
LINE
  8
0
 10
-24.6584
 20
4.2959
 11
-24.7669
 21
4.14197
  0
LINE
  8
0
 10
-24.7669
 20
4.14197
 11
-24.894
 21
4.00287
  0
LINE
  8
0
 10
-24.894
 20
4.00287
 11
-25.0374
 21
3.88078
  0
LINE
  8
0
 10
-25.0374
 20
3.88078
 11
-25.195
 21
3.77763
  0
LINE
  8
0
 10
-25.195
 20
3.77763
 11
-25.3643
 21
3.69505
  0
LINE
  8
0
 10
-25.3643
 20
3.69505
 11
-25.5426
 21
3.63435
  0
LINE
  8
0
 10
-25.5426
 20
3.63435
 11
-25.7272
 21
3.59648
  0
LINE
  8
0
 10
-25.7272
 20
3.59648
 11
-25.915
 21
3.58202
  0
LINE
  8
0
 10
-25.915
 20
3.58202
 11
-26.1031
 21
3.59122
  0
LINE
  8
0
 10
25.7272
 20
3.59648
 11
25.5426
 21
3.63435
  0
LINE
  8
0
 10
25.5426
 20
3.63435
 11
25.3643
 21
3.69505
  0
LINE
  8
0
 10
25.3643
 20
3.69505
 11
25.195
 21
3.77763
  0
LINE
  8
0
 10
25.195
 20
3.77763
 11
25.0374
 21
3.88078
  0
LINE
  8
0
 10
25.0374
 20
3.88078
 11
24.894
 21
4.00287
  0
LINE
  8
0
 10
24.894
 20
4.00287
 11
24.7669
 21
4.14197
  0
LINE
  8
0
 10
24.7669
 20
4.14197
 11
24.6584
 21
4.2959
  0
LINE
  8
0
 10
24.6584
 20
4.2959
 11
24.5699
 21
4.46222
  0
LINE
  8
0
 10
24.5699
 20
4.46222
 11
24.503
 21
4.63832
  0
LINE
  8
0
 10
24.503
 20
4.63832
 11
24.4587
 21
4.82141
  0
LINE
  8
0
 10
24.4587
 20
4.82141
 11
24.4377
 21
5.00861
  0
LINE
  8
0
 10
24.4377
 20
5.00861
 11
24.4404
 21
5.19696
  0
LINE
  8
0
 10
24.4404
 20
5.19696
 11
24.4666
 21
5.3835
  0
LINE
  8
0
 10
24.4666
 20
5.3835
 11
24.516
 21
5.56528
  0
LINE
  8
0
 10
24.516
 20
5.56528
 11
24.5878
 21
5.73944
  0
LINE
  8
0
 10
24.5878
 20
5.73944
 11
24.6808
 21
5.90323
  0
LINE
  8
0
 10
24.6808
 20
5.90323
 11
24.7936
 21
6.05406
  0
LINE
  8
0
 10
24.7936
 20
6.05406
 11
24.9245
 21
6.18956
  0
LINE
  8
0
 10
24.9245
 20
6.18956
 11
25.0713
 21
6.30759
  0
LINE
  8
0
 10
25.0713
 20
6.30759
 11
25.2317
 21
6.4063
  0
LINE
  8
0
 10
25.2317
 20
6.4063
 11
25.4033
 21
6.48412
  0
LINE
  8
0
 10
25.4033
 20
6.48412
 11
25.5832
 21
6.53983
  0
LINE
  8
0
 10
25.5832
 20
6.53983
 11
25.7687
 21
6.57253
  0
LINE
  8
0
 10
25.7687
 20
6.57253
 11
25.9569
 21
6.58173
  0
LINE
  8
0
 10
25.9569
 20
6.58173
 11
26.1447
 21
6.56728
  0
LINE
  8
0
 10
26.1447
 20
6.56728
 11
26.3292
 21
6.5294
  0
LINE
  8
0
 10
26.3292
 20
6.5294
 11
26.5075
 21
6.46869
  0
LINE
  8
0
 10
26.5075
 20
6.46869
 11
26.6768
 21
6.38612
  0
LINE
  8
0
 10
26.6768
 20
6.38612
 11
26.8345
 21
6.28297
  0
LINE
  8
0
 10
26.8345
 20
6.28297
 11
26.9779
 21
6.16089
  0
LINE
  8
0
 10
26.9779
 20
6.16089
 11
27.1049
 21
6.02179
  0
LINE
  8
0
 10
27.1049
 20
6.02179
 11
27.2135
 21
5.86786
  0
LINE
  8
0
 10
27.2135
 20
5.86786
 11
27.302
 21
5.70154
  0
LINE
  8
0
 10
27.302
 20
5.70154
 11
27.3689
 21
5.52544
  0
LINE
  8
0
 10
27.3689
 20
5.52544
 11
27.4131
 21
5.34235
  0
LINE
  8
0
 10
27.4131
 20
5.34235
 11
27.4341
 21
5.15515
  0
LINE
  8
0
 10
27.4341
 20
5.15515
 11
27.4315
 21
4.9668
  0
LINE
  8
0
 10
27.4315
 20
4.9668
 11
27.4053
 21
4.78026
  0
LINE
  8
0
 10
27.4053
 20
4.78026
 11
27.3559
 21
4.59848
  0
LINE
  8
0
 10
27.3559
 20
4.59848
 11
27.2841
 21
4.42432
  0
LINE
  8
0
 10
27.2841
 20
4.42432
 11
27.1911
 21
4.26053
  0
LINE
  8
0
 10
27.1911
 20
4.26053
 11
27.0782
 21
4.1097
  0
LINE
  8
0
 10
27.0782
 20
4.1097
 11
26.9474
 21
3.9742
  0
LINE
  8
0
 10
26.9474
 20
3.9742
 11
26.8006
 21
3.85616
  0
LINE
  8
0
 10
26.8006
 20
3.85616
 11
26.6402
 21
3.75746
  0
LINE
  8
0
 10
26.6402
 20
3.75746
 11
26.4686
 21
3.67964
  0
LINE
  8
0
 10
26.4686
 20
3.67964
 11
26.2887
 21
3.62393
  0
LINE
  8
0
 10
26.2887
 20
3.62393
 11
26.1031
 21
3.59122
  0
LINE
  8
0
 10
26.1031
 20
3.59122
 11
25.915
 21
3.58202
  0
LINE
  8
0
 10
25.915
 20
3.58202
 11
25.7272
 21
3.59648
  0
ENDSEC
  0
SECTION
  2
OBJECTS
  0
DICTIONARY
  0
ENDSEC
  0
EOF
