  0
SECTION
  2
BLOCKS
  0
ENDSEC
  0
SECTION
  2
ENTITIES
  0
LINE
  8
0
 10
163.508
 20
-8.32173
 11
164.188
 21
-8.20178
  0
LINE
  8
0
 10
164.188
 20
-8.20178
 11
164.848
 21
-7.99754
  0
LINE
  8
0
 10
164.848
 20
-7.99754
 11
165.477
 21
-7.71222
  0
LINE
  8
0
 10
165.477
 20
-7.71222
 11
166.065
 21
-7.3503
  0
LINE
  8
0
 10
166.065
 20
-7.3503
 11
166.604
 21
-6.91751
  0
LINE
  8
0
 10
166.604
 20
-6.91751
 11
167.084
 21
-6.42065
  0
LINE
  8
0
 10
167.084
 20
-6.42065
 11
167.497
 21
-5.8676
  0
LINE
  8
0
 10
167.497
 20
-5.8676
 11
167.838
 21
-5.26704
  0
LINE
  8
0
 10
167.838
 20
-5.26704
 11
168.102
 21
-4.62846
  0
LINE
  8
0
 10
168.102
 20
-4.62846
 11
168.283
 21
-3.96193
  0
LINE
  8
0
 10
168.283
 20
-3.96193
 11
168.379
 21
-3.27795
  0
LINE
  8
0
 10
168.379
 20
-3.27795
 11
168.388
 21
-2.58733
  0
LINE
  8
0
 10
168.388
 20
-2.58733
 11
168.312
 21
-1.90094
  0
LINE
  8
0
 10
168.312
 20
-1.90094
 11
146.076
 21
124.204
  0
LINE
  8
0
 10
146.076
 20
124.204
 11
145.913
 21
124.875
  0
LINE
  8
0
 10
145.913
 20
124.875
 11
145.668
 21
125.521
  0
LINE
  8
0
 10
145.668
 20
125.521
 11
145.344
 21
126.131
  0
LINE
  8
0
 10
145.344
 20
126.131
 11
144.946
 21
126.695
  0
LINE
  8
0
 10
144.946
 20
126.695
 11
144.48
 21
127.205
  0
LINE
  8
0
 10
144.48
 20
127.205
 11
143.954
 21
127.653
  0
LINE
  8
0
 10
143.954
 20
127.653
 11
143.376
 21
128.031
  0
LINE
  8
0
 10
143.376
 20
128.031
 11
142.755
 21
128.334
  0
LINE
  8
0
 10
142.755
 20
128.334
 11
142.101
 21
128.556
  0
LINE
  8
0
 10
142.101
 20
128.556
 11
141.425
 21
128.695
  0
LINE
  8
0
 10
141.425
 20
128.695
 11
140.736
 21
128.748
  0
LINE
  8
0
 10
140.736
 20
128.748
 11
-140.736
 21
128.748
  0
LINE
  8
0
 10
-140.736
 20
128.748
 11
-141.425
 21
128.695
  0
LINE
  8
0
 10
-141.425
 20
128.695
 11
-142.101
 21
128.556
  0
LINE
  8
0
 10
-142.101
 20
128.556
 11
-142.755
 21
128.334
  0
LINE
  8
0
 10
-142.755
 20
128.334
 11
-143.376
 21
128.031
  0
LINE
  8
0
 10
-143.376
 20
128.031
 11
-143.954
 21
127.653
  0
LINE
  8
0
 10
-143.954
 20
127.653
 11
-144.48
 21
127.205
  0
LINE
  8
0
 10
-144.48
 20
127.205
 11
-144.946
 21
126.695
  0
LINE
  8
0
 10
-144.946
 20
126.695
 11
-145.344
 21
126.131
  0
LINE
  8
0
 10
-145.344
 20
126.131
 11
-145.668
 21
125.521
  0
LINE
  8
0
 10
-145.668
 20
125.521
 11
-145.913
 21
124.875
  0
LINE
  8
0
 10
-145.913
 20
124.875
 11
-146.076
 21
124.204
  0
LINE
  8
0
 10
-146.076
 20
124.204
 11
-168.312
 21
-1.90094
  0
LINE
  8
0
 10
-168.312
 20
-1.90094
 11
-168.388
 21
-2.58733
  0
LINE
  8
0
 10
-168.388
 20
-2.58733
 11
-168.379
 21
-3.27795
  0
LINE
  8
0
 10
-168.379
 20
-3.27795
 11
-168.283
 21
-3.96193
  0
LINE
  8
0
 10
-168.283
 20
-3.96193
 11
-168.102
 21
-4.62846
  0
LINE
  8
0
 10
-168.102
 20
-4.62846
 11
-167.838
 21
-5.26704
  0
LINE
  8
0
 10
-167.838
 20
-5.26704
 11
-167.497
 21
-5.8676
  0
LINE
  8
0
 10
-167.497
 20
-5.8676
 11
-167.084
 21
-6.42065
  0
LINE
  8
0
 10
-167.084
 20
-6.42065
 11
-166.604
 21
-6.91751
  0
LINE
  8
0
 10
-166.604
 20
-6.91751
 11
-166.065
 21
-7.3503
  0
LINE
  8
0
 10
-166.065
 20
-7.3503
 11
-165.477
 21
-7.71222
  0
LINE
  8
0
 10
-165.477
 20
-7.71222
 11
-164.848
 21
-7.99754
  0
LINE
  8
0
 10
-164.848
 20
-7.99754
 11
-164.188
 21
-8.20178
  0
LINE
  8
0
 10
-164.188
 20
-8.20178
 11
-163.508
 21
-8.32173
  0
LINE
  8
0
 10
-163.508
 20
-8.32173
 11
-162.818
 21
-8.35547
  0
LINE
  8
0
 10
-162.818
 20
-8.35547
 11
162.818
 21
-8.35547
  0
LINE
  8
0
 10
162.818
 20
-8.35547
 11
163.508
 21
-8.32173
  0
LINE
  8
0
 10
-43.8534
 20
121.758
 11
-44.0389
 21
121.791
  0
LINE
  8
0
 10
-44.0389
 20
121.791
 11
-44.2188
 21
121.846
  0
LINE
  8
0
 10
-44.2188
 20
121.846
 11
-44.3904
 21
121.924
  0
LINE
  8
0
 10
-44.3904
 20
121.924
 11
-44.5508
 21
122.023
  0
LINE
  8
0
 10
-44.5508
 20
122.023
 11
-44.6976
 21
122.141
  0
LINE
  8
0
 10
-44.6976
 20
122.141
 11
-44.8285
 21
122.276
  0
LINE
  8
0
 10
-44.8285
 20
122.276
 11
-44.9413
 21
122.427
  0
LINE
  8
0
 10
-44.9413
 20
122.427
 11
-45.0344
 21
122.591
  0
LINE
  8
0
 10
-45.0344
 20
122.591
 11
-45.1061
 21
122.765
  0
LINE
  8
0
 10
-45.1061
 20
122.765
 11
-45.1555
 21
122.947
  0
LINE
  8
0
 10
-45.1555
 20
122.947
 11
-45.1817
 21
123.134
  0
LINE
  8
0
 10
-45.1817
 20
123.134
 11
-45.1844
 21
123.322
  0
LINE
  8
0
 10
-45.1844
 20
123.322
 11
-45.1634
 21
123.509
  0
LINE
  8
0
 10
-45.1634
 20
123.509
 11
-45.1191
 21
123.692
  0
LINE
  8
0
 10
-45.1191
 20
123.692
 11
-45.0522
 21
123.868
  0
LINE
  8
0
 10
-45.0522
 20
123.868
 11
-44.9638
 21
124.035
  0
LINE
  8
0
 10
-44.9638
 20
124.035
 11
-44.8552
 21
124.189
  0
LINE
  8
0
 10
-44.8552
 20
124.189
 11
-44.7281
 21
124.328
  0
LINE
  8
0
 10
-44.7281
 20
124.328
 11
-44.5847
 21
124.45
  0
LINE
  8
0
 10
-44.5847
 20
124.45
 11
-44.4271
 21
124.553
  0
LINE
  8
0
 10
-44.4271
 20
124.553
 11
-44.2578
 21
124.635
  0
LINE
  8
0
 10
-44.2578
 20
124.635
 11
-44.0795
 21
124.696
  0
LINE
  8
0
 10
-44.0795
 20
124.696
 11
-43.8949
 21
124.734
  0
LINE
  8
0
 10
-43.8949
 20
124.734
 11
-43.7071
 21
124.748
  0
LINE
  8
0
 10
-43.7071
 20
124.748
 11
-43.519
 21
124.739
  0
LINE
  8
0
 10
-43.519
 20
124.739
 11
-43.3335
 21
124.707
  0
LINE
  8
0
 10
-43.3335
 20
124.707
 11
-43.1535
 21
124.651
  0
LINE
  8
0
 10
-43.1535
 20
124.651
 11
-42.982
 21
124.573
  0
LINE
  8
0
 10
-42.982
 20
124.573
 11
-42.8215
 21
124.474
  0
LINE
  8
0
 10
-42.8215
 20
124.474
 11
-42.6747
 21
124.356
  0
LINE
  8
0
 10
-42.6747
 20
124.356
 11
-42.5439
 21
124.221
  0
LINE
  8
0
 10
-42.5439
 20
124.221
 11
-42.431
 21
124.07
  0
LINE
  8
0
 10
-42.431
 20
124.07
 11
-42.338
 21
123.906
  0
LINE
  8
0
 10
-42.338
 20
123.906
 11
-42.2662
 21
123.732
  0
LINE
  8
0
 10
-42.2662
 20
123.732
 11
-42.2168
 21
123.55
  0
LINE
  8
0
 10
-42.2168
 20
123.55
 11
-42.1906
 21
123.364
  0
LINE
  8
0
 10
-42.1906
 20
123.364
 11
-42.188
 21
123.175
  0
LINE
  8
0
 10
-42.188
 20
123.175
 11
-42.209
 21
122.988
  0
LINE
  8
0
 10
-42.209
 20
122.988
 11
-42.2533
 21
122.805
  0
LINE
  8
0
 10
-42.2533
 20
122.805
 11
-42.3201
 21
122.629
  0
LINE
  8
0
 10
-42.3201
 20
122.629
 11
-42.4086
 21
122.463
  0
LINE
  8
0
 10
-42.4086
 20
122.463
 11
-42.5172
 21
122.309
  0
LINE
  8
0
 10
-42.5172
 20
122.309
 11
-42.6442
 21
122.17
  0
LINE
  8
0
 10
-42.6442
 20
122.17
 11
-42.7876
 21
122.048
  0
LINE
  8
0
 10
-42.7876
 20
122.048
 11
-42.9453
 21
121.944
  0
LINE
  8
0
 10
-42.9453
 20
121.944
 11
-43.1146
 21
121.862
  0
LINE
  8
0
 10
-43.1146
 20
121.862
 11
-43.2929
 21
121.801
  0
LINE
  8
0
 10
-43.2929
 20
121.801
 11
-43.4774
 21
121.763
  0
LINE
  8
0
 10
-43.4774
 20
121.763
 11
-43.6652
 21
121.749
  0
LINE
  8
0
 10
-43.6652
 20
121.749
 11
-43.8534
 21
121.758
  0
LINE
  8
0
 10
140.451
 20
121.763
 11
140.266
 21
121.801
  0
LINE
  8
0
 10
140.266
 20
121.801
 11
140.088
 21
121.862
  0
LINE
  8
0
 10
140.088
 20
121.862
 11
139.919
 21
121.944
  0
LINE
  8
0
 10
139.919
 20
121.944
 11
139.761
 21
122.048
  0
LINE
  8
0
 10
139.761
 20
122.048
 11
139.617
 21
122.17
  0
LINE
  8
0
 10
139.617
 20
122.17
 11
139.49
 21
122.309
  0
LINE
  8
0
 10
139.49
 20
122.309
 11
139.382
 21
122.463
  0
LINE
  8
0
 10
139.382
 20
122.463
 11
139.293
 21
122.629
  0
LINE
  8
0
 10
139.293
 20
122.629
 11
139.227
 21
122.805
  0
LINE
  8
0
 10
139.227
 20
122.805
 11
139.182
 21
122.988
  0
LINE
  8
0
 10
139.182
 20
122.988
 11
139.161
 21
123.175
  0
LINE
  8
0
 10
139.161
 20
123.175
 11
139.164
 21
123.364
  0
LINE
  8
0
 10
139.164
 20
123.364
 11
139.19
 21
123.55
  0
LINE
  8
0
 10
139.19
 20
123.55
 11
139.239
 21
123.732
  0
LINE
  8
0
 10
139.239
 20
123.732
 11
139.311
 21
123.906
  0
LINE
  8
0
 10
139.311
 20
123.906
 11
139.404
 21
124.07
  0
LINE
  8
0
 10
139.404
 20
124.07
 11
139.517
 21
124.221
  0
LINE
  8
0
 10
139.517
 20
124.221
 11
139.648
 21
124.356
  0
LINE
  8
0
 10
139.648
 20
124.356
 11
139.795
 21
124.474
  0
LINE
  8
0
 10
139.795
 20
124.474
 11
139.955
 21
124.573
  0
LINE
  8
0
 10
139.955
 20
124.573
 11
140.127
 21
124.651
  0
LINE
  8
0
 10
140.127
 20
124.651
 11
140.307
 21
124.707
  0
LINE
  8
0
 10
140.307
 20
124.707
 11
140.492
 21
124.739
  0
LINE
  8
0
 10
140.492
 20
124.739
 11
140.68
 21
124.748
  0
LINE
  8
0
 10
140.68
 20
124.748
 11
140.868
 21
124.734
  0
LINE
  8
0
 10
140.868
 20
124.734
 11
141.053
 21
124.696
  0
LINE
  8
0
 10
141.053
 20
124.696
 11
141.231
 21
124.635
  0
LINE
  8
0
 10
141.231
 20
124.635
 11
141.4
 21
124.553
  0
LINE
  8
0
 10
141.4
 20
124.553
 11
141.558
 21
124.45
  0
LINE
  8
0
 10
141.558
 20
124.45
 11
141.701
 21
124.328
  0
LINE
  8
0
 10
141.701
 20
124.328
 11
141.828
 21
124.189
  0
LINE
  8
0
 10
141.828
 20
124.189
 11
141.937
 21
124.035
  0
LINE
  8
0
 10
141.937
 20
124.035
 11
142.025
 21
123.868
  0
LINE
  8
0
 10
142.025
 20
123.868
 11
142.092
 21
123.692
  0
LINE
  8
0
 10
142.092
 20
123.692
 11
142.137
 21
123.509
  0
LINE
  8
0
 10
142.137
 20
123.509
 11
142.158
 21
123.322
  0
LINE
  8
0
 10
142.158
 20
123.322
 11
142.155
 21
123.134
  0
LINE
  8
0
 10
142.155
 20
123.134
 11
142.129
 21
122.947
  0
LINE
  8
0
 10
142.129
 20
122.947
 11
142.079
 21
122.765
  0
LINE
  8
0
 10
142.079
 20
122.765
 11
142.008
 21
122.591
  0
LINE
  8
0
 10
142.008
 20
122.591
 11
141.915
 21
122.427
  0
LINE
  8
0
 10
141.915
 20
122.427
 11
141.802
 21
122.276
  0
LINE
  8
0
 10
141.802
 20
122.276
 11
141.671
 21
122.141
  0
LINE
  8
0
 10
141.671
 20
122.141
 11
141.524
 21
122.023
  0
LINE
  8
0
 10
141.524
 20
122.023
 11
141.364
 21
121.924
  0
LINE
  8
0
 10
141.364
 20
121.924
 11
141.192
 21
121.846
  0
LINE
  8
0
 10
141.192
 20
121.846
 11
141.012
 21
121.791
  0
LINE
  8
0
 10
141.012
 20
121.791
 11
140.827
 21
121.758
  0
LINE
  8
0
 10
140.827
 20
121.758
 11
140.638
 21
121.749
  0
LINE
  8
0
 10
140.638
 20
121.749
 11
140.451
 21
121.763
  0
LINE
  8
0
 10
43.4774
 20
121.763
 11
43.2929
 21
121.801
  0
LINE
  8
0
 10
43.2929
 20
121.801
 11
43.1146
 21
121.862
  0
LINE
  8
0
 10
43.1146
 20
121.862
 11
42.9453
 21
121.944
  0
LINE
  8
0
 10
42.9453
 20
121.944
 11
42.7876
 21
122.048
  0
LINE
  8
0
 10
42.7876
 20
122.048
 11
42.6442
 21
122.17
  0
LINE
  8
0
 10
42.6442
 20
122.17
 11
42.5172
 21
122.309
  0
LINE
  8
0
 10
42.5172
 20
122.309
 11
42.4086
 21
122.463
  0
LINE
  8
0
 10
42.4086
 20
122.463
 11
42.3201
 21
122.629
  0
LINE
  8
0
 10
42.3201
 20
122.629
 11
42.2533
 21
122.805
  0
LINE
  8
0
 10
42.2533
 20
122.805
 11
42.209
 21
122.988
  0
LINE
  8
0
 10
42.209
 20
122.988
 11
42.188
 21
123.175
  0
LINE
  8
0
 10
42.188
 20
123.175
 11
42.1906
 21
123.364
  0
LINE
  8
0
 10
42.1906
 20
123.364
 11
42.2168
 21
123.55
  0
LINE
  8
0
 10
42.2168
 20
123.55
 11
42.2662
 21
123.732
  0
LINE
  8
0
 10
42.2662
 20
123.732
 11
42.338
 21
123.906
  0
LINE
  8
0
 10
42.338
 20
123.906
 11
42.431
 21
124.07
  0
LINE
  8
0
 10
42.431
 20
124.07
 11
42.5439
 21
124.221
  0
LINE
  8
0
 10
42.5439
 20
124.221
 11
42.6747
 21
124.356
  0
LINE
  8
0
 10
42.6747
 20
124.356
 11
42.8215
 21
124.474
  0
LINE
  8
0
 10
42.8215
 20
124.474
 11
42.982
 21
124.573
  0
LINE
  8
0
 10
42.982
 20
124.573
 11
43.1535
 21
124.651
  0
LINE
  8
0
 10
43.1535
 20
124.651
 11
43.3335
 21
124.707
  0
LINE
  8
0
 10
43.3335
 20
124.707
 11
43.519
 21
124.739
  0
LINE
  8
0
 10
43.519
 20
124.739
 11
43.7071
 21
124.748
  0
LINE
  8
0
 10
43.7071
 20
124.748
 11
43.8949
 21
124.734
  0
LINE
  8
0
 10
43.8949
 20
124.734
 11
44.0795
 21
124.696
  0
LINE
  8
0
 10
44.0795
 20
124.696
 11
44.2578
 21
124.635
  0
LINE
  8
0
 10
44.2578
 20
124.635
 11
44.4271
 21
124.553
  0
LINE
  8
0
 10
44.4271
 20
124.553
 11
44.5847
 21
124.45
  0
LINE
  8
0
 10
44.5847
 20
124.45
 11
44.7281
 21
124.328
  0
LINE
  8
0
 10
44.7281
 20
124.328
 11
44.8552
 21
124.189
  0
LINE
  8
0
 10
44.8552
 20
124.189
 11
44.9638
 21
124.035
  0
LINE
  8
0
 10
44.9638
 20
124.035
 11
45.0522
 21
123.868
  0
LINE
  8
0
 10
45.0522
 20
123.868
 11
45.1191
 21
123.692
  0
LINE
  8
0
 10
45.1191
 20
123.692
 11
45.1634
 21
123.509
  0
LINE
  8
0
 10
45.1634
 20
123.509
 11
45.1844
 21
123.322
  0
LINE
  8
0
 10
45.1844
 20
123.322
 11
45.1817
 21
123.134
  0
LINE
  8
0
 10
45.1817
 20
123.134
 11
45.1555
 21
122.947
  0
LINE
  8
0
 10
45.1555
 20
122.947
 11
45.1061
 21
122.765
  0
LINE
  8
0
 10
45.1061
 20
122.765
 11
45.0344
 21
122.591
  0
LINE
  8
0
 10
45.0344
 20
122.591
 11
44.9413
 21
122.427
  0
LINE
  8
0
 10
44.9413
 20
122.427
 11
44.8285
 21
122.276
  0
LINE
  8
0
 10
44.8285
 20
122.276
 11
44.6976
 21
122.141
  0
LINE
  8
0
 10
44.6976
 20
122.141
 11
44.5508
 21
122.023
  0
LINE
  8
0
 10
44.5508
 20
122.023
 11
44.3904
 21
121.924
  0
LINE
  8
0
 10
44.3904
 20
121.924
 11
44.2188
 21
121.846
  0
LINE
  8
0
 10
44.2188
 20
121.846
 11
44.0389
 21
121.791
  0
LINE
  8
0
 10
44.0389
 20
121.791
 11
43.8534
 21
121.758
  0
LINE
  8
0
 10
43.8534
 20
121.758
 11
43.6652
 21
121.749
  0
LINE
  8
0
 10
43.6652
 20
121.749
 11
43.4774
 21
121.763
  0
LINE
  8
0
 10
-140.827
 20
121.758
 11
-141.012
 21
121.791
  0
LINE
  8
0
 10
-141.012
 20
121.791
 11
-141.192
 21
121.846
  0
LINE
  8
0
 10
-141.192
 20
121.846
 11
-141.364
 21
121.924
  0
LINE
  8
0
 10
-141.364
 20
121.924
 11
-141.524
 21
122.023
  0
LINE
  8
0
 10
-141.524
 20
122.023
 11
-141.671
 21
122.141
  0
LINE
  8
0
 10
-141.671
 20
122.141
 11
-141.802
 21
122.276
  0
LINE
  8
0
 10
-141.802
 20
122.276
 11
-141.915
 21
122.427
  0
LINE
  8
0
 10
-141.915
 20
122.427
 11
-142.008
 21
122.591
  0
LINE
  8
0
 10
-142.008
 20
122.591
 11
-142.079
 21
122.765
  0
LINE
  8
0
 10
-142.079
 20
122.765
 11
-142.129
 21
122.947
  0
LINE
  8
0
 10
-142.129
 20
122.947
 11
-142.155
 21
123.134
  0
LINE
  8
0
 10
-142.155
 20
123.134
 11
-142.158
 21
123.322
  0
LINE
  8
0
 10
-142.158
 20
123.322
 11
-142.137
 21
123.509
  0
LINE
  8
0
 10
-142.137
 20
123.509
 11
-142.092
 21
123.692
  0
LINE
  8
0
 10
-142.092
 20
123.692
 11
-142.025
 21
123.868
  0
LINE
  8
0
 10
-142.025
 20
123.868
 11
-141.937
 21
124.035
  0
LINE
  8
0
 10
-141.937
 20
124.035
 11
-141.828
 21
124.189
  0
LINE
  8
0
 10
-141.828
 20
124.189
 11
-141.701
 21
124.328
  0
LINE
  8
0
 10
-141.701
 20
124.328
 11
-141.558
 21
124.45
  0
LINE
  8
0
 10
-141.558
 20
124.45
 11
-141.4
 21
124.553
  0
LINE
  8
0
 10
-141.4
 20
124.553
 11
-141.231
 21
124.635
  0
LINE
  8
0
 10
-141.231
 20
124.635
 11
-141.053
 21
124.696
  0
LINE
  8
0
 10
-141.053
 20
124.696
 11
-140.868
 21
124.734
  0
LINE
  8
0
 10
-140.868
 20
124.734
 11
-140.68
 21
124.748
  0
LINE
  8
0
 10
-140.68
 20
124.748
 11
-140.492
 21
124.739
  0
LINE
  8
0
 10
-140.492
 20
124.739
 11
-140.307
 21
124.707
  0
LINE
  8
0
 10
-140.307
 20
124.707
 11
-140.127
 21
124.651
  0
LINE
  8
0
 10
-140.127
 20
124.651
 11
-139.955
 21
124.573
  0
LINE
  8
0
 10
-139.955
 20
124.573
 11
-139.795
 21
124.474
  0
LINE
  8
0
 10
-139.795
 20
124.474
 11
-139.648
 21
124.356
  0
LINE
  8
0
 10
-139.648
 20
124.356
 11
-139.517
 21
124.221
  0
LINE
  8
0
 10
-139.517
 20
124.221
 11
-139.404
 21
124.07
  0
LINE
  8
0
 10
-139.404
 20
124.07
 11
-139.311
 21
123.906
  0
LINE
  8
0
 10
-139.311
 20
123.906
 11
-139.239
 21
123.732
  0
LINE
  8
0
 10
-139.239
 20
123.732
 11
-139.19
 21
123.55
  0
LINE
  8
0
 10
-139.19
 20
123.55
 11
-139.164
 21
123.364
  0
LINE
  8
0
 10
-139.164
 20
123.364
 11
-139.161
 21
123.175
  0
LINE
  8
0
 10
-139.161
 20
123.175
 11
-139.182
 21
122.988
  0
LINE
  8
0
 10
-139.182
 20
122.988
 11
-139.227
 21
122.805
  0
LINE
  8
0
 10
-139.227
 20
122.805
 11
-139.293
 21
122.629
  0
LINE
  8
0
 10
-139.293
 20
122.629
 11
-139.382
 21
122.463
  0
LINE
  8
0
 10
-139.382
 20
122.463
 11
-139.49
 21
122.309
  0
LINE
  8
0
 10
-139.49
 20
122.309
 11
-139.617
 21
122.17
  0
LINE
  8
0
 10
-139.617
 20
122.17
 11
-139.761
 21
122.048
  0
LINE
  8
0
 10
-139.761
 20
122.048
 11
-139.919
 21
121.944
  0
LINE
  8
0
 10
-139.919
 20
121.944
 11
-140.088
 21
121.862
  0
LINE
  8
0
 10
-140.088
 20
121.862
 11
-140.266
 21
121.801
  0
LINE
  8
0
 10
-140.266
 20
121.801
 11
-140.451
 21
121.763
  0
LINE
  8
0
 10
-140.451
 20
121.763
 11
-140.638
 21
121.749
  0
LINE
  8
0
 10
-140.638
 20
121.749
 11
-140.827
 21
121.758
  0
LINE
  8
0
 10
-74.6203
 20
97.4542
 11
-74.45
 21
98.4197
  0
LINE
  8
0
 10
-74.45
 20
98.4197
 11
-75.2505
 21
98.5609
  0
LINE
  8
0
 10
-75.2505
 20
98.5609
 11
-74.6427
 21
102.008
  0
LINE
  8
0
 10
-74.6427
 20
102.008
 11
-73.8422
 21
101.867
  0
LINE
  8
0
 10
-73.8422
 20
101.867
 11
-72.9725
 21
106.799
  0
LINE
  8
0
 10
-72.9725
 20
106.799
 11
-73.7729
 21
106.941
  0
LINE
  8
0
 10
-73.7729
 20
106.941
 11
-73.1651
 21
110.388
  0
LINE
  8
0
 10
-73.1651
 20
110.388
 11
-72.3647
 21
110.246
  0
LINE
  8
0
 10
-72.3647
 20
110.246
 11
-72.1944
 21
111.212
  0
LINE
  8
0
 10
-72.1944
 20
111.212
 11
-58.4367
 21
108.786
  0
LINE
  8
0
 10
-58.4367
 20
108.786
 11
-58.6069
 21
107.821
  0
LINE
  8
0
 10
-58.6069
 20
107.821
 11
-57.8065
 21
107.679
  0
LINE
  8
0
 10
-57.8065
 20
107.679
 11
-58.4142
 21
104.232
  0
LINE
  8
0
 10
-58.4142
 20
104.232
 11
-59.2147
 21
104.374
  0
LINE
  8
0
 10
-59.2147
 20
104.374
 11
-60.0845
 21
99.4408
  0
LINE
  8
0
 10
-60.0845
 20
99.4408
 11
-59.284
 21
99.2997
  0
LINE
  8
0
 10
-59.284
 20
99.2997
 11
-59.8918
 21
95.8527
  0
LINE
  8
0
 10
-59.8918
 20
95.8527
 11
-60.6923
 21
95.9939
  0
LINE
  8
0
 10
-60.6923
 20
95.9939
 11
-60.8625
 21
95.0283
  0
LINE
  8
0
 10
-60.8625
 20
95.0283
 11
-74.6203
 21
97.4542
  0
LINE
  8
0
 10
60.6923
 20
95.9939
 11
59.8918
 21
95.8527
  0
LINE
  8
0
 10
59.8918
 20
95.8527
 11
59.284
 21
99.2997
  0
LINE
  8
0
 10
59.284
 20
99.2997
 11
60.0845
 21
99.4408
  0
LINE
  8
0
 10
60.0845
 20
99.4408
 11
59.2147
 21
104.374
  0
LINE
  8
0
 10
59.2147
 20
104.374
 11
58.4142
 21
104.232
  0
LINE
  8
0
 10
58.4142
 20
104.232
 11
57.8065
 21
107.679
  0
LINE
  8
0
 10
57.8065
 20
107.679
 11
58.6069
 21
107.821
  0
LINE
  8
0
 10
58.6069
 20
107.821
 11
58.4367
 21
108.786
  0
LINE
  8
0
 10
58.4367
 20
108.786
 11
72.1944
 21
111.212
  0
LINE
  8
0
 10
72.1944
 20
111.212
 11
72.3647
 21
110.246
  0
LINE
  8
0
 10
72.3647
 20
110.246
 11
73.1651
 21
110.388
  0
LINE
  8
0
 10
73.1651
 20
110.388
 11
73.7729
 21
106.941
  0
LINE
  8
0
 10
73.7729
 20
106.941
 11
72.9725
 21
106.799
  0
LINE
  8
0
 10
72.9725
 20
106.799
 11
73.8422
 21
101.867
  0
LINE
  8
0
 10
73.8422
 20
101.867
 11
74.6427
 21
102.008
  0
LINE
  8
0
 10
74.6427
 20
102.008
 11
75.2505
 21
98.5609
  0
LINE
  8
0
 10
75.2505
 20
98.5609
 11
74.45
 21
98.4197
  0
LINE
  8
0
 10
74.45
 20
98.4197
 11
74.6203
 21
97.4542
  0
LINE
  8
0
 10
74.6203
 20
97.4542
 11
60.8625
 21
95.0283
  0
LINE
  8
0
 10
60.8625
 20
95.0283
 11
60.6923
 21
95.9939
  0
LINE
  8
0
 10
-94.0262
 20
96.8143
 11
-93.856
 21
97.7798
  0
LINE
  8
0
 10
-93.856
 20
97.7798
 11
-94.6564
 21
97.9209
  0
LINE
  8
0
 10
-94.6564
 20
97.9209
 11
-94.0486
 21
101.368
  0
LINE
  8
0
 10
-94.0486
 20
101.368
 11
-93.2482
 21
101.227
  0
LINE
  8
0
 10
-93.2482
 20
101.227
 11
-92.3784
 21
106.16
  0
LINE
  8
0
 10
-92.3784
 20
106.16
 11
-93.1788
 21
106.301
  0
LINE
  8
0
 10
-93.1788
 20
106.301
 11
-92.5711
 21
109.748
  0
LINE
  8
0
 10
-92.5711
 20
109.748
 11
-91.7706
 21
109.606
  0
LINE
  8
0
 10
-91.7706
 20
109.606
 11
-91.6004
 21
110.572
  0
LINE
  8
0
 10
-91.6004
 20
110.572
 11
-77.8426
 21
108.146
  0
LINE
  8
0
 10
-77.8426
 20
108.146
 11
-78.0128
 21
107.181
  0
LINE
  8
0
 10
-78.0128
 20
107.181
 11
-77.2124
 21
107.039
  0
LINE
  8
0
 10
-77.2124
 20
107.039
 11
-77.8202
 21
103.593
  0
LINE
  8
0
 10
-77.8202
 20
103.593
 11
-78.6206
 21
103.734
  0
LINE
  8
0
 10
-78.6206
 20
103.734
 11
-79.4904
 21
98.8009
  0
LINE
  8
0
 10
-79.4904
 20
98.8009
 11
-78.69
 21
98.6597
  0
LINE
  8
0
 10
-78.69
 20
98.6597
 11
-79.2978
 21
95.2128
  0
LINE
  8
0
 10
-79.2978
 20
95.2128
 11
-80.0982
 21
95.3539
  0
LINE
  8
0
 10
-80.0982
 20
95.3539
 11
-80.2685
 21
94.3884
  0
LINE
  8
0
 10
-80.2685
 20
94.3884
 11
-94.0262
 21
96.8143
  0
LINE
  8
0
 10
80.0982
 20
95.3539
 11
79.2978
 21
95.2128
  0
LINE
  8
0
 10
79.2978
 20
95.2128
 11
78.69
 21
98.6597
  0
LINE
  8
0
 10
78.69
 20
98.6597
 11
79.4904
 21
98.8009
  0
LINE
  8
0
 10
79.4904
 20
98.8009
 11
78.6206
 21
103.734
  0
LINE
  8
0
 10
78.6206
 20
103.734
 11
77.8202
 21
103.593
  0
LINE
  8
0
 10
77.8202
 20
103.593
 11
77.2124
 21
107.039
  0
LINE
  8
0
 10
77.2124
 20
107.039
 11
78.0128
 21
107.181
  0
LINE
  8
0
 10
78.0128
 20
107.181
 11
77.8426
 21
108.146
  0
LINE
  8
0
 10
77.8426
 20
108.146
 11
91.6004
 21
110.572
  0
LINE
  8
0
 10
91.6004
 20
110.572
 11
91.7706
 21
109.606
  0
LINE
  8
0
 10
91.7706
 20
109.606
 11
92.5711
 21
109.748
  0
LINE
  8
0
 10
92.5711
 20
109.748
 11
93.1788
 21
106.301
  0
LINE
  8
0
 10
93.1788
 20
106.301
 11
92.3784
 21
106.16
  0
LINE
  8
0
 10
92.3784
 20
106.16
 11
93.2482
 21
101.227
  0
LINE
  8
0
 10
93.2482
 20
101.227
 11
94.0486
 21
101.368
  0
LINE
  8
0
 10
94.0486
 20
101.368
 11
94.6564
 21
97.9209
  0
LINE
  8
0
 10
94.6564
 20
97.9209
 11
93.856
 21
97.7798
  0
LINE
  8
0
 10
93.856
 20
97.7798
 11
94.0262
 21
96.8143
  0
LINE
  8
0
 10
94.0262
 20
96.8143
 11
80.2685
 21
94.3884
  0
LINE
  8
0
 10
80.2685
 20
94.3884
 11
80.0982
 21
95.3539
  0
LINE
  8
0
 10
-133.012
 20
94.5496
 11
-132.842
 21
95.5152
  0
LINE
  8
0
 10
-132.842
 20
95.5152
 11
-133.642
 21
95.6563
  0
LINE
  8
0
 10
-133.642
 20
95.6563
 11
-133.034
 21
99.1032
  0
LINE
  8
0
 10
-133.034
 20
99.1032
 11
-132.234
 21
98.9621
  0
LINE
  8
0
 10
-132.234
 20
98.9621
 11
-131.364
 21
103.895
  0
LINE
  8
0
 10
-131.364
 20
103.895
 11
-132.164
 21
104.036
  0
LINE
  8
0
 10
-132.164
 20
104.036
 11
-131.557
 21
107.483
  0
LINE
  8
0
 10
-131.557
 20
107.483
 11
-130.756
 21
107.342
  0
LINE
  8
0
 10
-130.756
 20
107.342
 11
-130.586
 21
108.307
  0
LINE
  8
0
 10
-130.586
 20
108.307
 11
-116.828
 21
105.882
  0
LINE
  8
0
 10
-116.828
 20
105.882
 11
-116.998
 21
104.916
  0
LINE
  8
0
 10
-116.998
 20
104.916
 11
-116.198
 21
104.775
  0
LINE
  8
0
 10
-116.198
 20
104.775
 11
-116.806
 21
101.328
  0
LINE
  8
0
 10
-116.806
 20
101.328
 11
-117.606
 21
101.469
  0
LINE
  8
0
 10
-117.606
 20
101.469
 11
-118.476
 21
96.5362
  0
LINE
  8
0
 10
-118.476
 20
96.5362
 11
-117.676
 21
96.3951
  0
LINE
  8
0
 10
-117.676
 20
96.3951
 11
-118.283
 21
92.9482
  0
LINE
  8
0
 10
-118.283
 20
92.9482
 11
-119.084
 21
93.0893
  0
LINE
  8
0
 10
-119.084
 20
93.0893
 11
-119.254
 21
92.1237
  0
LINE
  8
0
 10
-119.254
 20
92.1237
 11
-133.012
 21
94.5496
  0
LINE
  8
0
 10
119.084
 20
93.0893
 11
118.283
 21
92.9482
  0
LINE
  8
0
 10
118.283
 20
92.9482
 11
117.676
 21
96.3951
  0
LINE
  8
0
 10
117.676
 20
96.3951
 11
118.476
 21
96.5362
  0
LINE
  8
0
 10
118.476
 20
96.5362
 11
117.606
 21
101.469
  0
LINE
  8
0
 10
117.606
 20
101.469
 11
116.806
 21
101.328
  0
LINE
  8
0
 10
116.806
 20
101.328
 11
116.198
 21
104.775
  0
LINE
  8
0
 10
116.198
 20
104.775
 11
116.998
 21
104.916
  0
LINE
  8
0
 10
116.998
 20
104.916
 11
116.828
 21
105.882
  0
LINE
  8
0
 10
116.828
 20
105.882
 11
130.586
 21
108.307
  0
LINE
  8
0
 10
130.586
 20
108.307
 11
130.756
 21
107.342
  0
LINE
  8
0
 10
130.756
 20
107.342
 11
131.557
 21
107.483
  0
LINE
  8
0
 10
131.557
 20
107.483
 11
132.164
 21
104.036
  0
LINE
  8
0
 10
132.164
 20
104.036
 11
131.364
 21
103.895
  0
LINE
  8
0
 10
131.364
 20
103.895
 11
132.234
 21
98.9621
  0
LINE
  8
0
 10
132.234
 20
98.9621
 11
133.034
 21
99.1032
  0
LINE
  8
0
 10
133.034
 20
99.1032
 11
133.642
 21
95.6563
  0
LINE
  8
0
 10
133.642
 20
95.6563
 11
132.842
 21
95.5152
  0
LINE
  8
0
 10
132.842
 20
95.5152
 11
133.012
 21
94.5496
  0
LINE
  8
0
 10
133.012
 20
94.5496
 11
119.254
 21
92.1237
  0
LINE
  8
0
 10
119.254
 20
92.1237
 11
119.084
 21
93.0893
  0
LINE
  8
0
 10
-114.3
 20
91.2503
 11
-114.13
 21
92.2159
  0
LINE
  8
0
 10
-114.13
 20
92.2159
 11
-114.931
 21
92.357
  0
LINE
  8
0
 10
-114.931
 20
92.357
 11
-114.323
 21
95.8039
  0
LINE
  8
0
 10
-114.323
 20
95.8039
 11
-113.522
 21
95.6628
  0
LINE
  8
0
 10
-113.522
 20
95.6628
 11
-112.653
 21
100.596
  0
LINE
  8
0
 10
-112.653
 20
100.596
 11
-113.453
 21
100.737
  0
LINE
  8
0
 10
-113.453
 20
100.737
 11
-112.845
 21
104.184
  0
LINE
  8
0
 10
-112.845
 20
104.184
 11
-112.045
 21
104.043
  0
LINE
  8
0
 10
-112.045
 20
104.043
 11
-111.875
 21
105.008
  0
LINE
  8
0
 10
-111.875
 20
105.008
 11
-98.1168
 21
102.582
  0
LINE
  8
0
 10
-98.1168
 20
102.582
 11
-98.287
 21
101.617
  0
LINE
  8
0
 10
-98.287
 20
101.617
 11
-97.4866
 21
101.476
  0
LINE
  8
0
 10
-97.4866
 20
101.476
 11
-98.0944
 21
98.0286
  0
LINE
  8
0
 10
-98.0944
 20
98.0286
 11
-98.8948
 21
98.1697
  0
LINE
  8
0
 10
-98.8948
 20
98.1697
 11
-99.7646
 21
93.2369
  0
LINE
  8
0
 10
-99.7646
 20
93.2369
 11
-98.9642
 21
93.0958
  0
LINE
  8
0
 10
-98.9642
 20
93.0958
 11
-99.5719
 21
89.6488
  0
LINE
  8
0
 10
-99.5719
 20
89.6488
 11
-100.372
 21
89.79
  0
LINE
  8
0
 10
-100.372
 20
89.79
 11
-100.543
 21
88.8244
  0
LINE
  8
0
 10
-100.543
 20
88.8244
 11
-114.3
 21
91.2503
  0
LINE
  8
0
 10
100.372
 20
89.79
 11
99.5719
 21
89.6488
  0
LINE
  8
0
 10
99.5719
 20
89.6488
 11
98.9642
 21
93.0958
  0
LINE
  8
0
 10
98.9642
 20
93.0958
 11
99.7646
 21
93.2369
  0
LINE
  8
0
 10
99.7646
 20
93.2369
 11
98.8948
 21
98.1697
  0
LINE
  8
0
 10
98.8948
 20
98.1697
 11
98.0944
 21
98.0286
  0
LINE
  8
0
 10
98.0944
 20
98.0286
 11
97.4866
 21
101.476
  0
LINE
  8
0
 10
97.4866
 20
101.476
 11
98.287
 21
101.617
  0
LINE
  8
0
 10
98.287
 20
101.617
 11
98.1168
 21
102.582
  0
LINE
  8
0
 10
98.1168
 20
102.582
 11
111.875
 21
105.008
  0
LINE
  8
0
 10
111.875
 20
105.008
 11
112.045
 21
104.043
  0
LINE
  8
0
 10
112.045
 20
104.043
 11
112.845
 21
104.184
  0
LINE
  8
0
 10
112.845
 20
104.184
 11
113.453
 21
100.737
  0
LINE
  8
0
 10
113.453
 20
100.737
 11
112.653
 21
100.596
  0
LINE
  8
0
 10
112.653
 20
100.596
 11
113.522
 21
95.6628
  0
LINE
  8
0
 10
113.522
 20
95.6628
 11
114.323
 21
95.8039
  0
LINE
  8
0
 10
114.323
 20
95.8039
 11
114.931
 21
92.357
  0
LINE
  8
0
 10
114.931
 20
92.357
 11
114.13
 21
92.2159
  0
LINE
  8
0
 10
114.13
 20
92.2159
 11
114.3
 21
91.2503
  0
LINE
  8
0
 10
114.3
 20
91.2503
 11
100.543
 21
88.8244
  0
LINE
  8
0
 10
100.543
 20
88.8244
 11
100.372
 21
89.79
  0
LINE
  8
0
 10
-56.7772
 20
89.2308
 11
-56.6069
 21
90.1964
  0
LINE
  8
0
 10
-56.6069
 20
90.1964
 11
-57.4074
 21
90.3375
  0
LINE
  8
0
 10
-57.4074
 20
90.3375
 11
-56.7996
 21
93.7844
  0
LINE
  8
0
 10
-56.7996
 20
93.7844
 11
-55.9991
 21
93.6433
  0
LINE
  8
0
 10
-55.9991
 20
93.6433
 11
-55.1293
 21
98.5761
  0
LINE
  8
0
 10
-55.1293
 20
98.5761
 11
-55.9298
 21
98.7172
  0
LINE
  8
0
 10
-55.9298
 20
98.7172
 11
-55.322
 21
102.164
  0
LINE
  8
0
 10
-55.322
 20
102.164
 11
-54.5216
 21
102.023
  0
LINE
  8
0
 10
-54.5216
 20
102.023
 11
-54.3513
 21
102.989
  0
LINE
  8
0
 10
-54.3513
 20
102.989
 11
-40.5936
 21
100.563
  0
LINE
  8
0
 10
-40.5936
 20
100.563
 11
-40.7638
 21
99.5972
  0
LINE
  8
0
 10
-40.7638
 20
99.5972
 11
-39.9633
 21
99.456
  0
LINE
  8
0
 10
-39.9633
 20
99.456
 11
-40.5711
 21
96.0091
  0
LINE
  8
0
 10
-40.5711
 20
96.0091
 11
-41.3716
 21
96.1502
  0
LINE
  8
0
 10
-41.3716
 20
96.1502
 11
-42.2414
 21
91.2174
  0
LINE
  8
0
 10
-42.2414
 20
91.2174
 11
-41.4409
 21
91.0763
  0
LINE
  8
0
 10
-41.4409
 20
91.0763
 11
-42.0487
 21
87.6294
  0
LINE
  8
0
 10
-42.0487
 20
87.6294
 11
-42.8492
 21
87.7705
  0
LINE
  8
0
 10
-42.8492
 20
87.7705
 11
-43.0194
 21
86.8049
  0
LINE
  8
0
 10
-43.0194
 20
86.8049
 11
-56.7772
 21
89.2308
  0
LINE
  8
0
 10
42.8492
 20
87.7705
 11
42.0487
 21
87.6294
  0
LINE
  8
0
 10
42.0487
 20
87.6294
 11
41.4409
 21
91.0763
  0
LINE
  8
0
 10
41.4409
 20
91.0763
 11
42.2414
 21
91.2174
  0
LINE
  8
0
 10
42.2414
 20
91.2174
 11
41.3716
 21
96.1502
  0
LINE
  8
0
 10
41.3716
 20
96.1502
 11
40.5711
 21
96.0091
  0
LINE
  8
0
 10
40.5711
 20
96.0091
 11
39.9633
 21
99.456
  0
LINE
  8
0
 10
39.9633
 20
99.456
 11
40.7638
 21
99.5972
  0
LINE
  8
0
 10
40.7638
 20
99.5972
 11
40.5936
 21
100.563
  0
LINE
  8
0
 10
40.5936
 20
100.563
 11
54.3513
 21
102.989
  0
LINE
  8
0
 10
54.3513
 20
102.989
 11
54.5216
 21
102.023
  0
LINE
  8
0
 10
54.5216
 20
102.023
 11
55.322
 21
102.164
  0
LINE
  8
0
 10
55.322
 20
102.164
 11
55.9298
 21
98.7172
  0
LINE
  8
0
 10
55.9298
 20
98.7172
 11
55.1293
 21
98.5761
  0
LINE
  8
0
 10
55.1293
 20
98.5761
 11
55.9991
 21
93.6433
  0
LINE
  8
0
 10
55.9991
 20
93.6433
 11
56.7996
 21
93.7844
  0
LINE
  8
0
 10
56.7996
 20
93.7844
 11
57.4074
 21
90.3375
  0
LINE
  8
0
 10
57.4074
 20
90.3375
 11
56.6069
 21
90.1964
  0
LINE
  8
0
 10
56.6069
 20
90.1964
 11
56.7772
 21
89.2308
  0
LINE
  8
0
 10
56.7772
 20
89.2308
 11
43.0194
 21
86.8049
  0
LINE
  8
0
 10
43.0194
 20
86.8049
 11
42.8492
 21
87.7705
  0
LINE
  8
0
 10
-38.7604
 20
81.9923
 11
-38.5902
 21
82.9578
  0
LINE
  8
0
 10
-38.5902
 20
82.9578
 11
-39.3906
 21
83.099
  0
LINE
  8
0
 10
-39.3906
 20
83.099
 11
-38.7828
 21
86.5459
  0
LINE
  8
0
 10
-38.7828
 20
86.5459
 11
-37.9824
 21
86.4048
  0
LINE
  8
0
 10
-37.9824
 20
86.4048
 11
-37.1126
 21
91.3376
  0
LINE
  8
0
 10
-37.1126
 20
91.3376
 11
-37.9131
 21
91.4787
  0
LINE
  8
0
 10
-37.9131
 20
91.4787
 11
-37.3053
 21
94.9256
  0
LINE
  8
0
 10
-37.3053
 20
94.9256
 11
-36.5048
 21
94.7845
  0
LINE
  8
0
 10
-36.5048
 20
94.7845
 11
-36.3346
 21
95.75
  0
LINE
  8
0
 10
-36.3346
 20
95.75
 11
-22.5768
 21
93.3242
  0
LINE
  8
0
 10
-22.5768
 20
93.3242
 11
-22.747
 21
92.3586
  0
LINE
  8
0
 10
-22.747
 20
92.3586
 11
-21.9466
 21
92.2175
  0
LINE
  8
0
 10
-21.9466
 20
92.2175
 11
-22.5544
 21
88.7706
  0
LINE
  8
0
 10
-22.5544
 20
88.7706
 11
-23.3548
 21
88.9117
  0
LINE
  8
0
 10
-23.3548
 20
88.9117
 11
-24.2246
 21
83.9789
  0
LINE
  8
0
 10
-24.2246
 20
83.9789
 11
-23.4242
 21
83.8377
  0
LINE
  8
0
 10
-23.4242
 20
83.8377
 11
-24.032
 21
80.3908
  0
LINE
  8
0
 10
-24.032
 20
80.3908
 11
-24.8324
 21
80.532
  0
LINE
  8
0
 10
-24.8324
 20
80.532
 11
-25.0027
 21
79.5664
  0
LINE
  8
0
 10
-25.0027
 20
79.5664
 11
-38.7604
 21
81.9923
  0
LINE
  8
0
 10
24.8324
 20
80.532
 11
24.032
 21
80.3908
  0
LINE
  8
0
 10
24.032
 20
80.3908
 11
23.4242
 21
83.8377
  0
LINE
  8
0
 10
23.4242
 20
83.8377
 11
24.2246
 21
83.9789
  0
LINE
  8
0
 10
24.2246
 20
83.9789
 11
23.3548
 21
88.9117
  0
LINE
  8
0
 10
23.3548
 20
88.9117
 11
22.5544
 21
88.7706
  0
LINE
  8
0
 10
22.5544
 20
88.7706
 11
21.9466
 21
92.2175
  0
LINE
  8
0
 10
21.9466
 20
92.2175
 11
22.747
 21
92.3586
  0
LINE
  8
0
 10
22.747
 20
92.3586
 11
22.5768
 21
93.3242
  0
LINE
  8
0
 10
22.5768
 20
93.3242
 11
36.3346
 21
95.75
  0
LINE
  8
0
 10
36.3346
 20
95.75
 11
36.5048
 21
94.7845
  0
LINE
  8
0
 10
36.5048
 20
94.7845
 11
37.3053
 21
94.9256
  0
LINE
  8
0
 10
37.3053
 20
94.9256
 11
37.9131
 21
91.4787
  0
LINE
  8
0
 10
37.9131
 20
91.4787
 11
37.1126
 21
91.3376
  0
LINE
  8
0
 10
37.1126
 20
91.3376
 11
37.9824
 21
86.4048
  0
LINE
  8
0
 10
37.9824
 20
86.4048
 11
38.7828
 21
86.5459
  0
LINE
  8
0
 10
38.7828
 20
86.5459
 11
39.3906
 21
83.099
  0
LINE
  8
0
 10
39.3906
 20
83.099
 11
38.5902
 21
82.9578
  0
LINE
  8
0
 10
38.5902
 20
82.9578
 11
38.7604
 21
81.9923
  0
LINE
  8
0
 10
38.7604
 20
81.9923
 11
25.0027
 21
79.5664
  0
LINE
  8
0
 10
25.0027
 20
79.5664
 11
24.8324
 21
80.532
  0
LINE
  8
0
 10
-77.9196
 20
78.7428
 11
-77.7493
 21
79.7084
  0
LINE
  8
0
 10
-77.7493
 20
79.7084
 11
-78.5498
 21
79.8495
  0
LINE
  8
0
 10
-78.5498
 20
79.8495
 11
-77.942
 21
83.2964
  0
LINE
  8
0
 10
-77.942
 20
83.2964
 11
-77.1416
 21
83.1553
  0
LINE
  8
0
 10
-77.1416
 20
83.1553
 11
-76.2718
 21
88.0881
  0
LINE
  8
0
 10
-76.2718
 20
88.0881
 11
-77.0722
 21
88.2292
  0
LINE
  8
0
 10
-77.0722
 20
88.2292
 11
-76.4644
 21
91.6762
  0
LINE
  8
0
 10
-76.4644
 20
91.6762
 11
-75.664
 21
91.535
  0
LINE
  8
0
 10
-75.664
 20
91.535
 11
-75.4937
 21
92.5006
  0
LINE
  8
0
 10
-75.4937
 20
92.5006
 11
-61.736
 21
90.0747
  0
LINE
  8
0
 10
-61.736
 20
90.0747
 11
-61.9062
 21
89.1092
  0
LINE
  8
0
 10
-61.9062
 20
89.1092
 11
-61.1058
 21
88.968
  0
LINE
  8
0
 10
-61.1058
 20
88.968
 11
-61.7136
 21
85.5211
  0
LINE
  8
0
 10
-61.7136
 20
85.5211
 11
-62.514
 21
85.6622
  0
LINE
  8
0
 10
-62.514
 20
85.6622
 11
-63.3838
 21
80.7294
  0
LINE
  8
0
 10
-63.3838
 20
80.7294
 11
-62.5833
 21
80.5883
  0
LINE
  8
0
 10
-62.5833
 20
80.5883
 11
-63.1911
 21
77.1414
  0
LINE
  8
0
 10
-63.1911
 20
77.1414
 11
-63.9916
 21
77.2825
  0
LINE
  8
0
 10
-63.9916
 20
77.2825
 11
-64.1618
 21
76.317
  0
LINE
  8
0
 10
-64.1618
 20
76.317
 11
-77.9196
 21
78.7428
  0
LINE
  8
0
 10
63.9916
 20
77.2825
 11
63.1911
 21
77.1414
  0
LINE
  8
0
 10
63.1911
 20
77.1414
 11
62.5833
 21
80.5883
  0
LINE
  8
0
 10
62.5833
 20
80.5883
 11
63.3838
 21
80.7294
  0
LINE
  8
0
 10
63.3838
 20
80.7294
 11
62.514
 21
85.6622
  0
LINE
  8
0
 10
62.514
 20
85.6622
 11
61.7136
 21
85.5211
  0
LINE
  8
0
 10
61.7136
 20
85.5211
 11
61.1058
 21
88.968
  0
LINE
  8
0
 10
61.1058
 20
88.968
 11
61.9062
 21
89.1092
  0
LINE
  8
0
 10
61.9062
 20
89.1092
 11
61.736
 21
90.0747
  0
LINE
  8
0
 10
61.736
 20
90.0747
 11
75.4937
 21
92.5006
  0
LINE
  8
0
 10
75.4937
 20
92.5006
 11
75.664
 21
91.535
  0
LINE
  8
0
 10
75.664
 20
91.535
 11
76.4644
 21
91.6762
  0
LINE
  8
0
 10
76.4644
 20
91.6762
 11
77.0722
 21
88.2292
  0
LINE
  8
0
 10
77.0722
 20
88.2292
 11
76.2718
 21
88.0881
  0
LINE
  8
0
 10
76.2718
 20
88.0881
 11
77.1416
 21
83.1553
  0
LINE
  8
0
 10
77.1416
 20
83.1553
 11
77.942
 21
83.2964
  0
LINE
  8
0
 10
77.942
 20
83.2964
 11
78.5498
 21
79.8495
  0
LINE
  8
0
 10
78.5498
 20
79.8495
 11
77.7493
 21
79.7084
  0
LINE
  8
0
 10
77.7493
 20
79.7084
 11
77.9196
 21
78.7428
  0
LINE
  8
0
 10
77.9196
 20
78.7428
 11
64.1618
 21
76.317
  0
LINE
  8
0
 10
64.1618
 20
76.317
 11
63.9916
 21
77.2825
  0
LINE
  8
0
 10
-20.0491
 20
78.693
 11
-19.8788
 21
79.6585
  0
LINE
  8
0
 10
-19.8788
 20
79.6585
 11
-20.6793
 21
79.7997
  0
LINE
  8
0
 10
-20.6793
 20
79.7997
 11
-20.0715
 21
83.2466
  0
LINE
  8
0
 10
-20.0715
 20
83.2466
 11
-19.271
 21
83.1054
  0
LINE
  8
0
 10
-19.271
 20
83.1054
 11
-18.4012
 21
88.0382
  0
LINE
  8
0
 10
-18.4012
 20
88.0382
 11
-19.2017
 21
88.1794
  0
LINE
  8
0
 10
-19.2017
 20
88.1794
 11
-18.5939
 21
91.6263
  0
LINE
  8
0
 10
-18.5939
 20
91.6263
 11
-17.7935
 21
91.4852
  0
LINE
  8
0
 10
-17.7935
 20
91.4852
 11
-17.6232
 21
92.4507
  0
LINE
  8
0
 10
-17.6232
 20
92.4507
 11
-3.86545
 21
90.0249
  0
LINE
  8
0
 10
-3.86545
 20
90.0249
 11
-4.03571
 21
89.0593
  0
LINE
  8
0
 10
-4.03571
 20
89.0593
 11
-3.23524
 21
88.9182
  0
LINE
  8
0
 10
-3.23524
 20
88.9182
 11
-3.84303
 21
85.4712
  0
LINE
  8
0
 10
-3.84303
 20
85.4712
 11
-4.64348
 21
85.6124
  0
LINE
  8
0
 10
-4.64348
 20
85.6124
 11
-5.51328
 21
80.6796
  0
LINE
  8
0
 10
-5.51328
 20
80.6796
 11
-4.71281
 21
80.5384
  0
LINE
  8
0
 10
-4.71281
 20
80.5384
 11
-5.3206
 21
77.0915
  0
LINE
  8
0
 10
-5.3206
 20
77.0915
 11
-6.12106
 21
77.2327
  0
LINE
  8
0
 10
-6.12106
 20
77.2327
 11
-6.29131
 21
76.2671
  0
LINE
  8
0
 10
-6.29131
 20
76.2671
 11
-20.0491
 21
78.693
  0
LINE
  8
0
 10
6.12106
 20
77.2327
 11
5.3206
 21
77.0915
  0
LINE
  8
0
 10
5.3206
 20
77.0915
 11
4.71281
 21
80.5384
  0
LINE
  8
0
 10
4.71281
 20
80.5384
 11
5.51328
 21
80.6796
  0
LINE
  8
0
 10
5.51328
 20
80.6796
 11
4.64348
 21
85.6124
  0
LINE
  8
0
 10
4.64348
 20
85.6124
 11
3.84303
 21
85.4712
  0
LINE
  8
0
 10
3.84303
 20
85.4712
 11
3.23524
 21
88.9182
  0
LINE
  8
0
 10
3.23524
 20
88.9182
 11
4.03571
 21
89.0593
  0
LINE
  8
0
 10
4.03571
 20
89.0593
 11
3.86545
 21
90.0249
  0
LINE
  8
0
 10
3.86545
 20
90.0249
 11
17.6232
 21
92.4507
  0
LINE
  8
0
 10
17.6232
 20
92.4507
 11
17.7935
 21
91.4852
  0
LINE
  8
0
 10
17.7935
 20
91.4852
 11
18.5939
 21
91.6263
  0
LINE
  8
0
 10
18.5939
 20
91.6263
 11
19.2017
 21
88.1794
  0
LINE
  8
0
 10
19.2017
 20
88.1794
 11
18.4012
 21
88.0382
  0
LINE
  8
0
 10
18.4012
 20
88.0382
 11
19.271
 21
83.1054
  0
LINE
  8
0
 10
19.271
 20
83.1054
 11
20.0715
 21
83.2466
  0
LINE
  8
0
 10
20.0715
 20
83.2466
 11
20.6793
 21
79.7997
  0
LINE
  8
0
 10
20.6793
 20
79.7997
 11
19.8788
 21
79.6585
  0
LINE
  8
0
 10
19.8788
 20
79.6585
 11
20.0491
 21
78.693
  0
LINE
  8
0
 10
20.0491
 20
78.693
 11
6.29131
 21
76.2671
  0
LINE
  8
0
 10
6.29131
 20
76.2671
 11
6.12106
 21
77.2327
  0
LINE
  8
0
 10
-97.3255
 20
78.1029
 11
-97.1553
 21
79.0685
  0
LINE
  8
0
 10
-97.1553
 20
79.0685
 11
-97.9557
 21
79.2096
  0
LINE
  8
0
 10
-97.9557
 20
79.2096
 11
-97.3479
 21
82.6565
  0
LINE
  8
0
 10
-97.3479
 20
82.6565
 11
-96.5475
 21
82.5154
  0
LINE
  8
0
 10
-96.5475
 20
82.5154
 11
-95.6777
 21
87.4482
  0
LINE
  8
0
 10
-95.6777
 20
87.4482
 11
-96.4782
 21
87.5893
  0
LINE
  8
0
 10
-96.4782
 20
87.5893
 11
-95.8704
 21
91.0363
  0
LINE
  8
0
 10
-95.8704
 20
91.0363
 11
-95.0699
 21
90.8951
  0
LINE
  8
0
 10
-95.0699
 20
90.8951
 11
-94.8997
 21
91.8607
  0
LINE
  8
0
 10
-94.8997
 20
91.8607
 11
-81.1419
 21
89.4348
  0
LINE
  8
0
 10
-81.1419
 20
89.4348
 11
-81.3122
 21
88.4693
  0
LINE
  8
0
 10
-81.3122
 20
88.4693
 11
-80.5117
 21
88.3281
  0
LINE
  8
0
 10
-80.5117
 20
88.3281
 11
-81.1195
 21
84.8812
  0
LINE
  8
0
 10
-81.1195
 20
84.8812
 11
-81.92
 21
85.0223
  0
LINE
  8
0
 10
-81.92
 20
85.0223
 11
-82.7897
 21
80.0895
  0
LINE
  8
0
 10
-82.7897
 20
80.0895
 11
-81.9893
 21
79.9484
  0
LINE
  8
0
 10
-81.9893
 20
79.9484
 11
-82.5971
 21
76.5014
  0
LINE
  8
0
 10
-82.5971
 20
76.5014
 11
-83.3975
 21
76.6426
  0
LINE
  8
0
 10
-83.3975
 20
76.6426
 11
-83.5678
 21
75.677
  0
LINE
  8
0
 10
-83.5678
 20
75.677
 11
-97.3255
 21
78.1029
  0
LINE
  8
0
 10
83.3975
 20
76.6426
 11
82.5971
 21
76.5014
  0
LINE
  8
0
 10
82.5971
 20
76.5014
 11
81.9893
 21
79.9484
  0
LINE
  8
0
 10
81.9893
 20
79.9484
 11
82.7897
 21
80.0895
  0
LINE
  8
0
 10
82.7897
 20
80.0895
 11
81.92
 21
85.0223
  0
LINE
  8
0
 10
81.92
 20
85.0223
 11
81.1195
 21
84.8812
  0
LINE
  8
0
 10
81.1195
 20
84.8812
 11
80.5117
 21
88.3281
  0
LINE
  8
0
 10
80.5117
 20
88.3281
 11
81.3122
 21
88.4693
  0
LINE
  8
0
 10
81.3122
 20
88.4693
 11
81.1419
 21
89.4348
  0
LINE
  8
0
 10
81.1419
 20
89.4348
 11
94.8997
 21
91.8607
  0
LINE
  8
0
 10
94.8997
 20
91.8607
 11
95.0699
 21
90.8951
  0
LINE
  8
0
 10
95.0699
 20
90.8951
 11
95.8704
 21
91.0363
  0
LINE
  8
0
 10
95.8704
 20
91.0363
 11
96.4782
 21
87.5893
  0
LINE
  8
0
 10
96.4782
 20
87.5893
 11
95.6777
 21
87.4482
  0
LINE
  8
0
 10
95.6777
 20
87.4482
 11
96.5475
 21
82.5154
  0
LINE
  8
0
 10
96.5475
 20
82.5154
 11
97.3479
 21
82.6565
  0
LINE
  8
0
 10
97.3479
 20
82.6565
 11
97.9557
 21
79.2096
  0
LINE
  8
0
 10
97.9557
 20
79.2096
 11
97.1553
 21
79.0685
  0
LINE
  8
0
 10
97.1553
 20
79.0685
 11
97.3255
 21
78.1029
  0
LINE
  8
0
 10
97.3255
 20
78.1029
 11
83.5678
 21
75.677
  0
LINE
  8
0
 10
83.5678
 20
75.677
 11
83.3975
 21
76.6426
  0
LINE
  8
0
 10
127.061
 20
75.2028
 11
126.26
 21
75.0616
  0
LINE
  8
0
 10
126.26
 20
75.0616
 11
125.653
 21
78.5086
  0
LINE
  8
0
 10
125.653
 20
78.5086
 11
126.453
 21
78.6497
  0
LINE
  8
0
 10
126.453
 20
78.6497
 11
125.583
 21
83.5825
  0
LINE
  8
0
 10
125.583
 20
83.5825
 11
124.783
 21
83.4414
  0
LINE
  8
0
 10
124.783
 20
83.4414
 11
124.175
 21
86.8883
  0
LINE
  8
0
 10
124.175
 20
86.8883
 11
124.976
 21
87.0294
  0
LINE
  8
0
 10
124.976
 20
87.0294
 11
124.805
 21
87.995
  0
LINE
  8
0
 10
124.805
 20
87.995
 11
138.563
 21
90.4209
  0
LINE
  8
0
 10
138.563
 20
90.4209
 11
138.733
 21
89.4553
  0
LINE
  8
0
 10
138.733
 20
89.4553
 11
139.534
 21
89.5965
  0
LINE
  8
0
 10
139.534
 20
89.5965
 11
140.142
 21
86.1495
  0
LINE
  8
0
 10
140.142
 20
86.1495
 11
139.341
 21
86.0084
  0
LINE
  8
0
 10
139.341
 20
86.0084
 11
140.211
 21
81.0756
  0
LINE
  8
0
 10
140.211
 20
81.0756
 11
141.011
 21
81.2167
  0
LINE
  8
0
 10
141.011
 20
81.2167
 11
141.619
 21
77.7698
  0
LINE
  8
0
 10
141.619
 20
77.7698
 11
140.819
 21
77.6286
  0
LINE
  8
0
 10
140.819
 20
77.6286
 11
140.989
 21
76.6631
  0
LINE
  8
0
 10
140.989
 20
76.6631
 11
127.231
 21
74.2372
  0
LINE
  8
0
 10
127.231
 20
74.2372
 11
127.061
 21
75.2028
  0
LINE
  8
0
 10
-140.989
 20
76.6631
 11
-140.819
 21
77.6286
  0
LINE
  8
0
 10
-140.819
 20
77.6286
 11
-141.619
 21
77.7698
  0
LINE
  8
0
 10
-141.619
 20
77.7698
 11
-141.011
 21
81.2167
  0
LINE
  8
0
 10
-141.011
 20
81.2167
 11
-140.211
 21
81.0756
  0
LINE
  8
0
 10
-140.211
 20
81.0756
 11
-139.341
 21
86.0084
  0
LINE
  8
0
 10
-139.341
 20
86.0084
 11
-140.142
 21
86.1495
  0
LINE
  8
0
 10
-140.142
 20
86.1495
 11
-139.534
 21
89.5965
  0
LINE
  8
0
 10
-139.534
 20
89.5965
 11
-138.733
 21
89.4553
  0
LINE
  8
0
 10
-138.733
 20
89.4553
 11
-138.563
 21
90.4209
  0
LINE
  8
0
 10
-138.563
 20
90.4209
 11
-124.805
 21
87.995
  0
LINE
  8
0
 10
-124.805
 20
87.995
 11
-124.976
 21
87.0294
  0
LINE
  8
0
 10
-124.976
 20
87.0294
 11
-124.175
 21
86.8883
  0
LINE
  8
0
 10
-124.175
 20
86.8883
 11
-124.783
 21
83.4414
  0
LINE
  8
0
 10
-124.783
 20
83.4414
 11
-125.583
 21
83.5825
  0
LINE
  8
0
 10
-125.583
 20
83.5825
 11
-126.453
 21
78.6497
  0
LINE
  8
0
 10
-126.453
 20
78.6497
 11
-125.653
 21
78.5086
  0
LINE
  8
0
 10
-125.653
 20
78.5086
 11
-126.26
 21
75.0616
  0
LINE
  8
0
 10
-126.26
 20
75.0616
 11
-127.061
 21
75.2028
  0
LINE
  8
0
 10
-127.061
 20
75.2028
 11
-127.231
 21
74.2372
  0
LINE
  8
0
 10
-127.231
 20
74.2372
 11
-140.989
 21
76.6631
  0
LINE
  8
0
 10
103.672
 20
71.0786
 11
102.871
 21
70.9375
  0
LINE
  8
0
 10
102.871
 20
70.9375
 11
102.263
 21
74.3844
  0
LINE
  8
0
 10
102.263
 20
74.3844
 11
103.064
 21
74.5256
  0
LINE
  8
0
 10
103.064
 20
74.5256
 11
102.194
 21
79.4584
  0
LINE
  8
0
 10
102.194
 20
79.4584
 11
101.394
 21
79.3172
  0
LINE
  8
0
 10
101.394
 20
79.3172
 11
100.786
 21
82.7642
  0
LINE
  8
0
 10
100.786
 20
82.7642
 11
101.586
 21
82.9053
  0
LINE
  8
0
 10
101.586
 20
82.9053
 11
101.416
 21
83.8708
  0
LINE
  8
0
 10
101.416
 20
83.8708
 11
115.174
 21
86.2967
  0
LINE
  8
0
 10
115.174
 20
86.2967
 11
115.344
 21
85.3312
  0
LINE
  8
0
 10
115.344
 20
85.3312
 11
116.145
 21
85.4723
  0
LINE
  8
0
 10
116.145
 20
85.4723
 11
116.752
 21
82.0254
  0
LINE
  8
0
 10
116.752
 20
82.0254
 11
115.952
 21
81.8842
  0
LINE
  8
0
 10
115.952
 20
81.8842
 11
116.822
 21
76.9514
  0
LINE
  8
0
 10
116.822
 20
76.9514
 11
117.622
 21
77.0926
  0
LINE
  8
0
 10
117.622
 20
77.0926
 11
118.23
 21
73.6456
  0
LINE
  8
0
 10
118.23
 20
73.6456
 11
117.429
 21
73.5045
  0
LINE
  8
0
 10
117.429
 20
73.5045
 11
117.6
 21
72.539
  0
LINE
  8
0
 10
117.6
 20
72.539
 11
103.842
 21
70.1131
  0
LINE
  8
0
 10
103.842
 20
70.1131
 11
103.672
 21
71.0786
  0
LINE
  8
0
 10
-117.6
 20
72.539
 11
-117.429
 21
73.5045
  0
LINE
  8
0
 10
-117.429
 20
73.5045
 11
-118.23
 21
73.6456
  0
LINE
  8
0
 10
-118.23
 20
73.6456
 11
-117.622
 21
77.0926
  0
LINE
  8
0
 10
-117.622
 20
77.0926
 11
-116.822
 21
76.9514
  0
LINE
  8
0
 10
-116.822
 20
76.9514
 11
-115.952
 21
81.8842
  0
LINE
  8
0
 10
-115.952
 20
81.8842
 11
-116.752
 21
82.0254
  0
LINE
  8
0
 10
-116.752
 20
82.0254
 11
-116.145
 21
85.4723
  0
LINE
  8
0
 10
-116.145
 20
85.4723
 11
-115.344
 21
85.3312
  0
LINE
  8
0
 10
-115.344
 20
85.3312
 11
-115.174
 21
86.2967
  0
LINE
  8
0
 10
-115.174
 20
86.2967
 11
-101.416
 21
83.8708
  0
LINE
  8
0
 10
-101.416
 20
83.8708
 11
-101.586
 21
82.9053
  0
LINE
  8
0
 10
-101.586
 20
82.9053
 11
-100.786
 21
82.7642
  0
LINE
  8
0
 10
-100.786
 20
82.7642
 11
-101.394
 21
79.3172
  0
LINE
  8
0
 10
-101.394
 20
79.3172
 11
-102.194
 21
79.4584
  0
LINE
  8
0
 10
-102.194
 20
79.4584
 11
-103.064
 21
74.5256
  0
LINE
  8
0
 10
-103.064
 20
74.5256
 11
-102.263
 21
74.3844
  0
LINE
  8
0
 10
-102.263
 20
74.3844
 11
-102.871
 21
70.9375
  0
LINE
  8
0
 10
-102.871
 20
70.9375
 11
-103.672
 21
71.0786
  0
LINE
  8
0
 10
-103.672
 20
71.0786
 11
-103.842
 21
70.1131
  0
LINE
  8
0
 10
-103.842
 20
70.1131
 11
-117.6
 21
72.539
  0
LINE
  8
0
 10
46.1485
 20
69.0592
 11
45.348
 21
68.918
  0
LINE
  8
0
 10
45.348
 20
68.918
 11
44.7402
 21
72.3649
  0
LINE
  8
0
 10
44.7402
 20
72.3649
 11
45.5407
 21
72.5061
  0
LINE
  8
0
 10
45.5407
 20
72.5061
 11
44.6709
 21
77.4389
  0
LINE
  8
0
 10
44.6709
 20
77.4389
 11
43.8705
 21
77.2977
  0
LINE
  8
0
 10
43.8705
 20
77.2977
 11
43.2627
 21
80.7447
  0
LINE
  8
0
 10
43.2627
 20
80.7447
 11
44.0631
 21
80.8858
  0
LINE
  8
0
 10
44.0631
 20
80.8858
 11
43.8929
 21
81.8514
  0
LINE
  8
0
 10
43.8929
 20
81.8514
 11
57.6506
 21
84.2772
  0
LINE
  8
0
 10
57.6506
 20
84.2772
 11
57.8209
 21
83.3117
  0
LINE
  8
0
 10
57.8209
 20
83.3117
 11
58.6213
 21
83.4528
  0
LINE
  8
0
 10
58.6213
 20
83.4528
 11
59.2291
 21
80.0059
  0
LINE
  8
0
 10
59.2291
 20
80.0059
 11
58.4287
 21
79.8647
  0
LINE
  8
0
 10
58.4287
 20
79.8647
 11
59.2984
 21
74.9319
  0
LINE
  8
0
 10
59.2984
 20
74.9319
 11
60.0989
 21
75.0731
  0
LINE
  8
0
 10
60.0989
 20
75.0731
 11
60.7067
 21
71.6262
  0
LINE
  8
0
 10
60.7067
 20
71.6262
 11
59.9062
 21
71.485
  0
LINE
  8
0
 10
59.9062
 20
71.485
 11
60.0765
 21
70.5195
  0
LINE
  8
0
 10
60.0765
 20
70.5195
 11
46.3187
 21
68.0936
  0
LINE
  8
0
 10
46.3187
 20
68.0936
 11
46.1485
 21
69.0592
  0
LINE
  8
0
 10
-60.0765
 20
70.5195
 11
-59.9062
 21
71.485
  0
LINE
  8
0
 10
-59.9062
 20
71.485
 11
-60.7067
 21
71.6262
  0
LINE
  8
0
 10
-60.7067
 20
71.6262
 11
-60.0989
 21
75.0731
  0
LINE
  8
0
 10
-60.0989
 20
75.0731
 11
-59.2984
 21
74.9319
  0
LINE
  8
0
 10
-59.2984
 20
74.9319
 11
-58.4287
 21
79.8647
  0
LINE
  8
0
 10
-58.4287
 20
79.8647
 11
-59.2291
 21
80.0059
  0
LINE
  8
0
 10
-59.2291
 20
80.0059
 11
-58.6213
 21
83.4528
  0
LINE
  8
0
 10
-58.6213
 20
83.4528
 11
-57.8209
 21
83.3117
  0
LINE
  8
0
 10
-57.8209
 20
83.3117
 11
-57.6506
 21
84.2772
  0
LINE
  8
0
 10
-57.6506
 20
84.2772
 11
-43.8929
 21
81.8514
  0
LINE
  8
0
 10
-43.8929
 20
81.8514
 11
-44.0631
 21
80.8858
  0
LINE
  8
0
 10
-44.0631
 20
80.8858
 11
-43.2627
 21
80.7447
  0
LINE
  8
0
 10
-43.2627
 20
80.7447
 11
-43.8705
 21
77.2977
  0
LINE
  8
0
 10
-43.8705
 20
77.2977
 11
-44.6709
 21
77.4389
  0
LINE
  8
0
 10
-44.6709
 20
77.4389
 11
-45.5407
 21
72.5061
  0
LINE
  8
0
 10
-45.5407
 20
72.5061
 11
-44.7402
 21
72.3649
  0
LINE
  8
0
 10
-44.7402
 20
72.3649
 11
-45.348
 21
68.918
  0
LINE
  8
0
 10
-45.348
 20
68.918
 11
-46.1485
 21
69.0592
  0
LINE
  8
0
 10
-46.1485
 20
69.0592
 11
-46.3187
 21
68.0936
  0
LINE
  8
0
 10
-46.3187
 20
68.0936
 11
-60.0765
 21
70.5195
  0
LINE
  8
0
 10
-42.0597
 20
63.2809
 11
-41.8895
 21
64.2465
  0
LINE
  8
0
 10
-41.8895
 20
64.2465
 11
-42.6899
 21
64.3876
  0
LINE
  8
0
 10
-42.6899
 20
64.3876
 11
-42.0822
 21
67.8345
  0
LINE
  8
0
 10
-42.0822
 20
67.8345
 11
-41.2817
 21
67.6934
  0
LINE
  8
0
 10
-41.2817
 20
67.6934
 11
-40.4119
 21
72.6262
  0
LINE
  8
0
 10
-40.4119
 20
72.6262
 11
-41.2124
 21
72.7673
  0
LINE
  8
0
 10
-41.2124
 20
72.7673
 11
-40.6046
 21
76.2143
  0
LINE
  8
0
 10
-40.6046
 20
76.2143
 11
-39.8041
 21
76.0731
  0
LINE
  8
0
 10
-39.8041
 20
76.0731
 11
-39.6339
 21
77.0387
  0
LINE
  8
0
 10
-39.6339
 20
77.0387
 11
-25.8761
 21
74.6128
  0
LINE
  8
0
 10
-25.8761
 20
74.6128
 11
-26.0464
 21
73.6473
  0
LINE
  8
0
 10
-26.0464
 20
73.6473
 11
-25.2459
 21
73.5061
  0
LINE
  8
0
 10
-25.2459
 20
73.5061
 11
-25.8537
 21
70.0592
  0
LINE
  8
0
 10
-25.8537
 20
70.0592
 11
-26.6541
 21
70.2003
  0
LINE
  8
0
 10
-26.6541
 20
70.2003
 11
-27.5239
 21
65.2675
  0
LINE
  8
0
 10
-27.5239
 20
65.2675
 11
-26.7235
 21
65.1264
  0
LINE
  8
0
 10
-26.7235
 20
65.1264
 11
-27.3313
 21
61.6795
  0
LINE
  8
0
 10
-27.3313
 20
61.6795
 11
-28.1317
 21
61.8206
  0
LINE
  8
0
 10
-28.1317
 20
61.8206
 11
-28.302
 21
60.8551
  0
LINE
  8
0
 10
-28.302
 20
60.8551
 11
-42.0597
 21
63.2809
  0
LINE
  8
0
 10
28.1317
 20
61.8206
 11
27.3313
 21
61.6795
  0
LINE
  8
0
 10
27.3313
 20
61.6795
 11
26.7235
 21
65.1264
  0
LINE
  8
0
 10
26.7235
 20
65.1264
 11
27.5239
 21
65.2675
  0
LINE
  8
0
 10
27.5239
 20
65.2675
 11
26.6541
 21
70.2003
  0
LINE
  8
0
 10
26.6541
 20
70.2003
 11
25.8537
 21
70.0592
  0
LINE
  8
0
 10
25.8537
 20
70.0592
 11
25.2459
 21
73.5061
  0
LINE
  8
0
 10
25.2459
 20
73.5061
 11
26.0464
 21
73.6473
  0
LINE
  8
0
 10
26.0464
 20
73.6473
 11
25.8761
 21
74.6128
  0
LINE
  8
0
 10
25.8761
 20
74.6128
 11
39.6339
 21
77.0387
  0
LINE
  8
0
 10
39.6339
 20
77.0387
 11
39.8041
 21
76.0731
  0
LINE
  8
0
 10
39.8041
 20
76.0731
 11
40.6046
 21
76.2143
  0
LINE
  8
0
 10
40.6046
 20
76.2143
 11
41.2124
 21
72.7673
  0
LINE
  8
0
 10
41.2124
 20
72.7673
 11
40.4119
 21
72.6262
  0
LINE
  8
0
 10
40.4119
 20
72.6262
 11
41.2817
 21
67.6934
  0
LINE
  8
0
 10
41.2817
 20
67.6934
 11
42.0822
 21
67.8345
  0
LINE
  8
0
 10
42.0822
 20
67.8345
 11
42.6899
 21
64.3876
  0
LINE
  8
0
 10
42.6899
 20
64.3876
 11
41.8895
 21
64.2465
  0
LINE
  8
0
 10
41.8895
 20
64.2465
 11
42.0597
 21
63.2809
  0
LINE
  8
0
 10
42.0597
 20
63.2809
 11
28.302
 21
60.8551
  0
LINE
  8
0
 10
28.302
 20
60.8551
 11
28.1317
 21
61.8206
  0
LINE
  8
0
 10
67.2909
 20
58.5712
 11
66.4904
 21
58.43
  0
LINE
  8
0
 10
66.4904
 20
58.43
 11
65.8827
 21
61.877
  0
LINE
  8
0
 10
65.8827
 20
61.877
 11
66.6831
 21
62.0181
  0
LINE
  8
0
 10
66.6831
 20
62.0181
 11
65.8133
 21
66.9509
  0
LINE
  8
0
 10
65.8133
 20
66.9509
 11
65.0129
 21
66.8098
  0
LINE
  8
0
 10
65.0129
 20
66.8098
 11
64.4051
 21
70.2567
  0
LINE
  8
0
 10
64.4051
 20
70.2567
 11
65.2055
 21
70.3978
  0
LINE
  8
0
 10
65.2055
 20
70.3978
 11
65.0353
 21
71.3634
  0
LINE
  8
0
 10
65.0353
 20
71.3634
 11
78.793
 21
73.7892
  0
LINE
  8
0
 10
78.793
 20
73.7892
 11
78.9633
 21
72.8237
  0
LINE
  8
0
 10
78.9633
 20
72.8237
 11
79.7638
 21
72.9648
  0
LINE
  8
0
 10
79.7638
 20
72.9648
 11
80.3715
 21
69.5179
  0
LINE
  8
0
 10
80.3715
 20
69.5179
 11
79.5711
 21
69.3768
  0
LINE
  8
0
 10
79.5711
 20
69.3768
 11
80.4409
 21
64.444
  0
LINE
  8
0
 10
80.4409
 20
64.444
 11
81.2413
 21
64.5851
  0
LINE
  8
0
 10
81.2413
 20
64.5851
 11
81.8491
 21
61.1382
  0
LINE
  8
0
 10
81.8491
 20
61.1382
 11
81.0487
 21
60.997
  0
LINE
  8
0
 10
81.0487
 20
60.997
 11
81.2189
 21
60.0315
  0
LINE
  8
0
 10
81.2189
 20
60.0315
 11
67.4612
 21
57.6056
  0
LINE
  8
0
 10
67.4612
 20
57.6056
 11
67.2909
 21
58.5712
  0
LINE
  8
0
 10
-81.2189
 20
60.0315
 11
-81.0487
 21
60.997
  0
LINE
  8
0
 10
-81.0487
 20
60.997
 11
-81.8491
 21
61.1382
  0
LINE
  8
0
 10
-81.8491
 20
61.1382
 11
-81.2413
 21
64.5851
  0
LINE
  8
0
 10
-81.2413
 20
64.5851
 11
-80.4409
 21
64.444
  0
LINE
  8
0
 10
-80.4409
 20
64.444
 11
-79.5711
 21
69.3768
  0
LINE
  8
0
 10
-79.5711
 20
69.3768
 11
-80.3715
 21
69.5179
  0
LINE
  8
0
 10
-80.3715
 20
69.5179
 11
-79.7638
 21
72.9648
  0
LINE
  8
0
 10
-79.7638
 20
72.9648
 11
-78.9633
 21
72.8237
  0
LINE
  8
0
 10
-78.9633
 20
72.8237
 11
-78.793
 21
73.7892
  0
LINE
  8
0
 10
-78.793
 20
73.7892
 11
-65.0353
 21
71.3634
  0
LINE
  8
0
 10
-65.0353
 20
71.3634
 11
-65.2055
 21
70.3978
  0
LINE
  8
0
 10
-65.2055
 20
70.3978
 11
-64.4051
 21
70.2567
  0
LINE
  8
0
 10
-64.4051
 20
70.2567
 11
-65.0129
 21
66.8098
  0
LINE
  8
0
 10
-65.0129
 20
66.8098
 11
-65.8133
 21
66.9509
  0
LINE
  8
0
 10
-65.8133
 20
66.9509
 11
-66.6831
 21
62.0181
  0
LINE
  8
0
 10
-66.6831
 20
62.0181
 11
-65.8827
 21
61.877
  0
LINE
  8
0
 10
-65.8827
 20
61.877
 11
-66.4904
 21
58.43
  0
LINE
  8
0
 10
-66.4904
 20
58.43
 11
-67.2909
 21
58.5712
  0
LINE
  8
0
 10
-67.2909
 20
58.5712
 11
-67.4612
 21
57.6056
  0
LINE
  8
0
 10
-67.4612
 20
57.6056
 11
-81.2189
 21
60.0315
  0
LINE
  8
0
 10
86.6968
 20
57.9312
 11
85.8964
 21
57.7901
  0
LINE
  8
0
 10
85.8964
 20
57.7901
 11
85.2886
 21
61.237
  0
LINE
  8
0
 10
85.2886
 20
61.237
 11
86.0891
 21
61.3782
  0
LINE
  8
0
 10
86.0891
 20
61.3782
 11
85.2193
 21
66.311
  0
LINE
  8
0
 10
85.2193
 20
66.311
 11
84.4188
 21
66.1698
  0
LINE
  8
0
 10
84.4188
 20
66.1698
 11
83.811
 21
69.6168
  0
LINE
  8
0
 10
83.811
 20
69.6168
 11
84.6115
 21
69.7579
  0
LINE
  8
0
 10
84.6115
 20
69.7579
 11
84.4412
 21
70.7235
  0
LINE
  8
0
 10
84.4412
 20
70.7235
 11
98.199
 21
73.1493
  0
LINE
  8
0
 10
98.199
 20
73.1493
 11
98.3692
 21
72.1838
  0
LINE
  8
0
 10
98.3692
 20
72.1838
 11
99.1697
 21
72.3249
  0
LINE
  8
0
 10
99.1697
 20
72.3249
 11
99.7775
 21
68.878
  0
LINE
  8
0
 10
99.7775
 20
68.878
 11
98.977
 21
68.7368
  0
LINE
  8
0
 10
98.977
 20
68.7368
 11
99.8468
 21
63.804
  0
LINE
  8
0
 10
99.8468
 20
63.804
 11
100.647
 21
63.9452
  0
LINE
  8
0
 10
100.647
 20
63.9452
 11
101.255
 21
60.4983
  0
LINE
  8
0
 10
101.255
 20
60.4983
 11
100.455
 21
60.3571
  0
LINE
  8
0
 10
100.455
 20
60.3571
 11
100.625
 21
59.3916
  0
LINE
  8
0
 10
100.625
 20
59.3916
 11
86.8671
 21
56.9657
  0
LINE
  8
0
 10
86.8671
 20
56.9657
 11
86.6968
 21
57.9312
  0
LINE
  8
0
 10
-100.625
 20
59.3916
 11
-100.455
 21
60.3571
  0
LINE
  8
0
 10
-100.455
 20
60.3571
 11
-101.255
 21
60.4983
  0
LINE
  8
0
 10
-101.255
 20
60.4983
 11
-100.647
 21
63.9452
  0
LINE
  8
0
 10
-100.647
 20
63.9452
 11
-99.8468
 21
63.804
  0
LINE
  8
0
 10
-99.8468
 20
63.804
 11
-98.977
 21
68.7368
  0
LINE
  8
0
 10
-98.977
 20
68.7368
 11
-99.7775
 21
68.878
  0
LINE
  8
0
 10
-99.7775
 20
68.878
 11
-99.1697
 21
72.3249
  0
LINE
  8
0
 10
-99.1697
 20
72.3249
 11
-98.3692
 21
72.1838
  0
LINE
  8
0
 10
-98.3692
 20
72.1838
 11
-98.199
 21
73.1493
  0
LINE
  8
0
 10
-98.199
 20
73.1493
 11
-84.4412
 21
70.7235
  0
LINE
  8
0
 10
-84.4412
 20
70.7235
 11
-84.6115
 21
69.7579
  0
LINE
  8
0
 10
-84.6115
 20
69.7579
 11
-83.811
 21
69.6168
  0
LINE
  8
0
 10
-83.811
 20
69.6168
 11
-84.4188
 21
66.1698
  0
LINE
  8
0
 10
-84.4188
 20
66.1698
 11
-85.2193
 21
66.311
  0
LINE
  8
0
 10
-85.2193
 20
66.311
 11
-86.0891
 21
61.3782
  0
LINE
  8
0
 10
-86.0891
 20
61.3782
 11
-85.2886
 21
61.237
  0
LINE
  8
0
 10
-85.2886
 20
61.237
 11
-85.8964
 21
57.7901
  0
LINE
  8
0
 10
-85.8964
 20
57.7901
 11
-86.6968
 21
57.9312
  0
LINE
  8
0
 10
-86.6968
 20
57.9312
 11
-86.8671
 21
56.9657
  0
LINE
  8
0
 10
-86.8671
 20
56.9657
 11
-100.625
 21
59.3916
  0
LINE
  8
0
 10
130.36
 20
56.4914
 11
129.56
 21
56.3503
  0
LINE
  8
0
 10
129.56
 20
56.3503
 11
128.952
 21
59.7972
  0
LINE
  8
0
 10
128.952
 20
59.7972
 11
129.752
 21
59.9384
  0
LINE
  8
0
 10
129.752
 20
59.9384
 11
128.883
 21
64.8712
  0
LINE
  8
0
 10
128.883
 20
64.8712
 11
128.082
 21
64.73
  0
LINE
  8
0
 10
128.082
 20
64.73
 11
127.474
 21
68.177
  0
LINE
  8
0
 10
127.474
 20
68.177
 11
128.275
 21
68.3181
  0
LINE
  8
0
 10
128.275
 20
68.3181
 11
128.105
 21
69.2836
  0
LINE
  8
0
 10
128.105
 20
69.2836
 11
141.862
 21
71.7095
  0
LINE
  8
0
 10
141.862
 20
71.7095
 11
142.033
 21
70.744
  0
LINE
  8
0
 10
142.033
 20
70.744
 11
142.833
 21
70.8851
  0
LINE
  8
0
 10
142.833
 20
70.8851
 11
143.441
 21
67.4382
  0
LINE
  8
0
 10
143.441
 20
67.4382
 11
142.64
 21
67.297
  0
LINE
  8
0
 10
142.64
 20
67.297
 11
143.51
 21
62.3642
  0
LINE
  8
0
 10
143.51
 20
62.3642
 11
144.311
 21
62.5054
  0
LINE
  8
0
 10
144.311
 20
62.5054
 11
144.918
 21
59.0584
  0
LINE
  8
0
 10
144.918
 20
59.0584
 11
144.118
 21
58.9173
  0
LINE
  8
0
 10
144.118
 20
58.9173
 11
144.288
 21
57.9518
  0
LINE
  8
0
 10
144.288
 20
57.9518
 11
130.53
 21
55.5259
  0
LINE
  8
0
 10
130.53
 20
55.5259
 11
130.36
 21
56.4914
  0
LINE
  8
0
 10
-144.288
 20
57.9518
 11
-144.118
 21
58.9173
  0
LINE
  8
0
 10
-144.118
 20
58.9173
 11
-144.918
 21
59.0584
  0
LINE
  8
0
 10
-144.918
 20
59.0584
 11
-144.311
 21
62.5054
  0
LINE
  8
0
 10
-144.311
 20
62.5054
 11
-143.51
 21
62.3642
  0
LINE
  8
0
 10
-143.51
 20
62.3642
 11
-142.64
 21
67.297
  0
LINE
  8
0
 10
-142.64
 20
67.297
 11
-143.441
 21
67.4382
  0
LINE
  8
0
 10
-143.441
 20
67.4382
 11
-142.833
 21
70.8851
  0
LINE
  8
0
 10
-142.833
 20
70.8851
 11
-142.033
 21
70.744
  0
LINE
  8
0
 10
-142.033
 20
70.744
 11
-141.862
 21
71.7095
  0
LINE
  8
0
 10
-141.862
 20
71.7095
 11
-128.105
 21
69.2836
  0
LINE
  8
0
 10
-128.105
 20
69.2836
 11
-128.275
 21
68.3181
  0
LINE
  8
0
 10
-128.275
 20
68.3181
 11
-127.474
 21
68.177
  0
LINE
  8
0
 10
-127.474
 20
68.177
 11
-128.082
 21
64.73
  0
LINE
  8
0
 10
-128.082
 20
64.73
 11
-128.883
 21
64.8712
  0
LINE
  8
0
 10
-128.883
 20
64.8712
 11
-129.752
 21
59.9384
  0
LINE
  8
0
 10
-129.752
 20
59.9384
 11
-128.952
 21
59.7972
  0
LINE
  8
0
 10
-128.952
 20
59.7972
 11
-129.56
 21
56.3503
  0
LINE
  8
0
 10
-129.56
 20
56.3503
 11
-130.36
 21
56.4914
  0
LINE
  8
0
 10
-130.36
 20
56.4914
 11
-130.53
 21
55.5259
  0
LINE
  8
0
 10
-130.53
 20
55.5259
 11
-144.288
 21
57.9518
  0
LINE
  8
0
 10
-24.1732
 20
55.3038
 11
-24.003
 21
56.2693
  0
LINE
  8
0
 10
-24.003
 20
56.2693
 11
-24.8034
 21
56.4105
  0
LINE
  8
0
 10
-24.8034
 20
56.4105
 11
-24.1956
 21
59.8574
  0
LINE
  8
0
 10
-24.1956
 20
59.8574
 11
-23.3952
 21
59.7162
  0
LINE
  8
0
 10
-23.3952
 20
59.7162
 11
-22.5254
 21
64.649
  0
LINE
  8
0
 10
-22.5254
 20
64.649
 11
-23.3259
 21
64.7902
  0
LINE
  8
0
 10
-23.3259
 20
64.7902
 11
-22.7181
 21
68.2371
  0
LINE
  8
0
 10
-22.7181
 20
68.2371
 11
-21.9176
 21
68.096
  0
LINE
  8
0
 10
-21.9176
 20
68.096
 11
-21.7474
 21
69.0615
  0
LINE
  8
0
 10
-21.7474
 20
69.0615
 11
-7.98959
 21
66.6357
  0
LINE
  8
0
 10
-7.98959
 20
66.6357
 11
-8.15984
 21
65.6701
  0
LINE
  8
0
 10
-8.15984
 20
65.6701
 11
-7.35939
 21
65.529
  0
LINE
  8
0
 10
-7.35939
 20
65.529
 11
-7.96718
 21
62.082
  0
LINE
  8
0
 10
-7.96718
 20
62.082
 11
-8.76762
 21
62.2232
  0
LINE
  8
0
 10
-8.76762
 20
62.2232
 11
-9.63742
 21
57.2904
  0
LINE
  8
0
 10
-9.63742
 20
57.2904
 11
-8.83696
 21
57.1492
  0
LINE
  8
0
 10
-8.83696
 20
57.1492
 11
-9.44475
 21
53.7023
  0
LINE
  8
0
 10
-9.44475
 20
53.7023
 11
-10.2452
 21
53.8435
  0
LINE
  8
0
 10
-10.2452
 20
53.8435
 11
-10.4155
 21
52.8779
  0
LINE
  8
0
 10
-10.4155
 20
52.8779
 11
-24.1732
 21
55.3038
  0
LINE
  8
0
 10
10.2452
 20
53.8435
 11
9.44475
 21
53.7023
  0
LINE
  8
0
 10
9.44475
 20
53.7023
 11
8.83696
 21
57.1492
  0
LINE
  8
0
 10
8.83696
 20
57.1492
 11
9.63742
 21
57.2904
  0
LINE
  8
0
 10
9.63742
 20
57.2904
 11
8.76762
 21
62.2232
  0
LINE
  8
0
 10
8.76762
 20
62.2232
 11
7.96718
 21
62.082
  0
LINE
  8
0
 10
7.96718
 20
62.082
 11
7.35939
 21
65.529
  0
LINE
  8
0
 10
7.35939
 20
65.529
 11
8.15984
 21
65.6701
  0
LINE
  8
0
 10
8.15984
 20
65.6701
 11
7.98959
 21
66.6357
  0
LINE
  8
0
 10
7.98959
 20
66.6357
 11
21.7474
 21
69.0615
  0
LINE
  8
0
 10
21.7474
 20
69.0615
 11
21.9176
 21
68.096
  0
LINE
  8
0
 10
21.9176
 20
68.096
 11
22.7181
 21
68.2371
  0
LINE
  8
0
 10
22.7181
 20
68.2371
 11
23.3259
 21
64.7902
  0
LINE
  8
0
 10
23.3259
 20
64.7902
 11
22.5254
 21
64.649
  0
LINE
  8
0
 10
22.5254
 20
64.649
 11
23.3952
 21
59.7162
  0
LINE
  8
0
 10
23.3952
 20
59.7162
 11
24.1956
 21
59.8574
  0
LINE
  8
0
 10
24.1956
 20
59.8574
 11
24.8034
 21
56.4105
  0
LINE
  8
0
 10
24.8034
 20
56.4105
 11
24.003
 21
56.2693
  0
LINE
  8
0
 10
24.003
 20
56.2693
 11
24.1732
 21
55.3038
  0
LINE
  8
0
 10
24.1732
 20
55.3038
 11
10.4155
 21
52.8779
  0
LINE
  8
0
 10
10.4155
 20
52.8779
 11
10.2452
 21
53.8435
  0
LINE
  8
0
 10
106.971
 20
52.3673
 11
106.171
 21
52.2262
  0
LINE
  8
0
 10
106.171
 20
52.2262
 11
105.563
 21
55.6731
  0
LINE
  8
0
 10
105.563
 20
55.6731
 11
106.363
 21
55.8142
  0
LINE
  8
0
 10
106.363
 20
55.8142
 11
105.493
 21
60.747
  0
LINE
  8
0
 10
105.493
 20
60.747
 11
104.693
 21
60.6059
  0
LINE
  8
0
 10
104.693
 20
60.6059
 11
104.085
 21
64.0528
  0
LINE
  8
0
 10
104.085
 20
64.0528
 11
104.886
 21
64.194
  0
LINE
  8
0
 10
104.886
 20
64.194
 11
104.715
 21
65.1595
  0
LINE
  8
0
 10
104.715
 20
65.1595
 11
118.473
 21
67.5854
  0
LINE
  8
0
 10
118.473
 20
67.5854
 11
118.643
 21
66.6198
  0
LINE
  8
0
 10
118.643
 20
66.6198
 11
119.444
 21
66.761
  0
LINE
  8
0
 10
119.444
 20
66.761
 11
120.052
 21
63.314
  0
LINE
  8
0
 10
120.052
 20
63.314
 11
119.251
 21
63.1729
  0
LINE
  8
0
 10
119.251
 20
63.1729
 11
120.121
 21
58.2401
  0
LINE
  8
0
 10
120.121
 20
58.2401
 11
120.921
 21
58.3812
  0
LINE
  8
0
 10
120.921
 20
58.3812
 11
121.529
 21
54.9343
  0
LINE
  8
0
 10
121.529
 20
54.9343
 11
120.729
 21
54.7932
  0
LINE
  8
0
 10
120.729
 20
54.7932
 11
120.899
 21
53.8276
  0
LINE
  8
0
 10
120.899
 20
53.8276
 11
107.141
 21
51.4017
  0
LINE
  8
0
 10
107.141
 20
51.4017
 11
106.971
 21
52.3673
  0
LINE
  8
0
 10
-120.899
 20
53.8276
 11
-120.729
 21
54.7932
  0
LINE
  8
0
 10
-120.729
 20
54.7932
 11
-121.529
 21
54.9343
  0
LINE
  8
0
 10
-121.529
 20
54.9343
 11
-120.921
 21
58.3812
  0
LINE
  8
0
 10
-120.921
 20
58.3812
 11
-120.121
 21
58.2401
  0
LINE
  8
0
 10
-120.121
 20
58.2401
 11
-119.251
 21
63.1729
  0
LINE
  8
0
 10
-119.251
 20
63.1729
 11
-120.052
 21
63.314
  0
LINE
  8
0
 10
-120.052
 20
63.314
 11
-119.444
 21
66.761
  0
LINE
  8
0
 10
-119.444
 20
66.761
 11
-118.643
 21
66.6198
  0
LINE
  8
0
 10
-118.643
 20
66.6198
 11
-118.473
 21
67.5854
  0
LINE
  8
0
 10
-118.473
 20
67.5854
 11
-104.715
 21
65.1595
  0
LINE
  8
0
 10
-104.715
 20
65.1595
 11
-104.886
 21
64.194
  0
LINE
  8
0
 10
-104.886
 20
64.194
 11
-104.085
 21
64.0528
  0
LINE
  8
0
 10
-104.085
 20
64.0528
 11
-104.693
 21
60.6059
  0
LINE
  8
0
 10
-104.693
 20
60.6059
 11
-105.493
 21
60.747
  0
LINE
  8
0
 10
-105.493
 20
60.747
 11
-106.363
 21
55.8142
  0
LINE
  8
0
 10
-106.363
 20
55.8142
 11
-105.563
 21
55.6731
  0
LINE
  8
0
 10
-105.563
 20
55.6731
 11
-106.171
 21
52.2262
  0
LINE
  8
0
 10
-106.171
 20
52.2262
 11
-106.971
 21
52.3673
  0
LINE
  8
0
 10
-106.971
 20
52.3673
 11
-107.141
 21
51.4017
  0
LINE
  8
0
 10
-107.141
 20
51.4017
 11
-120.899
 21
53.8276
  0
LINE
  8
0
 10
-63.3758
 20
51.8081
 11
-63.2056
 21
52.7737
  0
LINE
  8
0
 10
-63.2056
 20
52.7737
 11
-64.006
 21
52.9148
  0
LINE
  8
0
 10
-64.006
 20
52.9148
 11
-63.3982
 21
56.3617
  0
LINE
  8
0
 10
-63.3982
 20
56.3617
 11
-62.5978
 21
56.2206
  0
LINE
  8
0
 10
-62.5978
 20
56.2206
 11
-61.728
 21
61.1534
  0
LINE
  8
0
 10
-61.728
 20
61.1534
 11
-62.5284
 21
61.2945
  0
LINE
  8
0
 10
-62.5284
 20
61.2945
 11
-61.9207
 21
64.7415
  0
LINE
  8
0
 10
-61.9207
 20
64.7415
 11
-61.1202
 21
64.6003
  0
LINE
  8
0
 10
-61.1202
 20
64.6003
 11
-60.9499
 21
65.5659
  0
LINE
  8
0
 10
-60.9499
 20
65.5659
 11
-47.1922
 21
63.14
  0
LINE
  8
0
 10
-47.1922
 20
63.14
 11
-47.3624
 21
62.1745
  0
LINE
  8
0
 10
-47.3624
 20
62.1745
 11
-46.562
 21
62.0333
  0
LINE
  8
0
 10
-46.562
 20
62.0333
 11
-47.1698
 21
58.5864
  0
LINE
  8
0
 10
-47.1698
 20
58.5864
 11
-47.9702
 21
58.7275
  0
LINE
  8
0
 10
-47.9702
 20
58.7275
 11
-48.84
 21
53.7947
  0
LINE
  8
0
 10
-48.84
 20
53.7947
 11
-48.0396
 21
53.6536
  0
LINE
  8
0
 10
-48.0396
 20
53.6536
 11
-48.6473
 21
50.2067
  0
LINE
  8
0
 10
-48.6473
 20
50.2067
 11
-49.4478
 21
50.3478
  0
LINE
  8
0
 10
-49.4478
 20
50.3478
 11
-49.618
 21
49.3823
  0
LINE
  8
0
 10
-49.618
 20
49.3823
 11
-63.3758
 21
51.8081
  0
LINE
  8
0
 10
49.4478
 20
50.3478
 11
48.6473
 21
50.2067
  0
LINE
  8
0
 10
48.6473
 20
50.2067
 11
48.0396
 21
53.6536
  0
LINE
  8
0
 10
48.0396
 20
53.6536
 11
48.84
 21
53.7947
  0
LINE
  8
0
 10
48.84
 20
53.7947
 11
47.9702
 21
58.7275
  0
LINE
  8
0
 10
47.9702
 20
58.7275
 11
47.1698
 21
58.5864
  0
LINE
  8
0
 10
47.1698
 20
58.5864
 11
46.562
 21
62.0333
  0
LINE
  8
0
 10
46.562
 20
62.0333
 11
47.3624
 21
62.1745
  0
LINE
  8
0
 10
47.3624
 20
62.1745
 11
47.1922
 21
63.14
  0
LINE
  8
0
 10
47.1922
 20
63.14
 11
60.9499
 21
65.5659
  0
LINE
  8
0
 10
60.9499
 20
65.5659
 11
61.1202
 21
64.6003
  0
LINE
  8
0
 10
61.1202
 20
64.6003
 11
61.9207
 21
64.7415
  0
LINE
  8
0
 10
61.9207
 20
64.7415
 11
62.5284
 21
61.2945
  0
LINE
  8
0
 10
62.5284
 20
61.2945
 11
61.728
 21
61.1534
  0
LINE
  8
0
 10
61.728
 20
61.1534
 11
62.5978
 21
56.2206
  0
LINE
  8
0
 10
62.5978
 20
56.2206
 11
63.3982
 21
56.3617
  0
LINE
  8
0
 10
63.3982
 20
56.3617
 11
64.006
 21
52.9148
  0
LINE
  8
0
 10
64.006
 20
52.9148
 11
63.2056
 21
52.7737
  0
LINE
  8
0
 10
63.2056
 20
52.7737
 11
63.3758
 21
51.8081
  0
LINE
  8
0
 10
63.3758
 20
51.8081
 11
49.618
 21
49.3823
  0
LINE
  8
0
 10
49.618
 20
49.3823
 11
49.4478
 21
50.3478
  0
LINE
  8
0
 10
-45.3591
 20
44.5696
 11
-45.1888
 21
45.5351
  0
LINE
  8
0
 10
-45.1888
 20
45.5351
 11
-45.9893
 21
45.6763
  0
LINE
  8
0
 10
-45.9893
 20
45.6763
 11
-45.3815
 21
49.1232
  0
LINE
  8
0
 10
-45.3815
 20
49.1232
 11
-44.581
 21
48.9821
  0
LINE
  8
0
 10
-44.581
 20
48.9821
 11
-43.7112
 21
53.9149
  0
LINE
  8
0
 10
-43.7112
 20
53.9149
 11
-44.5117
 21
54.056
  0
LINE
  8
0
 10
-44.5117
 20
54.056
 11
-43.9039
 21
57.5029
  0
LINE
  8
0
 10
-43.9039
 20
57.5029
 11
-43.1034
 21
57.3618
  0
LINE
  8
0
 10
-43.1034
 20
57.3618
 11
-42.9332
 21
58.3273
  0
LINE
  8
0
 10
-42.9332
 20
58.3273
 11
-29.1754
 21
55.9015
  0
LINE
  8
0
 10
-29.1754
 20
55.9015
 11
-29.3457
 21
54.9359
  0
LINE
  8
0
 10
-29.3457
 20
54.9359
 11
-28.5452
 21
54.7948
  0
LINE
  8
0
 10
-28.5452
 20
54.7948
 11
-29.153
 21
51.3479
  0
LINE
  8
0
 10
-29.153
 20
51.3479
 11
-29.9535
 21
51.489
  0
LINE
  8
0
 10
-29.9535
 20
51.489
 11
-30.8233
 21
46.5562
  0
LINE
  8
0
 10
-30.8233
 20
46.5562
 11
-30.0228
 21
46.4151
  0
LINE
  8
0
 10
-30.0228
 20
46.4151
 11
-30.6306
 21
42.9681
  0
LINE
  8
0
 10
-30.6306
 20
42.9681
 11
-31.431
 21
43.1093
  0
LINE
  8
0
 10
-31.431
 20
43.1093
 11
-31.6013
 21
42.1437
  0
LINE
  8
0
 10
-31.6013
 20
42.1437
 11
-45.3591
 21
44.5696
  0
LINE
  8
0
 10
31.431
 20
43.1093
 11
30.6306
 21
42.9681
  0
LINE
  8
0
 10
30.6306
 20
42.9681
 11
30.0228
 21
46.4151
  0
LINE
  8
0
 10
30.0228
 20
46.4151
 11
30.8233
 21
46.5562
  0
LINE
  8
0
 10
30.8233
 20
46.5562
 11
29.9535
 21
51.489
  0
LINE
  8
0
 10
29.9535
 20
51.489
 11
29.153
 21
51.3479
  0
LINE
  8
0
 10
29.153
 20
51.3479
 11
28.5452
 21
54.7948
  0
LINE
  8
0
 10
28.5452
 20
54.7948
 11
29.3457
 21
54.9359
  0
LINE
  8
0
 10
29.3457
 20
54.9359
 11
29.1754
 21
55.9015
  0
LINE
  8
0
 10
29.1754
 20
55.9015
 11
42.9332
 21
58.3273
  0
LINE
  8
0
 10
42.9332
 20
58.3273
 11
43.1034
 21
57.3618
  0
LINE
  8
0
 10
43.1034
 20
57.3618
 11
43.9039
 21
57.5029
  0
LINE
  8
0
 10
43.9039
 20
57.5029
 11
44.5117
 21
54.056
  0
LINE
  8
0
 10
44.5117
 20
54.056
 11
43.7112
 21
53.9149
  0
LINE
  8
0
 10
43.7112
 20
53.9149
 11
44.581
 21
48.9821
  0
LINE
  8
0
 10
44.581
 20
48.9821
 11
45.3815
 21
49.1232
  0
LINE
  8
0
 10
45.3815
 20
49.1232
 11
45.9893
 21
45.6763
  0
LINE
  8
0
 10
45.9893
 20
45.6763
 11
45.1888
 21
45.5351
  0
LINE
  8
0
 10
45.1888
 20
45.5351
 11
45.3591
 21
44.5696
  0
LINE
  8
0
 10
45.3591
 20
44.5696
 11
31.6013
 21
42.1437
  0
LINE
  8
0
 10
31.6013
 20
42.1437
 11
31.431
 21
43.1093
  0
LINE
  8
0
 10
-84.5182
 20
41.3201
 11
-84.348
 21
42.2857
  0
LINE
  8
0
 10
-84.348
 20
42.2857
 11
-85.1484
 21
42.4268
  0
LINE
  8
0
 10
-85.1484
 20
42.4268
 11
-84.5406
 21
45.8737
  0
LINE
  8
0
 10
-84.5406
 20
45.8737
 11
-83.7402
 21
45.7326
  0
LINE
  8
0
 10
-83.7402
 20
45.7326
 11
-82.8704
 21
50.6654
  0
LINE
  8
0
 10
-82.8704
 20
50.6654
 11
-83.6709
 21
50.8065
  0
LINE
  8
0
 10
-83.6709
 20
50.8065
 11
-83.0631
 21
54.2535
  0
LINE
  8
0
 10
-83.0631
 20
54.2535
 11
-82.2626
 21
54.1123
  0
LINE
  8
0
 10
-82.2626
 20
54.1123
 11
-82.0924
 21
55.0779
  0
LINE
  8
0
 10
-82.0924
 20
55.0779
 11
-68.3346
 21
52.652
  0
LINE
  8
0
 10
-68.3346
 20
52.652
 11
-68.5049
 21
51.6865
  0
LINE
  8
0
 10
-68.5049
 20
51.6865
 11
-67.7044
 21
51.5453
  0
LINE
  8
0
 10
-67.7044
 20
51.5453
 11
-68.3122
 21
48.0984
  0
LINE
  8
0
 10
-68.3122
 20
48.0984
 11
-69.1126
 21
48.2395
  0
LINE
  8
0
 10
-69.1126
 20
48.2395
 11
-69.9824
 21
43.3067
  0
LINE
  8
0
 10
-69.9824
 20
43.3067
 11
-69.182
 21
43.1656
  0
LINE
  8
0
 10
-69.182
 20
43.1656
 11
-69.7898
 21
39.7187
  0
LINE
  8
0
 10
-69.7898
 20
39.7187
 11
-70.5902
 21
39.8598
  0
LINE
  8
0
 10
-70.5902
 20
39.8598
 11
-70.7605
 21
38.8943
  0
LINE
  8
0
 10
-70.7605
 20
38.8943
 11
-84.5182
 21
41.3201
  0
LINE
  8
0
 10
70.5902
 20
39.8598
 11
69.7898
 21
39.7187
  0
LINE
  8
0
 10
69.7898
 20
39.7187
 11
69.182
 21
43.1656
  0
LINE
  8
0
 10
69.182
 20
43.1656
 11
69.9824
 21
43.3067
  0
LINE
  8
0
 10
69.9824
 20
43.3067
 11
69.1126
 21
48.2395
  0
LINE
  8
0
 10
69.1126
 20
48.2395
 11
68.3122
 21
48.0984
  0
LINE
  8
0
 10
68.3122
 20
48.0984
 11
67.7044
 21
51.5453
  0
LINE
  8
0
 10
67.7044
 20
51.5453
 11
68.5049
 21
51.6865
  0
LINE
  8
0
 10
68.5049
 20
51.6865
 11
68.3346
 21
52.652
  0
LINE
  8
0
 10
68.3346
 20
52.652
 11
82.0924
 21
55.0779
  0
LINE
  8
0
 10
82.0924
 20
55.0779
 11
82.2626
 21
54.1123
  0
LINE
  8
0
 10
82.2626
 20
54.1123
 11
83.0631
 21
54.2535
  0
LINE
  8
0
 10
83.0631
 20
54.2535
 11
83.6709
 21
50.8065
  0
LINE
  8
0
 10
83.6709
 20
50.8065
 11
82.8704
 21
50.6654
  0
LINE
  8
0
 10
82.8704
 20
50.6654
 11
83.7402
 21
45.7326
  0
LINE
  8
0
 10
83.7402
 20
45.7326
 11
84.5406
 21
45.8737
  0
LINE
  8
0
 10
84.5406
 20
45.8737
 11
85.1484
 21
42.4268
  0
LINE
  8
0
 10
85.1484
 20
42.4268
 11
84.348
 21
42.2857
  0
LINE
  8
0
 10
84.348
 20
42.2857
 11
84.5182
 21
41.3201
  0
LINE
  8
0
 10
84.5182
 20
41.3201
 11
70.7605
 21
38.8943
  0
LINE
  8
0
 10
70.7605
 20
38.8943
 11
70.5902
 21
39.8598
  0
LINE
  8
0
 10
89.9962
 20
39.2199
 11
89.1957
 21
39.0788
  0
LINE
  8
0
 10
89.1957
 20
39.0788
 11
88.5879
 21
42.5257
  0
LINE
  8
0
 10
88.5879
 20
42.5257
 11
89.3884
 21
42.6668
  0
LINE
  8
0
 10
89.3884
 20
42.6668
 11
88.5186
 21
47.5996
  0
LINE
  8
0
 10
88.5186
 20
47.5996
 11
87.7181
 21
47.4585
  0
LINE
  8
0
 10
87.7181
 20
47.4585
 11
87.1104
 21
50.9054
  0
LINE
  8
0
 10
87.1104
 20
50.9054
 11
87.9108
 21
51.0466
  0
LINE
  8
0
 10
87.9108
 20
51.0466
 11
87.7405
 21
52.0121
  0
LINE
  8
0
 10
87.7405
 20
52.0121
 11
101.498
 21
54.438
  0
LINE
  8
0
 10
101.498
 20
54.438
 11
101.669
 21
53.4724
  0
LINE
  8
0
 10
101.669
 20
53.4724
 11
102.469
 21
53.6136
  0
LINE
  8
0
 10
102.469
 20
53.6136
 11
103.077
 21
50.1666
  0
LINE
  8
0
 10
103.077
 20
50.1666
 11
102.276
 21
50.0255
  0
LINE
  8
0
 10
102.276
 20
50.0255
 11
103.146
 21
45.0927
  0
LINE
  8
0
 10
103.146
 20
45.0927
 11
103.947
 21
45.2338
  0
LINE
  8
0
 10
103.947
 20
45.2338
 11
104.554
 21
41.7869
  0
LINE
  8
0
 10
104.554
 20
41.7869
 11
103.754
 21
41.6458
  0
LINE
  8
0
 10
103.754
 20
41.6458
 11
103.924
 21
40.6802
  0
LINE
  8
0
 10
103.924
 20
40.6802
 11
90.1664
 21
38.2543
  0
LINE
  8
0
 10
90.1664
 20
38.2543
 11
89.9962
 21
39.2199
  0
LINE
  8
0
 10
-103.924
 20
40.6802
 11
-103.754
 21
41.6458
  0
LINE
  8
0
 10
-103.754
 20
41.6458
 11
-104.554
 21
41.7869
  0
LINE
  8
0
 10
-104.554
 20
41.7869
 11
-103.947
 21
45.2338
  0
LINE
  8
0
 10
-103.947
 20
45.2338
 11
-103.146
 21
45.0927
  0
LINE
  8
0
 10
-103.146
 20
45.0927
 11
-102.276
 21
50.0255
  0
LINE
  8
0
 10
-102.276
 20
50.0255
 11
-103.077
 21
50.1666
  0
LINE
  8
0
 10
-103.077
 20
50.1666
 11
-102.469
 21
53.6136
  0
LINE
  8
0
 10
-102.469
 20
53.6136
 11
-101.669
 21
53.4724
  0
LINE
  8
0
 10
-101.669
 20
53.4724
 11
-101.498
 21
54.438
  0
LINE
  8
0
 10
-101.498
 20
54.438
 11
-87.7405
 21
52.0121
  0
LINE
  8
0
 10
-87.7405
 20
52.0121
 11
-87.9108
 21
51.0466
  0
LINE
  8
0
 10
-87.9108
 20
51.0466
 11
-87.1104
 21
50.9054
  0
LINE
  8
0
 10
-87.1104
 20
50.9054
 11
-87.7181
 21
47.4585
  0
LINE
  8
0
 10
-87.7181
 20
47.4585
 11
-88.5186
 21
47.5996
  0
LINE
  8
0
 10
-88.5186
 20
47.5996
 11
-89.3884
 21
42.6668
  0
LINE
  8
0
 10
-89.3884
 20
42.6668
 11
-88.5879
 21
42.5257
  0
LINE
  8
0
 10
-88.5879
 20
42.5257
 11
-89.1957
 21
39.0788
  0
LINE
  8
0
 10
-89.1957
 20
39.0788
 11
-89.9962
 21
39.2199
  0
LINE
  8
0
 10
-89.9962
 20
39.2199
 11
-90.1664
 21
38.2543
  0
LINE
  8
0
 10
-90.1664
 20
38.2543
 11
-103.924
 21
40.6802
  0
LINE
  8
0
 10
-147.588
 20
39.2404
 11
-147.417
 21
40.206
  0
LINE
  8
0
 10
-147.417
 20
40.206
 11
-148.218
 21
40.3471
  0
LINE
  8
0
 10
-148.218
 20
40.3471
 11
-147.61
 21
43.794
  0
LINE
  8
0
 10
-147.61
 20
43.794
 11
-146.81
 21
43.6529
  0
LINE
  8
0
 10
-146.81
 20
43.6529
 11
-145.94
 21
48.5857
  0
LINE
  8
0
 10
-145.94
 20
48.5857
 11
-146.74
 21
48.7268
  0
LINE
  8
0
 10
-146.74
 20
48.7268
 11
-146.132
 21
52.1738
  0
LINE
  8
0
 10
-146.132
 20
52.1738
 11
-145.332
 21
52.0326
  0
LINE
  8
0
 10
-145.332
 20
52.0326
 11
-145.162
 21
52.9982
  0
LINE
  8
0
 10
-145.162
 20
52.9982
 11
-131.404
 21
50.5723
  0
LINE
  8
0
 10
-131.404
 20
50.5723
 11
-131.574
 21
49.6068
  0
LINE
  8
0
 10
-131.574
 20
49.6068
 11
-130.774
 21
49.4656
  0
LINE
  8
0
 10
-130.774
 20
49.4656
 11
-131.382
 21
46.0187
  0
LINE
  8
0
 10
-131.382
 20
46.0187
 11
-132.182
 21
46.1598
  0
LINE
  8
0
 10
-132.182
 20
46.1598
 11
-133.052
 21
41.227
  0
LINE
  8
0
 10
-133.052
 20
41.227
 11
-132.251
 21
41.0859
  0
LINE
  8
0
 10
-132.251
 20
41.0859
 11
-132.859
 21
37.6389
  0
LINE
  8
0
 10
-132.859
 20
37.6389
 11
-133.66
 21
37.7801
  0
LINE
  8
0
 10
-133.66
 20
37.7801
 11
-133.83
 21
36.8145
  0
LINE
  8
0
 10
-133.83
 20
36.8145
 11
-147.588
 21
39.2404
  0
LINE
  8
0
 10
133.66
 20
37.7801
 11
132.859
 21
37.6389
  0
LINE
  8
0
 10
132.859
 20
37.6389
 11
132.251
 21
41.0859
  0
LINE
  8
0
 10
132.251
 20
41.0859
 11
133.052
 21
41.227
  0
LINE
  8
0
 10
133.052
 20
41.227
 11
132.182
 21
46.1598
  0
LINE
  8
0
 10
132.182
 20
46.1598
 11
131.382
 21
46.0187
  0
LINE
  8
0
 10
131.382
 20
46.0187
 11
130.774
 21
49.4656
  0
LINE
  8
0
 10
130.774
 20
49.4656
 11
131.574
 21
49.6068
  0
LINE
  8
0
 10
131.574
 20
49.6068
 11
131.404
 21
50.5723
  0
LINE
  8
0
 10
131.404
 20
50.5723
 11
145.162
 21
52.9982
  0
LINE
  8
0
 10
145.162
 20
52.9982
 11
145.332
 21
52.0326
  0
LINE
  8
0
 10
145.332
 20
52.0326
 11
146.132
 21
52.1738
  0
LINE
  8
0
 10
146.132
 20
52.1738
 11
146.74
 21
48.7268
  0
LINE
  8
0
 10
146.74
 20
48.7268
 11
145.94
 21
48.5857
  0
LINE
  8
0
 10
145.94
 20
48.5857
 11
146.81
 21
43.6529
  0
LINE
  8
0
 10
146.81
 20
43.6529
 11
147.61
 21
43.794
  0
LINE
  8
0
 10
147.61
 20
43.794
 11
148.218
 21
40.3471
  0
LINE
  8
0
 10
148.218
 20
40.3471
 11
147.417
 21
40.206
  0
LINE
  8
0
 10
147.417
 20
40.206
 11
147.588
 21
39.2404
  0
LINE
  8
0
 10
147.588
 20
39.2404
 11
133.83
 21
36.8145
  0
LINE
  8
0
 10
133.83
 20
36.8145
 11
133.66
 21
37.7801
  0
LINE
  8
0
 10
-124.198
 20
35.1163
 11
-124.028
 21
36.0818
  0
LINE
  8
0
 10
-124.028
 20
36.0818
 11
-124.829
 21
36.2229
  0
LINE
  8
0
 10
-124.829
 20
36.2229
 11
-124.221
 21
39.6699
  0
LINE
  8
0
 10
-124.221
 20
39.6699
 11
-123.42
 21
39.5287
  0
LINE
  8
0
 10
-123.42
 20
39.5287
 11
-122.551
 21
44.4615
  0
LINE
  8
0
 10
-122.551
 20
44.4615
 11
-123.351
 21
44.6027
  0
LINE
  8
0
 10
-123.351
 20
44.6027
 11
-122.743
 21
48.0496
  0
LINE
  8
0
 10
-122.743
 20
48.0496
 11
-121.943
 21
47.9085
  0
LINE
  8
0
 10
-121.943
 20
47.9085
 11
-121.772
 21
48.874
  0
LINE
  8
0
 10
-121.772
 20
48.874
 11
-108.015
 21
46.4482
  0
LINE
  8
0
 10
-108.015
 20
46.4482
 11
-108.185
 21
45.4826
  0
LINE
  8
0
 10
-108.185
 20
45.4826
 11
-107.385
 21
45.3415
  0
LINE
  8
0
 10
-107.385
 20
45.3415
 11
-107.992
 21
41.8945
  0
LINE
  8
0
 10
-107.992
 20
41.8945
 11
-108.793
 21
42.0357
  0
LINE
  8
0
 10
-108.793
 20
42.0357
 11
-109.663
 21
37.1029
  0
LINE
  8
0
 10
-109.663
 20
37.1029
 11
-108.862
 21
36.9617
  0
LINE
  8
0
 10
-108.862
 20
36.9617
 11
-109.47
 21
33.5148
  0
LINE
  8
0
 10
-109.47
 20
33.5148
 11
-110.27
 21
33.6559
  0
LINE
  8
0
 10
-110.27
 20
33.6559
 11
-110.441
 21
32.6904
  0
LINE
  8
0
 10
-110.441
 20
32.6904
 11
-124.198
 21
35.1163
  0
LINE
  8
0
 10
110.27
 20
33.6559
 11
109.47
 21
33.5148
  0
LINE
  8
0
 10
109.47
 20
33.5148
 11
108.862
 21
36.9617
  0
LINE
  8
0
 10
108.862
 20
36.9617
 11
109.663
 21
37.1029
  0
LINE
  8
0
 10
109.663
 20
37.1029
 11
108.793
 21
42.0357
  0
LINE
  8
0
 10
108.793
 20
42.0357
 11
107.992
 21
41.8945
  0
LINE
  8
0
 10
107.992
 20
41.8945
 11
107.385
 21
45.3415
  0
LINE
  8
0
 10
107.385
 20
45.3415
 11
108.185
 21
45.4826
  0
LINE
  8
0
 10
108.185
 20
45.4826
 11
108.015
 21
46.4482
  0
LINE
  8
0
 10
108.015
 20
46.4482
 11
121.772
 21
48.874
  0
LINE
  8
0
 10
121.772
 20
48.874
 11
121.943
 21
47.9085
  0
LINE
  8
0
 10
121.943
 20
47.9085
 11
122.743
 21
48.0496
  0
LINE
  8
0
 10
122.743
 20
48.0496
 11
123.351
 21
44.6027
  0
LINE
  8
0
 10
123.351
 20
44.6027
 11
122.551
 21
44.4615
  0
LINE
  8
0
 10
122.551
 20
44.4615
 11
123.42
 21
39.5287
  0
LINE
  8
0
 10
123.42
 20
39.5287
 11
124.221
 21
39.6699
  0
LINE
  8
0
 10
124.221
 20
39.6699
 11
124.829
 21
36.2229
  0
LINE
  8
0
 10
124.829
 20
36.2229
 11
124.028
 21
36.0818
  0
LINE
  8
0
 10
124.028
 20
36.0818
 11
124.198
 21
35.1163
  0
LINE
  8
0
 10
124.198
 20
35.1163
 11
110.441
 21
32.6904
  0
LINE
  8
0
 10
110.441
 20
32.6904
 11
110.27
 21
33.6559
  0
LINE
  8
0
 10
-66.6751
 20
33.0968
 11
-66.5049
 21
34.0623
  0
LINE
  8
0
 10
-66.5049
 20
34.0623
 11
-67.3053
 21
34.2035
  0
LINE
  8
0
 10
-67.3053
 20
34.2035
 11
-66.6975
 21
37.6504
  0
LINE
  8
0
 10
-66.6975
 20
37.6504
 11
-65.8971
 21
37.5092
  0
LINE
  8
0
 10
-65.8971
 20
37.5092
 11
-65.0273
 21
42.4421
  0
LINE
  8
0
 10
-65.0273
 20
42.4421
 11
-65.8278
 21
42.5832
  0
LINE
  8
0
 10
-65.8278
 20
42.5832
 11
-65.22
 21
46.0301
  0
LINE
  8
0
 10
-65.22
 20
46.0301
 11
-64.4195
 21
45.889
  0
LINE
  8
0
 10
-64.4195
 20
45.889
 11
-64.2493
 21
46.8545
  0
LINE
  8
0
 10
-64.2493
 20
46.8545
 11
-50.4915
 21
44.4287
  0
LINE
  8
0
 10
-50.4915
 20
44.4287
 11
-50.6617
 21
43.4631
  0
LINE
  8
0
 10
-50.6617
 20
43.4631
 11
-49.8613
 21
43.322
  0
LINE
  8
0
 10
-49.8613
 20
43.322
 11
-50.4691
 21
39.875
  0
LINE
  8
0
 10
-50.4691
 20
39.875
 11
-51.2695
 21
40.0162
  0
LINE
  8
0
 10
-51.2695
 20
40.0162
 11
-52.1393
 21
35.0834
  0
LINE
  8
0
 10
-52.1393
 20
35.0834
 11
-51.3389
 21
34.9422
  0
LINE
  8
0
 10
-51.3389
 20
34.9422
 11
-51.9467
 21
31.4953
  0
LINE
  8
0
 10
-51.9467
 20
31.4953
 11
-52.7471
 21
31.6365
  0
LINE
  8
0
 10
-52.7471
 20
31.6365
 11
-52.9174
 21
30.6709
  0
LINE
  8
0
 10
-52.9174
 20
30.6709
 11
-66.6751
 21
33.0968
  0
LINE
  8
0
 10
52.7471
 20
31.6365
 11
51.9467
 21
31.4953
  0
LINE
  8
0
 10
51.9467
 20
31.4953
 11
51.3389
 21
34.9422
  0
LINE
  8
0
 10
51.3389
 20
34.9422
 11
52.1393
 21
35.0834
  0
LINE
  8
0
 10
52.1393
 20
35.0834
 11
51.2695
 21
40.0162
  0
LINE
  8
0
 10
51.2695
 20
40.0162
 11
50.4691
 21
39.875
  0
LINE
  8
0
 10
50.4691
 20
39.875
 11
49.8613
 21
43.322
  0
LINE
  8
0
 10
49.8613
 20
43.322
 11
50.6617
 21
43.4631
  0
LINE
  8
0
 10
50.6617
 20
43.4631
 11
50.4915
 21
44.4287
  0
LINE
  8
0
 10
50.4915
 20
44.4287
 11
64.2493
 21
46.8545
  0
LINE
  8
0
 10
64.2493
 20
46.8545
 11
64.4195
 21
45.889
  0
LINE
  8
0
 10
64.4195
 20
45.889
 11
65.22
 21
46.0301
  0
LINE
  8
0
 10
65.22
 20
46.0301
 11
65.8278
 21
42.5832
  0
LINE
  8
0
 10
65.8278
 20
42.5832
 11
65.0273
 21
42.4421
  0
LINE
  8
0
 10
65.0273
 20
42.4421
 11
65.8971
 21
37.5092
  0
LINE
  8
0
 10
65.8971
 20
37.5092
 11
66.6975
 21
37.6504
  0
LINE
  8
0
 10
66.6975
 20
37.6504
 11
67.3053
 21
34.2035
  0
LINE
  8
0
 10
67.3053
 20
34.2035
 11
66.5049
 21
34.0623
  0
LINE
  8
0
 10
66.5049
 20
34.0623
 11
66.6751
 21
33.0968
  0
LINE
  8
0
 10
66.6751
 20
33.0968
 11
52.9174
 21
30.6709
  0
LINE
  8
0
 10
52.9174
 20
30.6709
 11
52.7471
 21
31.6365
  0
LINE
  8
0
 10
-29.1222
 20
27.2367
 11
-28.9519
 21
28.2023
  0
LINE
  8
0
 10
-28.9519
 20
28.2023
 11
-29.7524
 21
28.3434
  0
LINE
  8
0
 10
-29.7524
 20
28.3434
 11
-29.1446
 21
31.7904
  0
LINE
  8
0
 10
-29.1446
 20
31.7904
 11
-28.3441
 21
31.6492
  0
LINE
  8
0
 10
-28.3441
 20
31.6492
 11
-27.4744
 21
36.582
  0
LINE
  8
0
 10
-27.4744
 20
36.582
 11
-28.2748
 21
36.7232
  0
LINE
  8
0
 10
-28.2748
 20
36.7232
 11
-27.667
 21
40.1701
  0
LINE
  8
0
 10
-27.667
 20
40.1701
 11
-26.8666
 21
40.029
  0
LINE
  8
0
 10
-26.8666
 20
40.029
 11
-26.6963
 21
40.9945
  0
LINE
  8
0
 10
-26.6963
 20
40.9945
 11
-12.9386
 21
38.5686
  0
LINE
  8
0
 10
-12.9386
 20
38.5686
 11
-13.1088
 21
37.6031
  0
LINE
  8
0
 10
-13.1088
 20
37.6031
 11
-12.3084
 21
37.4619
  0
LINE
  8
0
 10
-12.3084
 20
37.4619
 11
-12.9162
 21
34.015
  0
LINE
  8
0
 10
-12.9162
 20
34.015
 11
-13.7166
 21
34.1562
  0
LINE
  8
0
 10
-13.7166
 20
34.1562
 11
-14.5864
 21
29.2234
  0
LINE
  8
0
 10
-14.5864
 20
29.2234
 11
-13.7859
 21
29.0822
  0
LINE
  8
0
 10
-13.7859
 20
29.0822
 11
-14.3937
 21
25.6353
  0
LINE
  8
0
 10
-14.3937
 20
25.6353
 11
-15.1942
 21
25.7764
  0
LINE
  8
0
 10
-15.1942
 20
25.7764
 11
-15.3644
 21
24.8109
  0
LINE
  8
0
 10
-15.3644
 20
24.8109
 11
-29.1222
 21
27.2367
  0
LINE
  8
0
 10
15.1942
 20
25.7764
 11
14.3937
 21
25.6353
  0
LINE
  8
0
 10
14.3937
 20
25.6353
 11
13.7859
 21
29.0822
  0
LINE
  8
0
 10
13.7859
 20
29.0822
 11
14.5864
 21
29.2234
  0
LINE
  8
0
 10
14.5864
 20
29.2234
 11
13.7166
 21
34.1562
  0
LINE
  8
0
 10
13.7166
 20
34.1562
 11
12.9162
 21
34.015
  0
LINE
  8
0
 10
12.9162
 20
34.015
 11
12.3084
 21
37.4619
  0
LINE
  8
0
 10
12.3084
 20
37.4619
 11
13.1088
 21
37.6031
  0
LINE
  8
0
 10
13.1088
 20
37.6031
 11
12.9386
 21
38.5686
  0
LINE
  8
0
 10
12.9386
 20
38.5686
 11
26.6963
 21
40.9945
  0
LINE
  8
0
 10
26.6963
 20
40.9945
 11
26.8666
 21
40.029
  0
LINE
  8
0
 10
26.8666
 20
40.029
 11
27.667
 21
40.1701
  0
LINE
  8
0
 10
27.667
 20
40.1701
 11
28.2748
 21
36.7232
  0
LINE
  8
0
 10
28.2748
 20
36.7232
 11
27.4744
 21
36.582
  0
LINE
  8
0
 10
27.4744
 20
36.582
 11
28.3441
 21
31.6492
  0
LINE
  8
0
 10
28.3441
 20
31.6492
 11
29.1446
 21
31.7904
  0
LINE
  8
0
 10
29.1446
 20
31.7904
 11
29.7524
 21
28.3434
  0
LINE
  8
0
 10
29.7524
 20
28.3434
 11
28.9519
 21
28.2023
  0
LINE
  8
0
 10
28.9519
 20
28.2023
 11
29.1222
 21
27.2367
  0
LINE
  8
0
 10
29.1222
 20
27.2367
 11
15.3644
 21
24.8109
  0
LINE
  8
0
 10
15.3644
 20
24.8109
 11
15.1942
 21
25.7764
  0
LINE
  8
0
 10
34.7303
 20
24.3979
 11
33.9299
 21
24.2568
  0
LINE
  8
0
 10
33.9299
 20
24.2568
 11
33.3221
 21
27.7037
  0
LINE
  8
0
 10
33.3221
 20
27.7037
 11
34.1226
 21
27.8448
  0
LINE
  8
0
 10
34.1226
 20
27.8448
 11
33.2528
 21
32.7776
  0
LINE
  8
0
 10
33.2528
 20
32.7776
 11
32.4523
 21
32.6365
  0
LINE
  8
0
 10
32.4523
 20
32.6365
 11
31.8445
 21
36.0834
  0
LINE
  8
0
 10
31.8445
 20
36.0834
 11
32.645
 21
36.2246
  0
LINE
  8
0
 10
32.645
 20
36.2246
 11
32.4747
 21
37.1901
  0
LINE
  8
0
 10
32.4747
 20
37.1901
 11
46.2325
 21
39.616
  0
LINE
  8
0
 10
46.2325
 20
39.616
 11
46.4028
 21
38.6504
  0
LINE
  8
0
 10
46.4028
 20
38.6504
 11
47.2032
 21
38.7916
  0
LINE
  8
0
 10
47.2032
 20
38.7916
 11
47.811
 21
35.3447
  0
LINE
  8
0
 10
47.811
 20
35.3447
 11
47.0105
 21
35.2035
  0
LINE
  8
0
 10
47.0105
 20
35.2035
 11
47.8803
 21
30.2707
  0
LINE
  8
0
 10
47.8803
 20
30.2707
 11
48.6808
 21
30.4118
  0
LINE
  8
0
 10
48.6808
 20
30.4118
 11
49.2886
 21
26.9649
  0
LINE
  8
0
 10
49.2886
 20
26.9649
 11
48.4881
 21
26.8238
  0
LINE
  8
0
 10
48.4881
 20
26.8238
 11
48.6584
 21
25.8582
  0
LINE
  8
0
 10
48.6584
 20
25.8582
 11
34.9006
 21
23.4324
  0
LINE
  8
0
 10
34.9006
 20
23.4324
 11
34.7303
 21
24.3979
  0
LINE
  8
0
 10
-48.6584
 20
25.8582
 11
-48.4881
 21
26.8238
  0
LINE
  8
0
 10
-48.4881
 20
26.8238
 11
-49.2886
 21
26.9649
  0
LINE
  8
0
 10
-49.2886
 20
26.9649
 11
-48.6808
 21
30.4118
  0
LINE
  8
0
 10
-48.6808
 20
30.4118
 11
-47.8803
 21
30.2707
  0
LINE
  8
0
 10
-47.8803
 20
30.2707
 11
-47.0105
 21
35.2035
  0
LINE
  8
0
 10
-47.0105
 20
35.2035
 11
-47.811
 21
35.3447
  0
LINE
  8
0
 10
-47.811
 20
35.3447
 11
-47.2032
 21
38.7916
  0
LINE
  8
0
 10
-47.2032
 20
38.7916
 11
-46.4028
 21
38.6504
  0
LINE
  8
0
 10
-46.4028
 20
38.6504
 11
-46.2325
 21
39.616
  0
LINE
  8
0
 10
-46.2325
 20
39.616
 11
-32.4747
 21
37.1901
  0
LINE
  8
0
 10
-32.4747
 20
37.1901
 11
-32.645
 21
36.2246
  0
LINE
  8
0
 10
-32.645
 20
36.2246
 11
-31.8445
 21
36.0834
  0
LINE
  8
0
 10
-31.8445
 20
36.0834
 11
-32.4523
 21
32.6365
  0
LINE
  8
0
 10
-32.4523
 20
32.6365
 11
-33.2528
 21
32.7776
  0
LINE
  8
0
 10
-33.2528
 20
32.7776
 11
-34.1226
 21
27.8448
  0
LINE
  8
0
 10
-34.1226
 20
27.8448
 11
-33.3221
 21
27.7037
  0
LINE
  8
0
 10
-33.3221
 20
27.7037
 11
-33.9299
 21
24.2568
  0
LINE
  8
0
 10
-33.9299
 20
24.2568
 11
-34.7303
 21
24.3979
  0
LINE
  8
0
 10
-34.7303
 20
24.3979
 11
-34.9006
 21
23.4324
  0
LINE
  8
0
 10
-34.9006
 20
23.4324
 11
-48.6584
 21
25.8582
  0
LINE
  8
0
 10
93.2955
 20
20.5086
 11
92.495
 21
20.3674
  0
LINE
  8
0
 10
92.495
 20
20.3674
 11
91.8872
 21
23.8143
  0
LINE
  8
0
 10
91.8872
 20
23.8143
 11
92.6877
 21
23.9555
  0
LINE
  8
0
 10
92.6877
 20
23.9555
 11
91.8179
 21
28.8883
  0
LINE
  8
0
 10
91.8179
 20
28.8883
 11
91.0174
 21
28.7471
  0
LINE
  8
0
 10
91.0174
 20
28.7471
 11
90.4097
 21
32.1941
  0
LINE
  8
0
 10
90.4097
 20
32.1941
 11
91.2101
 21
32.3352
  0
LINE
  8
0
 10
91.2101
 20
32.3352
 11
91.0399
 21
33.3008
  0
LINE
  8
0
 10
91.0399
 20
33.3008
 11
104.798
 21
35.7266
  0
LINE
  8
0
 10
104.798
 20
35.7266
 11
104.968
 21
34.7611
  0
LINE
  8
0
 10
104.968
 20
34.7611
 11
105.768
 21
34.9022
  0
LINE
  8
0
 10
105.768
 20
34.9022
 11
106.376
 21
31.4553
  0
LINE
  8
0
 10
106.376
 20
31.4553
 11
105.576
 21
31.3141
  0
LINE
  8
0
 10
105.576
 20
31.3141
 11
106.445
 21
26.3813
  0
LINE
  8
0
 10
106.445
 20
26.3813
 11
107.246
 21
26.5225
  0
LINE
  8
0
 10
107.246
 20
26.5225
 11
107.854
 21
23.0756
  0
LINE
  8
0
 10
107.854
 20
23.0756
 11
107.053
 21
22.9344
  0
LINE
  8
0
 10
107.053
 20
22.9344
 11
107.223
 21
21.9689
  0
LINE
  8
0
 10
107.223
 20
21.9689
 11
93.4657
 21
19.543
  0
LINE
  8
0
 10
93.4657
 20
19.543
 11
93.2955
 21
20.5086
  0
LINE
  8
0
 10
-150.974
 20
20.0367
 11
-150.803
 21
21.0022
  0
LINE
  8
0
 10
-150.803
 20
21.0022
 11
-151.604
 21
21.1433
  0
LINE
  8
0
 10
-151.604
 20
21.1433
 11
-150.996
 21
24.5903
  0
LINE
  8
0
 10
-150.996
 20
24.5903
 11
-150.196
 21
24.4491
  0
LINE
  8
0
 10
-150.196
 20
24.4491
 11
-149.326
 21
29.3819
  0
LINE
  8
0
 10
-149.326
 20
29.3819
 11
-150.126
 21
29.5231
  0
LINE
  8
0
 10
-150.126
 20
29.5231
 11
-149.519
 21
32.97
  0
LINE
  8
0
 10
-149.519
 20
32.97
 11
-148.718
 21
32.8289
  0
LINE
  8
0
 10
-148.718
 20
32.8289
 11
-148.548
 21
33.7944
  0
LINE
  8
0
 10
-148.548
 20
33.7944
 11
-134.79
 21
31.3685
  0
LINE
  8
0
 10
-134.79
 20
31.3685
 11
-134.96
 21
30.403
  0
LINE
  8
0
 10
-134.96
 20
30.403
 11
-134.16
 21
30.2619
  0
LINE
  8
0
 10
-134.16
 20
30.2619
 11
-134.768
 21
26.8149
  0
LINE
  8
0
 10
-134.768
 20
26.8149
 11
-135.568
 21
26.9561
  0
LINE
  8
0
 10
-135.568
 20
26.9561
 11
-136.438
 21
22.0233
  0
LINE
  8
0
 10
-136.438
 20
22.0233
 11
-135.637
 21
21.8821
  0
LINE
  8
0
 10
-135.637
 20
21.8821
 11
-136.245
 21
18.4352
  0
LINE
  8
0
 10
-136.245
 20
18.4352
 11
-137.046
 21
18.5763
  0
LINE
  8
0
 10
-137.046
 20
18.5763
 11
-137.216
 21
17.6108
  0
LINE
  8
0
 10
-137.216
 20
17.6108
 11
-150.974
 21
20.0367
  0
LINE
  8
0
 10
132.368
 20
17.7515
 11
131.567
 21
17.6104
  0
LINE
  8
0
 10
131.567
 20
17.6104
 11
130.96
 21
21.0573
  0
LINE
  8
0
 10
130.96
 20
21.0573
 11
131.76
 21
21.1984
  0
LINE
  8
0
 10
131.76
 20
21.1984
 11
130.89
 21
26.1312
  0
LINE
  8
0
 10
130.89
 20
26.1312
 11
130.09
 21
25.9901
  0
LINE
  8
0
 10
130.09
 20
25.9901
 11
129.482
 21
29.437
  0
LINE
  8
0
 10
129.482
 20
29.437
 11
130.282
 21
29.5782
  0
LINE
  8
0
 10
130.282
 20
29.5782
 11
130.112
 21
30.5437
  0
LINE
  8
0
 10
130.112
 20
30.5437
 11
143.87
 21
32.9696
  0
LINE
  8
0
 10
143.87
 20
32.9696
 11
144.04
 21
32.004
  0
LINE
  8
0
 10
144.04
 20
32.004
 11
144.841
 21
32.1452
  0
LINE
  8
0
 10
144.841
 20
32.1452
 11
145.448
 21
28.6982
  0
LINE
  8
0
 10
145.448
 20
28.6982
 11
144.648
 21
28.5571
  0
LINE
  8
0
 10
144.648
 20
28.5571
 11
145.518
 21
23.6243
  0
LINE
  8
0
 10
145.518
 20
23.6243
 11
146.318
 21
23.7654
  0
LINE
  8
0
 10
146.318
 20
23.7654
 11
146.926
 21
20.3185
  0
LINE
  8
0
 10
146.926
 20
20.3185
 11
146.126
 21
20.1774
  0
LINE
  8
0
 10
146.126
 20
20.1774
 11
146.296
 21
19.2118
  0
LINE
  8
0
 10
146.296
 20
19.2118
 11
132.538
 21
16.7859
  0
LINE
  8
0
 10
132.538
 20
16.7859
 11
132.368
 21
17.7515
  0
LINE
  8
0
 10
113.656
 20
14.4522
 11
112.856
 21
14.3111
  0
LINE
  8
0
 10
112.856
 20
14.3111
 11
112.248
 21
17.758
  0
LINE
  8
0
 10
112.248
 20
17.758
 11
113.049
 21
17.8991
  0
LINE
  8
0
 10
113.049
 20
17.8991
 11
112.179
 21
22.8319
  0
LINE
  8
0
 10
112.179
 20
22.8319
 11
111.378
 21
22.6908
  0
LINE
  8
0
 10
111.378
 20
22.6908
 11
110.771
 21
26.1377
  0
LINE
  8
0
 10
110.771
 20
26.1377
 11
111.571
 21
26.2789
  0
LINE
  8
0
 10
111.571
 20
26.2789
 11
111.401
 21
27.2444
  0
LINE
  8
0
 10
111.401
 20
27.2444
 11
125.159
 21
29.6703
  0
LINE
  8
0
 10
125.159
 20
29.6703
 11
125.329
 21
28.7047
  0
LINE
  8
0
 10
125.329
 20
28.7047
 11
126.129
 21
28.8459
  0
LINE
  8
0
 10
126.129
 20
28.8459
 11
126.737
 21
25.3989
  0
LINE
  8
0
 10
126.737
 20
25.3989
 11
125.937
 21
25.2578
  0
LINE
  8
0
 10
125.937
 20
25.2578
 11
126.806
 21
20.325
  0
LINE
  8
0
 10
126.806
 20
20.325
 11
127.607
 21
20.4661
  0
LINE
  8
0
 10
127.607
 20
20.4661
 11
128.215
 21
17.0192
  0
LINE
  8
0
 10
128.215
 20
17.0192
 11
127.414
 21
16.8781
  0
LINE
  8
0
 10
127.414
 20
16.8781
 11
127.584
 21
15.9125
  0
LINE
  8
0
 10
127.584
 20
15.9125
 11
113.827
 21
13.4866
  0
LINE
  8
0
 10
113.827
 20
13.4866
 11
113.656
 21
14.4522
  0
LINE
  8
0
 10
-120.568
 20
14.6753
 11
-120.397
 21
15.6408
  0
LINE
  8
0
 10
-120.397
 20
15.6408
 11
-121.198
 21
15.782
  0
LINE
  8
0
 10
-121.198
 20
15.782
 11
-120.59
 21
19.2289
  0
LINE
  8
0
 10
-120.59
 20
19.2289
 11
-119.79
 21
19.0877
  0
LINE
  8
0
 10
-119.79
 20
19.0877
 11
-118.92
 21
24.0205
  0
LINE
  8
0
 10
-118.92
 20
24.0205
 11
-119.72
 21
24.1617
  0
LINE
  8
0
 10
-119.72
 20
24.1617
 11
-119.113
 21
27.6086
  0
LINE
  8
0
 10
-119.113
 20
27.6086
 11
-118.312
 21
27.4675
  0
LINE
  8
0
 10
-118.312
 20
27.4675
 11
-118.142
 21
28.433
  0
LINE
  8
0
 10
-118.142
 20
28.433
 11
-104.384
 21
26.0072
  0
LINE
  8
0
 10
-104.384
 20
26.0072
 11
-104.554
 21
25.0416
  0
LINE
  8
0
 10
-104.554
 20
25.0416
 11
-103.754
 21
24.9005
  0
LINE
  8
0
 10
-103.754
 20
24.9005
 11
-104.362
 21
21.4535
  0
LINE
  8
0
 10
-104.362
 20
21.4535
 11
-105.162
 21
21.5947
  0
LINE
  8
0
 10
-105.162
 20
21.5947
 11
-106.032
 21
16.6619
  0
LINE
  8
0
 10
-106.032
 20
16.6619
 11
-105.231
 21
16.5207
  0
LINE
  8
0
 10
-105.231
 20
16.5207
 11
-105.839
 21
13.0738
  0
LINE
  8
0
 10
-105.839
 20
13.0738
 11
-106.64
 21
13.215
  0
LINE
  8
0
 10
-106.64
 20
13.215
 11
-106.81
 21
12.2494
  0
LINE
  8
0
 10
-106.81
 20
12.2494
 11
-120.568
 21
14.6753
  0
LINE
  8
0
 10
-92.5007
 20
9.72629
 11
-92.3305
 21
10.6918
  0
LINE
  8
0
 10
-92.3305
 20
10.6918
 11
-93.1309
 21
10.833
  0
LINE
  8
0
 10
-93.1309
 20
10.833
 11
-92.5231
 21
14.2799
  0
LINE
  8
0
 10
-92.5231
 20
14.2799
 11
-91.7227
 21
14.1388
  0
LINE
  8
0
 10
-91.7227
 20
14.1388
 11
-90.8529
 21
19.0716
  0
LINE
  8
0
 10
-90.8529
 20
19.0716
 11
-91.6533
 21
19.2127
  0
LINE
  8
0
 10
-91.6533
 20
19.2127
 11
-91.0456
 21
22.6596
  0
LINE
  8
0
 10
-91.0456
 20
22.6596
 11
-90.2451
 21
22.5185
  0
LINE
  8
0
 10
-90.2451
 20
22.5185
 11
-90.0748
 21
23.4841
  0
LINE
  8
0
 10
-90.0748
 20
23.4841
 11
-76.3171
 21
21.0582
  0
LINE
  8
0
 10
-76.3171
 20
21.0582
 11
-76.4873
 21
20.0926
  0
LINE
  8
0
 10
-76.4873
 20
20.0926
 11
-75.6869
 21
19.9515
  0
LINE
  8
0
 10
-75.6869
 20
19.9515
 11
-76.2947
 21
16.5046
  0
LINE
  8
0
 10
-76.2947
 20
16.5046
 11
-77.0951
 21
16.6457
  0
LINE
  8
0
 10
-77.0951
 20
16.6457
 11
-77.9649
 21
11.7129
  0
LINE
  8
0
 10
-77.9649
 20
11.7129
 11
-77.1645
 21
11.5718
  0
LINE
  8
0
 10
-77.1645
 20
11.5718
 11
-77.7722
 21
8.12483
  0
LINE
  8
0
 10
-77.7722
 20
8.12483
 11
-78.5727
 21
8.26598
  0
LINE
  8
0
 10
-78.5727
 20
8.26598
 11
-78.743
 21
7.30043
  0
LINE
  8
0
 10
-78.743
 20
7.30043
 11
-92.5007
 21
9.72629
  0
LINE
  8
0
 10
76.2338
 20
7.85356
 11
75.4333
 21
7.71242
  0
LINE
  8
0
 10
75.4333
 20
7.71242
 11
74.8255
 21
11.1593
  0
LINE
  8
0
 10
74.8255
 20
11.1593
 11
75.626
 21
11.3005
  0
LINE
  8
0
 10
75.626
 20
11.3005
 11
74.7562
 21
16.2333
  0
LINE
  8
0
 10
74.7562
 20
16.2333
 11
73.9558
 21
16.0921
  0
LINE
  8
0
 10
73.9558
 20
16.0921
 11
73.348
 21
19.5391
  0
LINE
  8
0
 10
73.348
 20
19.5391
 11
74.1484
 21
19.6802
  0
LINE
  8
0
 10
74.1484
 20
19.6802
 11
73.9782
 21
20.6458
  0
LINE
  8
0
 10
73.9782
 20
20.6458
 11
87.7359
 21
23.0716
  0
LINE
  8
0
 10
87.7359
 20
23.0716
 11
87.9062
 21
22.1061
  0
LINE
  8
0
 10
87.9062
 20
22.1061
 11
88.7066
 21
22.2472
  0
LINE
  8
0
 10
88.7066
 20
22.2472
 11
89.3144
 21
18.8003
  0
LINE
  8
0
 10
89.3144
 20
18.8003
 11
88.514
 21
18.6592
  0
LINE
  8
0
 10
88.514
 20
18.6592
 11
89.3838
 21
13.7263
  0
LINE
  8
0
 10
89.3838
 20
13.7263
 11
90.1842
 21
13.8675
  0
LINE
  8
0
 10
90.1842
 20
13.8675
 11
90.792
 21
10.4206
  0
LINE
  8
0
 10
90.792
 20
10.4206
 11
89.9915
 21
10.2794
  0
LINE
  8
0
 10
89.9915
 20
10.2794
 11
90.1618
 21
9.31387
  0
LINE
  8
0
 10
90.1618
 20
9.31387
 11
76.404
 21
6.88802
  0
LINE
  8
0
 10
76.404
 20
6.88802
 11
76.2338
 21
7.85356
  0
LINE
  8
0
 10
-71.4505
 20
6.01456
 11
-71.2802
 21
6.98012
  0
LINE
  8
0
 10
-71.2802
 20
6.98012
 11
-72.0806
 21
7.12126
  0
LINE
  8
0
 10
-72.0806
 20
7.12126
 11
-71.4729
 21
10.5682
  0
LINE
  8
0
 10
-71.4729
 20
10.5682
 11
-70.6724
 21
10.427
  0
LINE
  8
0
 10
-70.6724
 20
10.427
 11
-69.8026
 21
15.3598
  0
LINE
  8
0
 10
-69.8026
 20
15.3598
 11
-70.6031
 21
15.501
  0
LINE
  8
0
 10
-70.6031
 20
15.501
 11
-69.9953
 21
18.9479
  0
LINE
  8
0
 10
-69.9953
 20
18.9479
 11
-69.1948
 21
18.8068
  0
LINE
  8
0
 10
-69.1948
 20
18.8068
 11
-69.0246
 21
19.7723
  0
LINE
  8
0
 10
-69.0246
 20
19.7723
 11
-55.2668
 21
17.3465
  0
LINE
  8
0
 10
-55.2668
 20
17.3465
 11
-55.4371
 21
16.3809
  0
LINE
  8
0
 10
-55.4371
 20
16.3809
 11
-54.6366
 21
16.2398
  0
LINE
  8
0
 10
-54.6366
 20
16.2398
 11
-55.2444
 21
12.7928
  0
LINE
  8
0
 10
-55.2444
 20
12.7928
 11
-56.0449
 21
12.934
  0
LINE
  8
0
 10
-56.0449
 20
12.934
 11
-56.9146
 21
8.00117
  0
LINE
  8
0
 10
-56.9146
 20
8.00117
 11
-56.1142
 21
7.86003
  0
LINE
  8
0
 10
-56.1142
 20
7.86003
 11
-56.722
 21
4.4131
  0
LINE
  8
0
 10
-56.722
 20
4.4131
 11
-57.5224
 21
4.55424
  0
LINE
  8
0
 10
-57.5224
 20
4.55424
 11
-57.6927
 21
3.5887
  0
LINE
  8
0
 10
-57.6927
 20
3.5887
 11
-71.4505
 21
6.01456
  0
LINE
  8
0
 10
48.1668
 20
2.90459
 11
47.3663
 21
2.76344
  0
LINE
  8
0
 10
47.3663
 20
2.76344
 11
46.7585
 21
6.21037
  0
LINE
  8
0
 10
46.7585
 20
6.21037
 11
47.559
 21
6.35152
  0
LINE
  8
0
 10
47.559
 20
6.35152
 11
46.6892
 21
11.2843
  0
LINE
  8
0
 10
46.6892
 20
11.2843
 11
45.8887
 21
11.1432
  0
LINE
  8
0
 10
45.8887
 20
11.1432
 11
45.2809
 21
14.5901
  0
LINE
  8
0
 10
45.2809
 20
14.5901
 11
46.0814
 21
14.7312
  0
LINE
  8
0
 10
46.0814
 20
14.7312
 11
45.9111
 21
15.6968
  0
LINE
  8
0
 10
45.9111
 20
15.6968
 11
59.6689
 21
18.1227
  0
LINE
  8
0
 10
59.6689
 20
18.1227
 11
59.8392
 21
17.1571
  0
LINE
  8
0
 10
59.8392
 20
17.1571
 11
60.6396
 21
17.2982
  0
LINE
  8
0
 10
60.6396
 20
17.2982
 11
61.2474
 21
13.8513
  0
LINE
  8
0
 10
61.2474
 20
13.8513
 11
60.4469
 21
13.7102
  0
LINE
  8
0
 10
60.4469
 20
13.7102
 11
61.3167
 21
8.77737
  0
LINE
  8
0
 10
61.3167
 20
8.77737
 11
62.1172
 21
8.91852
  0
LINE
  8
0
 10
62.1172
 20
8.91852
 11
62.725
 21
5.4716
  0
LINE
  8
0
 10
62.725
 20
5.4716
 11
61.9245
 21
5.33046
  0
LINE
  8
0
 10
61.9245
 20
5.33046
 11
62.0948
 21
4.3649
  0
LINE
  8
0
 10
62.0948
 20
4.3649
 11
48.337
 21
1.93904
  0
LINE
  8
0
 10
48.337
 20
1.93904
 11
48.1668
 21
2.90459
  0
LINE
  8
0
 10
96.5948
 20
1.79721
 11
95.7943
 21
1.65607
  0
LINE
  8
0
 10
95.7943
 20
1.65607
 11
95.1866
 21
5.103
  0
LINE
  8
0
 10
95.1866
 20
5.103
 11
95.987
 21
5.24413
  0
LINE
  8
0
 10
95.987
 20
5.24413
 11
95.1172
 21
10.1769
  0
LINE
  8
0
 10
95.1172
 20
10.1769
 11
94.3168
 21
10.0358
  0
LINE
  8
0
 10
94.3168
 20
10.0358
 11
93.709
 21
13.4827
  0
LINE
  8
0
 10
93.709
 20
13.4827
 11
94.5094
 21
13.6239
  0
LINE
  8
0
 10
94.5094
 20
13.6239
 11
94.3392
 21
14.5894
  0
LINE
  8
0
 10
94.3392
 20
14.5894
 11
108.097
 21
17.0153
  0
LINE
  8
0
 10
108.097
 20
17.0153
 11
108.267
 21
16.0497
  0
LINE
  8
0
 10
108.267
 20
16.0497
 11
109.068
 21
16.1909
  0
LINE
  8
0
 10
109.068
 20
16.1909
 11
109.675
 21
12.7439
  0
LINE
  8
0
 10
109.675
 20
12.7439
 11
108.875
 21
12.6028
  0
LINE
  8
0
 10
108.875
 20
12.6028
 11
109.745
 21
7.67
  0
LINE
  8
0
 10
109.745
 20
7.67
 11
110.545
 21
7.81114
  0
LINE
  8
0
 10
110.545
 20
7.81114
 11
111.153
 21
4.36421
  0
LINE
  8
0
 10
111.153
 20
4.36421
 11
110.353
 21
4.22307
  0
LINE
  8
0
 10
110.353
 20
4.22307
 11
110.523
 21
3.25752
  0
LINE
  8
0
 10
110.523
 20
3.25752
 11
96.765
 21
0.83165
  0
LINE
  8
0
 10
96.765
 20
0.83165
 11
96.5948
 21
1.79721
  0
LINE
  8
0
 10
-52.7391
 20
2.71524
 11
-52.5688
 21
3.6808
  0
LINE
  8
0
 10
-52.5688
 20
3.6808
 11
-53.3693
 21
3.82195
  0
LINE
  8
0
 10
-53.3693
 20
3.82195
 11
-52.7615
 21
7.26886
  0
LINE
  8
0
 10
-52.7615
 20
7.26886
 11
-51.9611
 21
7.12772
  0
LINE
  8
0
 10
-51.9611
 20
7.12772
 11
-51.0913
 21
12.0605
  0
LINE
  8
0
 10
-51.0913
 20
12.0605
 11
-51.8917
 21
12.2017
  0
LINE
  8
0
 10
-51.8917
 20
12.2017
 11
-51.2839
 21
15.6486
  0
LINE
  8
0
 10
-51.2839
 20
15.6486
 11
-50.4835
 21
15.5074
  0
LINE
  8
0
 10
-50.4835
 20
15.5074
 11
-50.3132
 21
16.473
  0
LINE
  8
0
 10
-50.3132
 20
16.473
 11
-36.5555
 21
14.0471
  0
LINE
  8
0
 10
-36.5555
 20
14.0471
 11
-36.7257
 21
13.0816
  0
LINE
  8
0
 10
-36.7257
 20
13.0816
 11
-35.9253
 21
12.9404
  0
LINE
  8
0
 10
-35.9253
 20
12.9404
 11
-36.5331
 21
9.49352
  0
LINE
  8
0
 10
-36.5331
 20
9.49352
 11
-37.3335
 21
9.63466
  0
LINE
  8
0
 10
-37.3335
 20
9.63466
 11
-38.2033
 21
4.70186
  0
LINE
  8
0
 10
-38.2033
 20
4.70186
 11
-37.4028
 21
4.56071
  0
LINE
  8
0
 10
-37.4028
 20
4.56071
 11
-38.0106
 21
1.11378
  0
LINE
  8
0
 10
-38.0106
 20
1.11378
 11
-38.8111
 21
1.25493
  0
LINE
  8
0
 10
-38.8111
 20
1.25493
 11
-38.9813
 21
0.289383
  0
LINE
  8
0
 10
-38.9813
 20
0.289383
 11
-52.7391
 21
2.71524
  0
LINE
  8
0
 10
-26.1031
 20
3.59122
 11
-26.2887
 21
3.62393
  0
LINE
  8
0
 10
-26.2887
 20
3.62393
 11
-26.4686
 21
3.67964
  0
LINE
  8
0
 10
-26.4686
 20
3.67964
 11
-26.6402
 21
3.75746
  0
LINE
  8
0
 10
-26.6402
 20
3.75746
 11
-26.8006
 21
3.85616
  0
LINE
  8
0
 10
-26.8006
 20
3.85616
 11
-26.9474
 21
3.9742
  0
LINE
  8
0
 10
-26.9474
 20
3.9742
 11
-27.0782
 21
4.1097
  0
LINE
  8
0
 10
-27.0782
 20
4.1097
 11
-27.1911
 21
4.26053
  0
LINE
  8
0
 10
-27.1911
 20
4.26053
 11
-27.2841
 21
4.42432
  0
LINE
  8
0
 10
-27.2841
 20
4.42432
 11
-27.3559
 21
4.59848
  0
LINE
  8
0
 10
-27.3559
 20
4.59848
 11
-27.4053
 21
4.78026
  0
LINE
  8
0
 10
-27.4053
 20
4.78026
 11
-27.4315
 21
4.9668
  0
LINE
  8
0
 10
-27.4315
 20
4.9668
 11
-27.4341
 21
5.15515
  0
LINE
  8
0
 10
-27.4341
 20
5.15515
 11
-27.4131
 21
5.34235
  0
LINE
  8
0
 10
-27.4131
 20
5.34235
 11
-27.3689
 21
5.52544
  0
LINE
  8
0
 10
-27.3689
 20
5.52544
 11
-27.302
 21
5.70154
  0
LINE
  8
0
 10
-27.302
 20
5.70154
 11
-27.2135
 21
5.86786
  0
LINE
  8
0
 10
-27.2135
 20
5.86786
 11
-27.1049
 21
6.02179
  0
LINE
  8
0
 10
-27.1049
 20
6.02179
 11
-26.9779
 21
6.16089
  0
LINE
  8
0
 10
-26.9779
 20
6.16089
 11
-26.8345
 21
6.28297
  0
LINE
  8
0
 10
-26.8345
 20
6.28297
 11
-26.6768
 21
6.38612
  0
LINE
  8
0
 10
-26.6768
 20
6.38612
 11
-26.5075
 21
6.46869
  0
LINE
  8
0
 10
-26.5075
 20
6.46869
 11
-26.3292
 21
6.5294
  0
LINE
  8
0
 10
-26.3292
 20
6.5294
 11
-26.1447
 21
6.56728
  0
LINE
  8
0
 10
-26.1447
 20
6.56728
 11
-25.9569
 21
6.58173
  0
LINE
  8
0
 10
-25.9569
 20
6.58173
 11
-25.7687
 21
6.57253
  0
LINE
  8
0
 10
-25.7687
 20
6.57253
 11
-25.5832
 21
6.53983
  0
LINE
  8
0
 10
-25.5832
 20
6.53983
 11
-25.4033
 21
6.48412
  0
LINE
  8
0
 10
-25.4033
 20
6.48412
 11
-25.2317
 21
6.4063
  0
LINE
  8
0
 10
-25.2317
 20
6.4063
 11
-25.0713
 21
6.30759
  0
LINE
  8
0
 10
-25.0713
 20
6.30759
 11
-24.9245
 21
6.18956
  0
LINE
  8
0
 10
-24.9245
 20
6.18956
 11
-24.7936
 21
6.05406
  0
LINE
  8
0
 10
-24.7936
 20
6.05406
 11
-24.6808
 21
5.90323
  0
LINE
  8
0
 10
-24.6808
 20
5.90323
 11
-24.5878
 21
5.73944
  0
LINE
  8
0
 10
-24.5878
 20
5.73944
 11
-24.516
 21
5.56528
  0
LINE
  8
0
 10
-24.516
 20
5.56528
 11
-24.4666
 21
5.3835
  0
LINE
  8
0
 10
-24.4666
 20
5.3835
 11
-24.4404
 21
5.19696
  0
LINE
  8
0
 10
-24.4404
 20
5.19696
 11
-24.4377
 21
5.00861
  0
LINE
  8
0
 10
-24.4377
 20
5.00861
 11
-24.4587
 21
4.82141
  0
LINE
  8
0
 10
-24.4587
 20
4.82141
 11
-24.503
 21
4.63832
  0
LINE
  8
0
 10
-24.503
 20
4.63832
 11
-24.5699
 21
4.46222
  0
LINE
  8
0
 10
-24.5699
 20
4.46222
 11
-24.6584
 21
4.2959
  0
LINE
  8
0
 10
-24.6584
 20
4.2959
 11
-24.7669
 21
4.14197
  0
LINE
  8
0
 10
-24.7669
 20
4.14197
 11
-24.894
 21
4.00287
  0
LINE
  8
0
 10
-24.894
 20
4.00287
 11
-25.0374
 21
3.88078
  0
LINE
  8
0
 10
-25.0374
 20
3.88078
 11
-25.195
 21
3.77763
  0
LINE
  8
0
 10
-25.195
 20
3.77763
 11
-25.3643
 21
3.69505
  0
LINE
  8
0
 10
-25.3643
 20
3.69505
 11
-25.5426
 21
3.63435
  0
LINE
  8
0
 10
-25.5426
 20
3.63435
 11
-25.7272
 21
3.59648
  0
LINE
  8
0
 10
-25.7272
 20
3.59648
 11
-25.915
 21
3.58202
  0
LINE
  8
0
 10
-25.915
 20
3.58202
 11
-26.1031
 21
3.59122
  0
LINE
  8
0
 10
25.7272
 20
3.59648
 11
25.5426
 21
3.63435
  0
LINE
  8
0
 10
25.5426
 20
3.63435
 11
25.3643
 21
3.69505
  0
LINE
  8
0
 10
25.3643
 20
3.69505
 11
25.195
 21
3.77763
  0
LINE
  8
0
 10
25.195
 20
3.77763
 11
25.0374
 21
3.88078
  0
LINE
  8
0
 10
25.0374
 20
3.88078
 11
24.894
 21
4.00287
  0
LINE
  8
0
 10
24.894
 20
4.00287
 11
24.7669
 21
4.14197
  0
LINE
  8
0
 10
24.7669
 20
4.14197
 11
24.6584
 21
4.2959
  0
LINE
  8
0
 10
24.6584
 20
4.2959
 11
24.5699
 21
4.46222
  0
LINE
  8
0
 10
24.5699
 20
4.46222
 11
24.503
 21
4.63832
  0
LINE
  8
0
 10
24.503
 20
4.63832
 11
24.4587
 21
4.82141
  0
LINE
  8
0
 10
24.4587
 20
4.82141
 11
24.4377
 21
5.00861
  0
LINE
  8
0
 10
24.4377
 20
5.00861
 11
24.4404
 21
5.19696
  0
LINE
  8
0
 10
24.4404
 20
5.19696
 11
24.4666
 21
5.3835
  0
LINE
  8
0
 10
24.4666
 20
5.3835
 11
24.516
 21
5.56528
  0
LINE
  8
0
 10
24.516
 20
5.56528
 11
24.5878
 21
5.73944
  0
LINE
  8
0
 10
24.5878
 20
5.73944
 11
24.6808
 21
5.90323
  0
LINE
  8
0
 10
24.6808
 20
5.90323
 11
24.7936
 21
6.05406
  0
LINE
  8
0
 10
24.7936
 20
6.05406
 11
24.9245
 21
6.18956
  0
LINE
  8
0
 10
24.9245
 20
6.18956
 11
25.0713
 21
6.30759
  0
LINE
  8
0
 10
25.0713
 20
6.30759
 11
25.2317
 21
6.4063
  0
LINE
  8
0
 10
25.2317
 20
6.4063
 11
25.4033
 21
6.48412
  0
LINE
  8
0
 10
25.4033
 20
6.48412
 11
25.5832
 21
6.53983
  0
LINE
  8
0
 10
25.5832
 20
6.53983
 11
25.7687
 21
6.57253
  0
LINE
  8
0
 10
25.7687
 20
6.57253
 11
25.9569
 21
6.58173
  0
LINE
  8
0
 10
25.9569
 20
6.58173
 11
26.1447
 21
6.56728
  0
LINE
  8
0
 10
26.1447
 20
6.56728
 11
26.3292
 21
6.5294
  0
LINE
  8
0
 10
26.3292
 20
6.5294
 11
26.5075
 21
6.46869
  0
LINE
  8
0
 10
26.5075
 20
6.46869
 11
26.6768
 21
6.38612
  0
LINE
  8
0
 10
26.6768
 20
6.38612
 11
26.8345
 21
6.28297
  0
LINE
  8
0
 10
26.8345
 20
6.28297
 11
26.9779
 21
6.16089
  0
LINE
  8
0
 10
26.9779
 20
6.16089
 11
27.1049
 21
6.02179
  0
LINE
  8
0
 10
27.1049
 20
6.02179
 11
27.2135
 21
5.86786
  0
LINE
  8
0
 10
27.2135
 20
5.86786
 11
27.302
 21
5.70154
  0
LINE
  8
0
 10
27.302
 20
5.70154
 11
27.3689
 21
5.52544
  0
LINE
  8
0
 10
27.3689
 20
5.52544
 11
27.4131
 21
5.34235
  0
LINE
  8
0
 10
27.4131
 20
5.34235
 11
27.4341
 21
5.15515
  0
LINE
  8
0
 10
27.4341
 20
5.15515
 11
27.4315
 21
4.9668
  0
LINE
  8
0
 10
27.4315
 20
4.9668
 11
27.4053
 21
4.78026
  0
LINE
  8
0
 10
27.4053
 20
4.78026
 11
27.3559
 21
4.59848
  0
LINE
  8
0
 10
27.3559
 20
4.59848
 11
27.2841
 21
4.42432
  0
LINE
  8
0
 10
27.2841
 20
4.42432
 11
27.1911
 21
4.26053
  0
LINE
  8
0
 10
27.1911
 20
4.26053
 11
27.0782
 21
4.1097
  0
LINE
  8
0
 10
27.0782
 20
4.1097
 11
26.9474
 21
3.9742
  0
LINE
  8
0
 10
26.9474
 20
3.9742
 11
26.8006
 21
3.85616
  0
LINE
  8
0
 10
26.8006
 20
3.85616
 11
26.6402
 21
3.75746
  0
LINE
  8
0
 10
26.6402
 20
3.75746
 11
26.4686
 21
3.67964
  0
LINE
  8
0
 10
26.4686
 20
3.67964
 11
26.2887
 21
3.62393
  0
LINE
  8
0
 10
26.2887
 20
3.62393
 11
26.1031
 21
3.59122
  0
LINE
  8
0
 10
26.1031
 20
3.59122
 11
25.915
 21
3.58202
  0
LINE
  8
0
 10
25.915
 20
3.58202
 11
25.7272
 21
3.59648
  0
LINE
  8
0
 10
-163.062
 20
-4.34665
 11
-163.248
 21
-4.31395
  0
LINE
  8
0
 10
-163.248
 20
-4.31395
 11
-163.428
 21
-4.25824
  0
LINE
  8
0
 10
-163.428
 20
-4.25824
 11
-163.599
 21
-4.18042
  0
LINE
  8
0
 10
-163.599
 20
-4.18042
 11
-163.76
 21
-4.08171
  0
LINE
  8
0
 10
-163.76
 20
-4.08171
 11
-163.907
 21
-3.96368
  0
LINE
  8
0
 10
-163.907
 20
-3.96368
 11
-164.037
 21
-3.82819
  0
LINE
  8
0
 10
-164.037
 20
-3.82819
 11
-164.15
 21
-3.67735
  0
LINE
  8
0
 10
-164.15
 20
-3.67735
 11
-164.243
 21
-3.51355
  0
LINE
  8
0
 10
-164.243
 20
-3.51355
 11
-164.315
 21
-3.3394
  0
LINE
  8
0
 10
-164.315
 20
-3.3394
 11
-164.364
 21
-3.15762
  0
LINE
  8
0
 10
-164.364
 20
-3.15762
 11
-164.391
 21
-2.97108
  0
LINE
  8
0
 10
-164.391
 20
-2.97108
 11
-164.393
 21
-2.78273
  0
LINE
  8
0
 10
-164.393
 20
-2.78273
 11
-164.372
 21
-2.59554
  0
LINE
  8
0
 10
-164.372
 20
-2.59554
 11
-164.328
 21
-2.41245
  0
LINE
  8
0
 10
-164.328
 20
-2.41245
 11
-164.261
 21
-2.23634
  0
LINE
  8
0
 10
-164.261
 20
-2.23634
 11
-164.173
 21
-2.07002
  0
LINE
  8
0
 10
-164.173
 20
-2.07002
 11
-164.064
 21
-1.91609
  0
LINE
  8
0
 10
-164.064
 20
-1.91609
 11
-163.937
 21
-1.77699
  0
LINE
  8
0
 10
-163.937
 20
-1.77699
 11
-163.794
 21
-1.65491
  0
LINE
  8
0
 10
-163.794
 20
-1.65491
 11
-163.636
 21
-1.55176
  0
LINE
  8
0
 10
-163.636
 20
-1.55176
 11
-163.467
 21
-1.46918
  0
LINE
  8
0
 10
-163.467
 20
-1.46918
 11
-163.288
 21
-1.40848
  0
LINE
  8
0
 10
-163.288
 20
-1.40848
 11
-163.104
 21
-1.37061
  0
LINE
  8
0
 10
-163.104
 20
-1.37061
 11
-162.916
 21
-1.35614
  0
LINE
  8
0
 10
-162.916
 20
-1.35614
 11
-162.728
 21
-1.36536
  0
LINE
  8
0
 10
-162.728
 20
-1.36536
 11
-162.542
 21
-1.39806
  0
LINE
  8
0
 10
-162.542
 20
-1.39806
 11
-162.362
 21
-1.45377
  0
LINE
  8
0
 10
-162.362
 20
-1.45377
 11
-162.191
 21
-1.53159
  0
LINE
  8
0
 10
-162.191
 20
-1.53159
 11
-162.03
 21
-1.63028
  0
LINE
  8
0
 10
-162.03
 20
-1.63028
 11
-161.884
 21
-1.74832
  0
LINE
  8
0
 10
-161.884
 20
-1.74832
 11
-161.753
 21
-1.88382
  0
LINE
  8
0
 10
-161.753
 20
-1.88382
 11
-161.64
 21
-2.03465
  0
LINE
  8
0
 10
-161.64
 20
-2.03465
 11
-161.547
 21
-2.19844
  0
LINE
  8
0
 10
-161.547
 20
-2.19844
 11
-161.475
 21
-2.3726
  0
LINE
  8
0
 10
-161.475
 20
-2.3726
 11
-161.426
 21
-2.55438
  0
LINE
  8
0
 10
-161.426
 20
-2.55438
 11
-161.399
 21
-2.74092
  0
LINE
  8
0
 10
-161.399
 20
-2.74092
 11
-161.397
 21
-2.92928
  0
LINE
  8
0
 10
-161.397
 20
-2.92928
 11
-161.418
 21
-3.11647
  0
LINE
  8
0
 10
-161.418
 20
-3.11647
 11
-161.462
 21
-3.29956
  0
LINE
  8
0
 10
-161.462
 20
-3.29956
 11
-161.529
 21
-3.47566
  0
LINE
  8
0
 10
-161.529
 20
-3.47566
 11
-161.617
 21
-3.64198
  0
LINE
  8
0
 10
-161.617
 20
-3.64198
 11
-161.726
 21
-3.79591
  0
LINE
  8
0
 10
-161.726
 20
-3.79591
 11
-161.853
 21
-3.93501
  0
LINE
  8
0
 10
-161.853
 20
-3.93501
 11
-161.997
 21
-4.0571
  0
LINE
  8
0
 10
-161.997
 20
-4.0571
 11
-162.154
 21
-4.16025
  0
LINE
  8
0
 10
-162.154
 20
-4.16025
 11
-162.323
 21
-4.24281
  0
LINE
  8
0
 10
-162.323
 20
-4.24281
 11
-162.502
 21
-4.30353
  0
LINE
  8
0
 10
-162.502
 20
-4.30353
 11
-162.686
 21
-4.3414
  0
LINE
  8
0
 10
-162.686
 20
-4.3414
 11
-162.874
 21
-4.35585
  0
LINE
  8
0
 10
-162.874
 20
-4.35585
 11
-163.062
 21
-4.34665
  0
LINE
  8
0
 10
162.686
 20
-4.3414
 11
162.502
 21
-4.30353
  0
LINE
  8
0
 10
162.502
 20
-4.30353
 11
162.323
 21
-4.24281
  0
LINE
  8
0
 10
162.323
 20
-4.24281
 11
162.154
 21
-4.16025
  0
LINE
  8
0
 10
162.154
 20
-4.16025
 11
161.997
 21
-4.0571
  0
LINE
  8
0
 10
161.997
 20
-4.0571
 11
161.853
 21
-3.93501
  0
LINE
  8
0
 10
161.853
 20
-3.93501
 11
161.726
 21
-3.79591
  0
LINE
  8
0
 10
161.726
 20
-3.79591
 11
161.617
 21
-3.64198
  0
LINE
  8
0
 10
161.617
 20
-3.64198
 11
161.529
 21
-3.47566
  0
LINE
  8
0
 10
161.529
 20
-3.47566
 11
161.462
 21
-3.29956
  0
LINE
  8
0
 10
161.462
 20
-3.29956
 11
161.418
 21
-3.11647
  0
LINE
  8
0
 10
161.418
 20
-3.11647
 11
161.397
 21
-2.92928
  0
LINE
  8
0
 10
161.397
 20
-2.92928
 11
161.399
 21
-2.74092
  0
LINE
  8
0
 10
161.399
 20
-2.74092
 11
161.426
 21
-2.55438
  0
LINE
  8
0
 10
161.426
 20
-2.55438
 11
161.475
 21
-2.3726
  0
LINE
  8
0
 10
161.475
 20
-2.3726
 11
161.547
 21
-2.19844
  0
LINE
  8
0
 10
161.547
 20
-2.19844
 11
161.64
 21
-2.03465
  0
LINE
  8
0
 10
161.64
 20
-2.03465
 11
161.753
 21
-1.88382
  0
LINE
  8
0
 10
161.753
 20
-1.88382
 11
161.884
 21
-1.74832
  0
LINE
  8
0
 10
161.884
 20
-1.74832
 11
162.03
 21
-1.63028
  0
LINE
  8
0
 10
162.03
 20
-1.63028
 11
162.191
 21
-1.53159
  0
LINE
  8
0
 10
162.191
 20
-1.53159
 11
162.362
 21
-1.45377
  0
LINE
  8
0
 10
162.362
 20
-1.45377
 11
162.542
 21
-1.39806
  0
LINE
  8
0
 10
162.542
 20
-1.39806
 11
162.728
 21
-1.36536
  0
LINE
  8
0
 10
162.728
 20
-1.36536
 11
162.916
 21
-1.35614
  0
LINE
  8
0
 10
162.916
 20
-1.35614
 11
163.104
 21
-1.37061
  0
LINE
  8
0
 10
163.104
 20
-1.37061
 11
163.288
 21
-1.40848
  0
LINE
  8
0
 10
163.288
 20
-1.40848
 11
163.467
 21
-1.46918
  0
LINE
  8
0
 10
163.467
 20
-1.46918
 11
163.636
 21
-1.55176
  0
LINE
  8
0
 10
163.636
 20
-1.55176
 11
163.794
 21
-1.65491
  0
LINE
  8
0
 10
163.794
 20
-1.65491
 11
163.937
 21
-1.77699
  0
LINE
  8
0
 10
163.937
 20
-1.77699
 11
164.064
 21
-1.91609
  0
LINE
  8
0
 10
164.064
 20
-1.91609
 11
164.173
 21
-2.07002
  0
LINE
  8
0
 10
164.173
 20
-2.07002
 11
164.261
 21
-2.23634
  0
LINE
  8
0
 10
164.261
 20
-2.23634
 11
164.328
 21
-2.41245
  0
LINE
  8
0
 10
164.328
 20
-2.41245
 11
164.372
 21
-2.59554
  0
LINE
  8
0
 10
164.372
 20
-2.59554
 11
164.393
 21
-2.78273
  0
LINE
  8
0
 10
164.393
 20
-2.78273
 11
164.391
 21
-2.97108
  0
LINE
  8
0
 10
164.391
 20
-2.97108
 11
164.364
 21
-3.15762
  0
LINE
  8
0
 10
164.364
 20
-3.15762
 11
164.315
 21
-3.3394
  0
LINE
  8
0
 10
164.315
 20
-3.3394
 11
164.243
 21
-3.51355
  0
LINE
  8
0
 10
164.243
 20
-3.51355
 11
164.15
 21
-3.67735
  0
LINE
  8
0
 10
164.15
 20
-3.67735
 11
164.037
 21
-3.82819
  0
LINE
  8
0
 10
164.037
 20
-3.82819
 11
163.907
 21
-3.96368
  0
LINE
  8
0
 10
163.907
 20
-3.96368
 11
163.76
 21
-4.08171
  0
LINE
  8
0
 10
163.76
 20
-4.08171
 11
163.599
 21
-4.18042
  0
LINE
  8
0
 10
163.599
 20
-4.18042
 11
163.428
 21
-4.25824
  0
LINE
  8
0
 10
163.428
 20
-4.25824
 11
163.248
 21
-4.31395
  0
LINE
  8
0
 10
163.248
 20
-4.31395
 11
163.062
 21
-4.34665
  0
LINE
  8
0
 10
163.062
 20
-4.34665
 11
162.874
 21
-4.35585
  0
LINE
  8
0
 10
162.874
 20
-4.35585
 11
162.686
 21
-4.3414
  0
ENDSEC
  0
SECTION
  2
OBJECTS
  0
DICTIONARY
  0
ENDSEC
  0
EOF
