  0
SECTION
  2
BLOCKS
  0
ENDSEC
  0
SECTION
  2
ENTITIES
  0
LINE
  8
0
 10
163.508
 20
-8.32173
 11
164.188
 21
-8.20178
  0
LINE
  8
0
 10
164.188
 20
-8.20178
 11
164.848
 21
-7.99754
  0
LINE
  8
0
 10
164.848
 20
-7.99754
 11
165.477
 21
-7.71222
  0
LINE
  8
0
 10
165.477
 20
-7.71222
 11
166.065
 21
-7.3503
  0
LINE
  8
0
 10
166.065
 20
-7.3503
 11
166.604
 21
-6.91751
  0
LINE
  8
0
 10
166.604
 20
-6.91751
 11
167.084
 21
-6.42065
  0
LINE
  8
0
 10
167.084
 20
-6.42065
 11
167.497
 21
-5.8676
  0
LINE
  8
0
 10
167.497
 20
-5.8676
 11
167.838
 21
-5.26704
  0
LINE
  8
0
 10
167.838
 20
-5.26704
 11
168.102
 21
-4.62846
  0
LINE
  8
0
 10
168.102
 20
-4.62846
 11
168.283
 21
-3.96193
  0
LINE
  8
0
 10
168.283
 20
-3.96193
 11
168.379
 21
-3.27795
  0
LINE
  8
0
 10
168.379
 20
-3.27795
 11
168.388
 21
-2.58733
  0
LINE
  8
0
 10
168.388
 20
-2.58733
 11
168.312
 21
-1.90094
  0
LINE
  8
0
 10
168.312
 20
-1.90094
 11
146.076
 21
124.204
  0
LINE
  8
0
 10
146.076
 20
124.204
 11
145.913
 21
124.875
  0
LINE
  8
0
 10
145.913
 20
124.875
 11
145.668
 21
125.521
  0
LINE
  8
0
 10
145.668
 20
125.521
 11
145.344
 21
126.131
  0
LINE
  8
0
 10
145.344
 20
126.131
 11
144.946
 21
126.695
  0
LINE
  8
0
 10
144.946
 20
126.695
 11
144.48
 21
127.205
  0
LINE
  8
0
 10
144.48
 20
127.205
 11
143.954
 21
127.653
  0
LINE
  8
0
 10
143.954
 20
127.653
 11
143.376
 21
128.031
  0
LINE
  8
0
 10
143.376
 20
128.031
 11
142.755
 21
128.334
  0
LINE
  8
0
 10
142.755
 20
128.334
 11
142.101
 21
128.556
  0
LINE
  8
0
 10
142.101
 20
128.556
 11
141.425
 21
128.695
  0
LINE
  8
0
 10
141.425
 20
128.695
 11
140.736
 21
128.748
  0
LINE
  8
0
 10
140.736
 20
128.748
 11
-140.736
 21
128.748
  0
LINE
  8
0
 10
-140.736
 20
128.748
 11
-141.425
 21
128.695
  0
LINE
  8
0
 10
-141.425
 20
128.695
 11
-142.101
 21
128.556
  0
LINE
  8
0
 10
-142.101
 20
128.556
 11
-142.755
 21
128.334
  0
LINE
  8
0
 10
-142.755
 20
128.334
 11
-143.376
 21
128.031
  0
LINE
  8
0
 10
-143.376
 20
128.031
 11
-143.954
 21
127.653
  0
LINE
  8
0
 10
-143.954
 20
127.653
 11
-144.48
 21
127.205
  0
LINE
  8
0
 10
-144.48
 20
127.205
 11
-144.946
 21
126.695
  0
LINE
  8
0
 10
-144.946
 20
126.695
 11
-145.344
 21
126.131
  0
LINE
  8
0
 10
-145.344
 20
126.131
 11
-145.668
 21
125.521
  0
LINE
  8
0
 10
-145.668
 20
125.521
 11
-145.913
 21
124.875
  0
LINE
  8
0
 10
-145.913
 20
124.875
 11
-146.076
 21
124.204
  0
LINE
  8
0
 10
-146.076
 20
124.204
 11
-168.312
 21
-1.90094
  0
LINE
  8
0
 10
-168.312
 20
-1.90094
 11
-168.388
 21
-2.58733
  0
LINE
  8
0
 10
-168.388
 20
-2.58733
 11
-168.379
 21
-3.27795
  0
LINE
  8
0
 10
-168.379
 20
-3.27795
 11
-168.283
 21
-3.96193
  0
LINE
  8
0
 10
-168.283
 20
-3.96193
 11
-168.102
 21
-4.62846
  0
LINE
  8
0
 10
-168.102
 20
-4.62846
 11
-167.838
 21
-5.26704
  0
LINE
  8
0
 10
-167.838
 20
-5.26704
 11
-167.497
 21
-5.8676
  0
LINE
  8
0
 10
-167.497
 20
-5.8676
 11
-167.084
 21
-6.42065
  0
LINE
  8
0
 10
-167.084
 20
-6.42065
 11
-166.604
 21
-6.91751
  0
LINE
  8
0
 10
-166.604
 20
-6.91751
 11
-166.065
 21
-7.3503
  0
LINE
  8
0
 10
-166.065
 20
-7.3503
 11
-165.477
 21
-7.71222
  0
LINE
  8
0
 10
-165.477
 20
-7.71222
 11
-164.848
 21
-7.99754
  0
LINE
  8
0
 10
-164.848
 20
-7.99754
 11
-164.188
 21
-8.20178
  0
LINE
  8
0
 10
-164.188
 20
-8.20178
 11
-163.508
 21
-8.32173
  0
LINE
  8
0
 10
-163.508
 20
-8.32173
 11
-162.818
 21
-8.35547
  0
LINE
  8
0
 10
-162.818
 20
-8.35547
 11
162.818
 21
-8.35547
  0
LINE
  8
0
 10
162.818
 20
-8.35547
 11
163.508
 21
-8.32173
  0
LINE
  8
0
 10
-43.8534
 20
121.758
 11
-44.0389
 21
121.791
  0
LINE
  8
0
 10
-44.0389
 20
121.791
 11
-44.2188
 21
121.846
  0
LINE
  8
0
 10
-44.2188
 20
121.846
 11
-44.3904
 21
121.924
  0
LINE
  8
0
 10
-44.3904
 20
121.924
 11
-44.5508
 21
122.023
  0
LINE
  8
0
 10
-44.5508
 20
122.023
 11
-44.6976
 21
122.141
  0
LINE
  8
0
 10
-44.6976
 20
122.141
 11
-44.8285
 21
122.276
  0
LINE
  8
0
 10
-44.8285
 20
122.276
 11
-44.9413
 21
122.427
  0
LINE
  8
0
 10
-44.9413
 20
122.427
 11
-45.0344
 21
122.591
  0
LINE
  8
0
 10
-45.0344
 20
122.591
 11
-45.1061
 21
122.765
  0
LINE
  8
0
 10
-45.1061
 20
122.765
 11
-45.1555
 21
122.947
  0
LINE
  8
0
 10
-45.1555
 20
122.947
 11
-45.1817
 21
123.134
  0
LINE
  8
0
 10
-45.1817
 20
123.134
 11
-45.1844
 21
123.322
  0
LINE
  8
0
 10
-45.1844
 20
123.322
 11
-45.1634
 21
123.509
  0
LINE
  8
0
 10
-45.1634
 20
123.509
 11
-45.1191
 21
123.692
  0
LINE
  8
0
 10
-45.1191
 20
123.692
 11
-45.0522
 21
123.868
  0
LINE
  8
0
 10
-45.0522
 20
123.868
 11
-44.9638
 21
124.035
  0
LINE
  8
0
 10
-44.9638
 20
124.035
 11
-44.8552
 21
124.189
  0
LINE
  8
0
 10
-44.8552
 20
124.189
 11
-44.7281
 21
124.328
  0
LINE
  8
0
 10
-44.7281
 20
124.328
 11
-44.5847
 21
124.45
  0
LINE
  8
0
 10
-44.5847
 20
124.45
 11
-44.4271
 21
124.553
  0
LINE
  8
0
 10
-44.4271
 20
124.553
 11
-44.2578
 21
124.635
  0
LINE
  8
0
 10
-44.2578
 20
124.635
 11
-44.0795
 21
124.696
  0
LINE
  8
0
 10
-44.0795
 20
124.696
 11
-43.8949
 21
124.734
  0
LINE
  8
0
 10
-43.8949
 20
124.734
 11
-43.7071
 21
124.748
  0
LINE
  8
0
 10
-43.7071
 20
124.748
 11
-43.519
 21
124.739
  0
LINE
  8
0
 10
-43.519
 20
124.739
 11
-43.3335
 21
124.707
  0
LINE
  8
0
 10
-43.3335
 20
124.707
 11
-43.1535
 21
124.651
  0
LINE
  8
0
 10
-43.1535
 20
124.651
 11
-42.982
 21
124.573
  0
LINE
  8
0
 10
-42.982
 20
124.573
 11
-42.8215
 21
124.474
  0
LINE
  8
0
 10
-42.8215
 20
124.474
 11
-42.6747
 21
124.356
  0
LINE
  8
0
 10
-42.6747
 20
124.356
 11
-42.5439
 21
124.221
  0
LINE
  8
0
 10
-42.5439
 20
124.221
 11
-42.431
 21
124.07
  0
LINE
  8
0
 10
-42.431
 20
124.07
 11
-42.338
 21
123.906
  0
LINE
  8
0
 10
-42.338
 20
123.906
 11
-42.2662
 21
123.732
  0
LINE
  8
0
 10
-42.2662
 20
123.732
 11
-42.2168
 21
123.55
  0
LINE
  8
0
 10
-42.2168
 20
123.55
 11
-42.1906
 21
123.364
  0
LINE
  8
0
 10
-42.1906
 20
123.364
 11
-42.188
 21
123.175
  0
LINE
  8
0
 10
-42.188
 20
123.175
 11
-42.209
 21
122.988
  0
LINE
  8
0
 10
-42.209
 20
122.988
 11
-42.2533
 21
122.805
  0
LINE
  8
0
 10
-42.2533
 20
122.805
 11
-42.3201
 21
122.629
  0
LINE
  8
0
 10
-42.3201
 20
122.629
 11
-42.4086
 21
122.463
  0
LINE
  8
0
 10
-42.4086
 20
122.463
 11
-42.5172
 21
122.309
  0
LINE
  8
0
 10
-42.5172
 20
122.309
 11
-42.6442
 21
122.17
  0
LINE
  8
0
 10
-42.6442
 20
122.17
 11
-42.7876
 21
122.048
  0
LINE
  8
0
 10
-42.7876
 20
122.048
 11
-42.9453
 21
121.944
  0
LINE
  8
0
 10
-42.9453
 20
121.944
 11
-43.1146
 21
121.862
  0
LINE
  8
0
 10
-43.1146
 20
121.862
 11
-43.2929
 21
121.801
  0
LINE
  8
0
 10
-43.2929
 20
121.801
 11
-43.4774
 21
121.763
  0
LINE
  8
0
 10
-43.4774
 20
121.763
 11
-43.6652
 21
121.749
  0
LINE
  8
0
 10
-43.6652
 20
121.749
 11
-43.8534
 21
121.758
  0
LINE
  8
0
 10
43.4774
 20
121.763
 11
43.2929
 21
121.801
  0
LINE
  8
0
 10
43.2929
 20
121.801
 11
43.1146
 21
121.862
  0
LINE
  8
0
 10
43.1146
 20
121.862
 11
42.9453
 21
121.944
  0
LINE
  8
0
 10
42.9453
 20
121.944
 11
42.7876
 21
122.048
  0
LINE
  8
0
 10
42.7876
 20
122.048
 11
42.6442
 21
122.17
  0
LINE
  8
0
 10
42.6442
 20
122.17
 11
42.5172
 21
122.309
  0
LINE
  8
0
 10
42.5172
 20
122.309
 11
42.4086
 21
122.463
  0
LINE
  8
0
 10
42.4086
 20
122.463
 11
42.3201
 21
122.629
  0
LINE
  8
0
 10
42.3201
 20
122.629
 11
42.2533
 21
122.805
  0
LINE
  8
0
 10
42.2533
 20
122.805
 11
42.209
 21
122.988
  0
LINE
  8
0
 10
42.209
 20
122.988
 11
42.188
 21
123.175
  0
LINE
  8
0
 10
42.188
 20
123.175
 11
42.1906
 21
123.364
  0
LINE
  8
0
 10
42.1906
 20
123.364
 11
42.2168
 21
123.55
  0
LINE
  8
0
 10
42.2168
 20
123.55
 11
42.2662
 21
123.732
  0
LINE
  8
0
 10
42.2662
 20
123.732
 11
42.338
 21
123.906
  0
LINE
  8
0
 10
42.338
 20
123.906
 11
42.431
 21
124.07
  0
LINE
  8
0
 10
42.431
 20
124.07
 11
42.5439
 21
124.221
  0
LINE
  8
0
 10
42.5439
 20
124.221
 11
42.6747
 21
124.356
  0
LINE
  8
0
 10
42.6747
 20
124.356
 11
42.8215
 21
124.474
  0
LINE
  8
0
 10
42.8215
 20
124.474
 11
42.982
 21
124.573
  0
LINE
  8
0
 10
42.982
 20
124.573
 11
43.1535
 21
124.651
  0
LINE
  8
0
 10
43.1535
 20
124.651
 11
43.3335
 21
124.707
  0
LINE
  8
0
 10
43.3335
 20
124.707
 11
43.519
 21
124.739
  0
LINE
  8
0
 10
43.519
 20
124.739
 11
43.7071
 21
124.748
  0
LINE
  8
0
 10
43.7071
 20
124.748
 11
43.8949
 21
124.734
  0
LINE
  8
0
 10
43.8949
 20
124.734
 11
44.0795
 21
124.696
  0
LINE
  8
0
 10
44.0795
 20
124.696
 11
44.2578
 21
124.635
  0
LINE
  8
0
 10
44.2578
 20
124.635
 11
44.4271
 21
124.553
  0
LINE
  8
0
 10
44.4271
 20
124.553
 11
44.5847
 21
124.45
  0
LINE
  8
0
 10
44.5847
 20
124.45
 11
44.7281
 21
124.328
  0
LINE
  8
0
 10
44.7281
 20
124.328
 11
44.8552
 21
124.189
  0
LINE
  8
0
 10
44.8552
 20
124.189
 11
44.9638
 21
124.035
  0
LINE
  8
0
 10
44.9638
 20
124.035
 11
45.0522
 21
123.868
  0
LINE
  8
0
 10
45.0522
 20
123.868
 11
45.1191
 21
123.692
  0
LINE
  8
0
 10
45.1191
 20
123.692
 11
45.1634
 21
123.509
  0
LINE
  8
0
 10
45.1634
 20
123.509
 11
45.1844
 21
123.322
  0
LINE
  8
0
 10
45.1844
 20
123.322
 11
45.1817
 21
123.134
  0
LINE
  8
0
 10
45.1817
 20
123.134
 11
45.1555
 21
122.947
  0
LINE
  8
0
 10
45.1555
 20
122.947
 11
45.1061
 21
122.765
  0
LINE
  8
0
 10
45.1061
 20
122.765
 11
45.0344
 21
122.591
  0
LINE
  8
0
 10
45.0344
 20
122.591
 11
44.9413
 21
122.427
  0
LINE
  8
0
 10
44.9413
 20
122.427
 11
44.8285
 21
122.276
  0
LINE
  8
0
 10
44.8285
 20
122.276
 11
44.6976
 21
122.141
  0
LINE
  8
0
 10
44.6976
 20
122.141
 11
44.5508
 21
122.023
  0
LINE
  8
0
 10
44.5508
 20
122.023
 11
44.3904
 21
121.924
  0
LINE
  8
0
 10
44.3904
 20
121.924
 11
44.2188
 21
121.846
  0
LINE
  8
0
 10
44.2188
 20
121.846
 11
44.0389
 21
121.791
  0
LINE
  8
0
 10
44.0389
 20
121.791
 11
43.8534
 21
121.758
  0
LINE
  8
0
 10
43.8534
 20
121.758
 11
43.6652
 21
121.749
  0
LINE
  8
0
 10
43.6652
 20
121.749
 11
43.4774
 21
121.763
  0
LINE
  8
0
 10
140.451
 20
121.763
 11
140.266
 21
121.801
  0
LINE
  8
0
 10
140.266
 20
121.801
 11
140.088
 21
121.862
  0
LINE
  8
0
 10
140.088
 20
121.862
 11
139.919
 21
121.944
  0
LINE
  8
0
 10
139.919
 20
121.944
 11
139.761
 21
122.048
  0
LINE
  8
0
 10
139.761
 20
122.048
 11
139.617
 21
122.17
  0
LINE
  8
0
 10
139.617
 20
122.17
 11
139.49
 21
122.309
  0
LINE
  8
0
 10
139.49
 20
122.309
 11
139.382
 21
122.463
  0
LINE
  8
0
 10
139.382
 20
122.463
 11
139.293
 21
122.629
  0
LINE
  8
0
 10
139.293
 20
122.629
 11
139.227
 21
122.805
  0
LINE
  8
0
 10
139.227
 20
122.805
 11
139.182
 21
122.988
  0
LINE
  8
0
 10
139.182
 20
122.988
 11
139.161
 21
123.175
  0
LINE
  8
0
 10
139.161
 20
123.175
 11
139.164
 21
123.364
  0
LINE
  8
0
 10
139.164
 20
123.364
 11
139.19
 21
123.55
  0
LINE
  8
0
 10
139.19
 20
123.55
 11
139.239
 21
123.732
  0
LINE
  8
0
 10
139.239
 20
123.732
 11
139.311
 21
123.906
  0
LINE
  8
0
 10
139.311
 20
123.906
 11
139.404
 21
124.07
  0
LINE
  8
0
 10
139.404
 20
124.07
 11
139.517
 21
124.221
  0
LINE
  8
0
 10
139.517
 20
124.221
 11
139.648
 21
124.356
  0
LINE
  8
0
 10
139.648
 20
124.356
 11
139.795
 21
124.474
  0
LINE
  8
0
 10
139.795
 20
124.474
 11
139.955
 21
124.573
  0
LINE
  8
0
 10
139.955
 20
124.573
 11
140.127
 21
124.651
  0
LINE
  8
0
 10
140.127
 20
124.651
 11
140.307
 21
124.707
  0
LINE
  8
0
 10
140.307
 20
124.707
 11
140.492
 21
124.739
  0
LINE
  8
0
 10
140.492
 20
124.739
 11
140.68
 21
124.748
  0
LINE
  8
0
 10
140.68
 20
124.748
 11
140.868
 21
124.734
  0
LINE
  8
0
 10
140.868
 20
124.734
 11
141.053
 21
124.696
  0
LINE
  8
0
 10
141.053
 20
124.696
 11
141.231
 21
124.635
  0
LINE
  8
0
 10
141.231
 20
124.635
 11
141.4
 21
124.553
  0
LINE
  8
0
 10
141.4
 20
124.553
 11
141.558
 21
124.45
  0
LINE
  8
0
 10
141.558
 20
124.45
 11
141.701
 21
124.328
  0
LINE
  8
0
 10
141.701
 20
124.328
 11
141.828
 21
124.189
  0
LINE
  8
0
 10
141.828
 20
124.189
 11
141.937
 21
124.035
  0
LINE
  8
0
 10
141.937
 20
124.035
 11
142.025
 21
123.868
  0
LINE
  8
0
 10
142.025
 20
123.868
 11
142.092
 21
123.692
  0
LINE
  8
0
 10
142.092
 20
123.692
 11
142.137
 21
123.509
  0
LINE
  8
0
 10
142.137
 20
123.509
 11
142.158
 21
123.322
  0
LINE
  8
0
 10
142.158
 20
123.322
 11
142.155
 21
123.134
  0
LINE
  8
0
 10
142.155
 20
123.134
 11
142.129
 21
122.947
  0
LINE
  8
0
 10
142.129
 20
122.947
 11
142.079
 21
122.765
  0
LINE
  8
0
 10
142.079
 20
122.765
 11
142.008
 21
122.591
  0
LINE
  8
0
 10
142.008
 20
122.591
 11
141.915
 21
122.427
  0
LINE
  8
0
 10
141.915
 20
122.427
 11
141.802
 21
122.276
  0
LINE
  8
0
 10
141.802
 20
122.276
 11
141.671
 21
122.141
  0
LINE
  8
0
 10
141.671
 20
122.141
 11
141.524
 21
122.023
  0
LINE
  8
0
 10
141.524
 20
122.023
 11
141.364
 21
121.924
  0
LINE
  8
0
 10
141.364
 20
121.924
 11
141.192
 21
121.846
  0
LINE
  8
0
 10
141.192
 20
121.846
 11
141.012
 21
121.791
  0
LINE
  8
0
 10
141.012
 20
121.791
 11
140.827
 21
121.758
  0
LINE
  8
0
 10
140.827
 20
121.758
 11
140.638
 21
121.749
  0
LINE
  8
0
 10
140.638
 20
121.749
 11
140.451
 21
121.763
  0
LINE
  8
0
 10
-140.827
 20
121.758
 11
-141.012
 21
121.791
  0
LINE
  8
0
 10
-141.012
 20
121.791
 11
-141.192
 21
121.846
  0
LINE
  8
0
 10
-141.192
 20
121.846
 11
-141.364
 21
121.924
  0
LINE
  8
0
 10
-141.364
 20
121.924
 11
-141.524
 21
122.023
  0
LINE
  8
0
 10
-141.524
 20
122.023
 11
-141.671
 21
122.141
  0
LINE
  8
0
 10
-141.671
 20
122.141
 11
-141.802
 21
122.276
  0
LINE
  8
0
 10
-141.802
 20
122.276
 11
-141.915
 21
122.427
  0
LINE
  8
0
 10
-141.915
 20
122.427
 11
-142.008
 21
122.591
  0
LINE
  8
0
 10
-142.008
 20
122.591
 11
-142.079
 21
122.765
  0
LINE
  8
0
 10
-142.079
 20
122.765
 11
-142.129
 21
122.947
  0
LINE
  8
0
 10
-142.129
 20
122.947
 11
-142.155
 21
123.134
  0
LINE
  8
0
 10
-142.155
 20
123.134
 11
-142.158
 21
123.322
  0
LINE
  8
0
 10
-142.158
 20
123.322
 11
-142.137
 21
123.509
  0
LINE
  8
0
 10
-142.137
 20
123.509
 11
-142.092
 21
123.692
  0
LINE
  8
0
 10
-142.092
 20
123.692
 11
-142.025
 21
123.868
  0
LINE
  8
0
 10
-142.025
 20
123.868
 11
-141.937
 21
124.035
  0
LINE
  8
0
 10
-141.937
 20
124.035
 11
-141.828
 21
124.189
  0
LINE
  8
0
 10
-141.828
 20
124.189
 11
-141.701
 21
124.328
  0
LINE
  8
0
 10
-141.701
 20
124.328
 11
-141.558
 21
124.45
  0
LINE
  8
0
 10
-141.558
 20
124.45
 11
-141.4
 21
124.553
  0
LINE
  8
0
 10
-141.4
 20
124.553
 11
-141.231
 21
124.635
  0
LINE
  8
0
 10
-141.231
 20
124.635
 11
-141.053
 21
124.696
  0
LINE
  8
0
 10
-141.053
 20
124.696
 11
-140.868
 21
124.734
  0
LINE
  8
0
 10
-140.868
 20
124.734
 11
-140.68
 21
124.748
  0
LINE
  8
0
 10
-140.68
 20
124.748
 11
-140.492
 21
124.739
  0
LINE
  8
0
 10
-140.492
 20
124.739
 11
-140.307
 21
124.707
  0
LINE
  8
0
 10
-140.307
 20
124.707
 11
-140.127
 21
124.651
  0
LINE
  8
0
 10
-140.127
 20
124.651
 11
-139.955
 21
124.573
  0
LINE
  8
0
 10
-139.955
 20
124.573
 11
-139.795
 21
124.474
  0
LINE
  8
0
 10
-139.795
 20
124.474
 11
-139.648
 21
124.356
  0
LINE
  8
0
 10
-139.648
 20
124.356
 11
-139.517
 21
124.221
  0
LINE
  8
0
 10
-139.517
 20
124.221
 11
-139.404
 21
124.07
  0
LINE
  8
0
 10
-139.404
 20
124.07
 11
-139.311
 21
123.906
  0
LINE
  8
0
 10
-139.311
 20
123.906
 11
-139.239
 21
123.732
  0
LINE
  8
0
 10
-139.239
 20
123.732
 11
-139.19
 21
123.55
  0
LINE
  8
0
 10
-139.19
 20
123.55
 11
-139.164
 21
123.364
  0
LINE
  8
0
 10
-139.164
 20
123.364
 11
-139.161
 21
123.175
  0
LINE
  8
0
 10
-139.161
 20
123.175
 11
-139.182
 21
122.988
  0
LINE
  8
0
 10
-139.182
 20
122.988
 11
-139.227
 21
122.805
  0
LINE
  8
0
 10
-139.227
 20
122.805
 11
-139.293
 21
122.629
  0
LINE
  8
0
 10
-139.293
 20
122.629
 11
-139.382
 21
122.463
  0
LINE
  8
0
 10
-139.382
 20
122.463
 11
-139.49
 21
122.309
  0
LINE
  8
0
 10
-139.49
 20
122.309
 11
-139.617
 21
122.17
  0
LINE
  8
0
 10
-139.617
 20
122.17
 11
-139.761
 21
122.048
  0
LINE
  8
0
 10
-139.761
 20
122.048
 11
-139.919
 21
121.944
  0
LINE
  8
0
 10
-139.919
 20
121.944
 11
-140.088
 21
121.862
  0
LINE
  8
0
 10
-140.088
 20
121.862
 11
-140.266
 21
121.801
  0
LINE
  8
0
 10
-140.266
 20
121.801
 11
-140.451
 21
121.763
  0
LINE
  8
0
 10
-140.451
 20
121.763
 11
-140.638
 21
121.749
  0
LINE
  8
0
 10
-140.638
 20
121.749
 11
-140.827
 21
121.758
  0
LINE
  8
0
 10
-159.144
 20
18.4158
 11
-145.687
 21
94.7384
  0
LINE
  8
0
 10
-145.687
 20
94.7384
 11
-136.331
 21
93.0888
  0
LINE
  8
0
 10
-136.331
 20
93.0888
 11
-133.032
 21
111.8
  0
LINE
  8
0
 10
-133.032
 20
111.8
 11
-95.6088
 21
105.201
  0
LINE
  8
0
 10
-95.6088
 20
105.201
 11
-94.046
 21
114.065
  0
LINE
  8
0
 10
-94.046
 20
114.065
 11
-75.3347
 21
110.765
  0
LINE
  8
0
 10
-75.3347
 20
110.765
 11
-74.6401
 21
114.705
  0
LINE
  8
0
 10
-74.6401
 20
114.705
 11
-54.9439
 21
111.232
  0
LINE
  8
0
 10
-54.9439
 20
111.232
 11
-55.8121
 21
106.308
  0
LINE
  8
0
 10
-55.8121
 20
106.308
 11
-37.1008
 21
103.008
  0
LINE
  8
0
 10
-37.1008
 20
103.008
 11
-37.7954
 21
99.0691
  0
LINE
  8
0
 10
-37.7954
 20
99.0691
 11
-0.372696
 21
92.4705
  0
LINE
  8
0
 10
-0.372696
 20
92.4705
 11
-13.7436
 21
16.6403
  0
LINE
  8
0
 10
-13.7436
 20
16.6403
 11
-52.1511
 21
23.4126
  0
LINE
  8
0
 10
-52.1511
 20
23.4126
 11
-51.4565
 21
27.3518
  0
LINE
  8
0
 10
-51.4565
 20
27.3518
 11
-70.1679
 21
30.6511
  0
LINE
  8
0
 10
-70.1679
 20
30.6511
 11
-69.2996
 21
35.5752
  0
LINE
  8
0
 10
-69.2996
 20
35.5752
 11
-87.0262
 21
38.7008
  0
LINE
  8
0
 10
-87.0262
 20
38.7008
 11
-87.7208
 21
34.7616
  0
LINE
  8
0
 10
-87.7208
 20
34.7616
 11
-106.432
 21
38.0609
  0
LINE
  8
0
 10
-106.432
 20
38.0609
 11
-107.908
 21
29.69
  0
LINE
  8
0
 10
-107.908
 20
29.69
 11
-33.0627
 21
16.4928
  0
LINE
  8
0
 10
-33.0627
 20
16.4928
 11
-36.5357
 21
-3.20335
  0
LINE
  8
0
 10
-36.5357
 20
-3.20335
 11
-159.144
 21
18.4158
  0
LINE
  8
0
 10
33.0627
 20
16.4928
 11
89.1968
 21
26.3907
  0
LINE
  8
0
 10
89.1968
 20
26.3907
 11
87.0262
 21
38.7008
  0
LINE
  8
0
 10
87.0262
 20
38.7008
 11
69.2996
 21
35.5752
  0
LINE
  8
0
 10
69.2996
 20
35.5752
 11
70.1679
 21
30.6511
  0
LINE
  8
0
 10
70.1679
 20
30.6511
 11
51.4565
 21
27.3518
  0
LINE
  8
0
 10
51.4565
 20
27.3518
 11
52.1511
 21
23.4126
  0
LINE
  8
0
 10
52.1511
 20
23.4126
 11
13.7436
 21
16.6403
  0
LINE
  8
0
 10
13.7436
 20
16.6403
 11
0.372696
 21
92.4705
  0
LINE
  8
0
 10
0.372696
 20
92.4705
 11
37.7954
 21
99.0691
  0
LINE
  8
0
 10
37.7954
 20
99.0691
 11
37.1008
 21
103.008
  0
LINE
  8
0
 10
37.1008
 20
103.008
 11
55.8121
 21
106.308
  0
LINE
  8
0
 10
55.8121
 20
106.308
 11
54.9439
 21
111.232
  0
LINE
  8
0
 10
54.9439
 20
111.232
 11
74.6401
 21
114.705
  0
LINE
  8
0
 10
74.6401
 20
114.705
 11
75.3347
 21
110.765
  0
LINE
  8
0
 10
75.3347
 20
110.765
 11
94.046
 21
114.065
  0
LINE
  8
0
 10
94.046
 20
114.065
 11
95.6088
 21
105.201
  0
LINE
  8
0
 10
95.6088
 20
105.201
 11
133.032
 21
111.8
  0
LINE
  8
0
 10
133.032
 20
111.8
 11
136.331
 21
93.0888
  0
LINE
  8
0
 10
136.331
 20
93.0888
 11
145.687
 21
94.7384
  0
LINE
  8
0
 10
145.687
 20
94.7384
 11
155.758
 21
37.6196
  0
LINE
  8
0
 10
155.758
 20
37.6196
 11
146.402
 21
35.9699
  0
LINE
  8
0
 10
146.402
 20
35.9699
 11
149.789
 21
16.7662
  0
LINE
  8
0
 10
149.789
 20
16.7662
 11
112.366
 21
10.1675
  0
LINE
  8
0
 10
112.366
 20
10.1675
 11
114.016
 21
0.811874
  0
LINE
  8
0
 10
114.016
 20
0.811874
 11
94.3194
 21
-2.66107
  0
LINE
  8
0
 10
94.3194
 20
-2.66107
 11
92.6697
 21
6.69458
  0
LINE
  8
0
 10
92.6697
 20
6.69458
 11
36.5357
 21
-3.20335
  0
LINE
  8
0
 10
36.5357
 20
-3.20335
 11
33.0627
 21
16.4928
  0
LINE
  8
0
 10
-26.1031
 20
3.59122
 11
-26.2887
 21
3.62393
  0
LINE
  8
0
 10
-26.2887
 20
3.62393
 11
-26.4686
 21
3.67964
  0
LINE
  8
0
 10
-26.4686
 20
3.67964
 11
-26.6402
 21
3.75746
  0
LINE
  8
0
 10
-26.6402
 20
3.75746
 11
-26.8006
 21
3.85616
  0
LINE
  8
0
 10
-26.8006
 20
3.85616
 11
-26.9474
 21
3.9742
  0
LINE
  8
0
 10
-26.9474
 20
3.9742
 11
-27.0782
 21
4.1097
  0
LINE
  8
0
 10
-27.0782
 20
4.1097
 11
-27.1911
 21
4.26053
  0
LINE
  8
0
 10
-27.1911
 20
4.26053
 11
-27.2841
 21
4.42432
  0
LINE
  8
0
 10
-27.2841
 20
4.42432
 11
-27.3559
 21
4.59848
  0
LINE
  8
0
 10
-27.3559
 20
4.59848
 11
-27.4053
 21
4.78026
  0
LINE
  8
0
 10
-27.4053
 20
4.78026
 11
-27.4315
 21
4.9668
  0
LINE
  8
0
 10
-27.4315
 20
4.9668
 11
-27.4341
 21
5.15515
  0
LINE
  8
0
 10
-27.4341
 20
5.15515
 11
-27.4131
 21
5.34235
  0
LINE
  8
0
 10
-27.4131
 20
5.34235
 11
-27.3689
 21
5.52544
  0
LINE
  8
0
 10
-27.3689
 20
5.52544
 11
-27.302
 21
5.70154
  0
LINE
  8
0
 10
-27.302
 20
5.70154
 11
-27.2135
 21
5.86786
  0
LINE
  8
0
 10
-27.2135
 20
5.86786
 11
-27.1049
 21
6.02179
  0
LINE
  8
0
 10
-27.1049
 20
6.02179
 11
-26.9779
 21
6.16089
  0
LINE
  8
0
 10
-26.9779
 20
6.16089
 11
-26.8345
 21
6.28297
  0
LINE
  8
0
 10
-26.8345
 20
6.28297
 11
-26.6768
 21
6.38612
  0
LINE
  8
0
 10
-26.6768
 20
6.38612
 11
-26.5075
 21
6.46869
  0
LINE
  8
0
 10
-26.5075
 20
6.46869
 11
-26.3292
 21
6.5294
  0
LINE
  8
0
 10
-26.3292
 20
6.5294
 11
-26.1447
 21
6.56728
  0
LINE
  8
0
 10
-26.1447
 20
6.56728
 11
-25.9569
 21
6.58173
  0
LINE
  8
0
 10
-25.9569
 20
6.58173
 11
-25.7687
 21
6.57253
  0
LINE
  8
0
 10
-25.7687
 20
6.57253
 11
-25.5832
 21
6.53983
  0
LINE
  8
0
 10
-25.5832
 20
6.53983
 11
-25.4033
 21
6.48412
  0
LINE
  8
0
 10
-25.4033
 20
6.48412
 11
-25.2317
 21
6.4063
  0
LINE
  8
0
 10
-25.2317
 20
6.4063
 11
-25.0713
 21
6.30759
  0
LINE
  8
0
 10
-25.0713
 20
6.30759
 11
-24.9245
 21
6.18956
  0
LINE
  8
0
 10
-24.9245
 20
6.18956
 11
-24.7936
 21
6.05406
  0
LINE
  8
0
 10
-24.7936
 20
6.05406
 11
-24.6808
 21
5.90323
  0
LINE
  8
0
 10
-24.6808
 20
5.90323
 11
-24.5878
 21
5.73944
  0
LINE
  8
0
 10
-24.5878
 20
5.73944
 11
-24.516
 21
5.56528
  0
LINE
  8
0
 10
-24.516
 20
5.56528
 11
-24.4666
 21
5.3835
  0
LINE
  8
0
 10
-24.4666
 20
5.3835
 11
-24.4404
 21
5.19696
  0
LINE
  8
0
 10
-24.4404
 20
5.19696
 11
-24.4377
 21
5.00861
  0
LINE
  8
0
 10
-24.4377
 20
5.00861
 11
-24.4587
 21
4.82141
  0
LINE
  8
0
 10
-24.4587
 20
4.82141
 11
-24.503
 21
4.63832
  0
LINE
  8
0
 10
-24.503
 20
4.63832
 11
-24.5699
 21
4.46222
  0
LINE
  8
0
 10
-24.5699
 20
4.46222
 11
-24.6584
 21
4.2959
  0
LINE
  8
0
 10
-24.6584
 20
4.2959
 11
-24.7669
 21
4.14197
  0
LINE
  8
0
 10
-24.7669
 20
4.14197
 11
-24.894
 21
4.00287
  0
LINE
  8
0
 10
-24.894
 20
4.00287
 11
-25.0374
 21
3.88078
  0
LINE
  8
0
 10
-25.0374
 20
3.88078
 11
-25.195
 21
3.77763
  0
LINE
  8
0
 10
-25.195
 20
3.77763
 11
-25.3643
 21
3.69505
  0
LINE
  8
0
 10
-25.3643
 20
3.69505
 11
-25.5426
 21
3.63435
  0
LINE
  8
0
 10
-25.5426
 20
3.63435
 11
-25.7272
 21
3.59648
  0
LINE
  8
0
 10
-25.7272
 20
3.59648
 11
-25.915
 21
3.58202
  0
LINE
  8
0
 10
-25.915
 20
3.58202
 11
-26.1031
 21
3.59122
  0
LINE
  8
0
 10
25.7272
 20
3.59648
 11
25.5426
 21
3.63435
  0
LINE
  8
0
 10
25.5426
 20
3.63435
 11
25.3643
 21
3.69505
  0
LINE
  8
0
 10
25.3643
 20
3.69505
 11
25.195
 21
3.77763
  0
LINE
  8
0
 10
25.195
 20
3.77763
 11
25.0374
 21
3.88078
  0
LINE
  8
0
 10
25.0374
 20
3.88078
 11
24.894
 21
4.00287
  0
LINE
  8
0
 10
24.894
 20
4.00287
 11
24.7669
 21
4.14197
  0
LINE
  8
0
 10
24.7669
 20
4.14197
 11
24.6584
 21
4.2959
  0
LINE
  8
0
 10
24.6584
 20
4.2959
 11
24.5699
 21
4.46222
  0
LINE
  8
0
 10
24.5699
 20
4.46222
 11
24.503
 21
4.63832
  0
LINE
  8
0
 10
24.503
 20
4.63832
 11
24.4587
 21
4.82141
  0
LINE
  8
0
 10
24.4587
 20
4.82141
 11
24.4377
 21
5.00861
  0
LINE
  8
0
 10
24.4377
 20
5.00861
 11
24.4404
 21
5.19696
  0
LINE
  8
0
 10
24.4404
 20
5.19696
 11
24.4666
 21
5.3835
  0
LINE
  8
0
 10
24.4666
 20
5.3835
 11
24.516
 21
5.56528
  0
LINE
  8
0
 10
24.516
 20
5.56528
 11
24.5878
 21
5.73944
  0
LINE
  8
0
 10
24.5878
 20
5.73944
 11
24.6808
 21
5.90323
  0
LINE
  8
0
 10
24.6808
 20
5.90323
 11
24.7936
 21
6.05406
  0
LINE
  8
0
 10
24.7936
 20
6.05406
 11
24.9245
 21
6.18956
  0
LINE
  8
0
 10
24.9245
 20
6.18956
 11
25.0713
 21
6.30759
  0
LINE
  8
0
 10
25.0713
 20
6.30759
 11
25.2317
 21
6.4063
  0
LINE
  8
0
 10
25.2317
 20
6.4063
 11
25.4033
 21
6.48412
  0
LINE
  8
0
 10
25.4033
 20
6.48412
 11
25.5832
 21
6.53983
  0
LINE
  8
0
 10
25.5832
 20
6.53983
 11
25.7687
 21
6.57253
  0
LINE
  8
0
 10
25.7687
 20
6.57253
 11
25.9569
 21
6.58173
  0
LINE
  8
0
 10
25.9569
 20
6.58173
 11
26.1447
 21
6.56728
  0
LINE
  8
0
 10
26.1447
 20
6.56728
 11
26.3292
 21
6.5294
  0
LINE
  8
0
 10
26.3292
 20
6.5294
 11
26.5075
 21
6.46869
  0
LINE
  8
0
 10
26.5075
 20
6.46869
 11
26.6768
 21
6.38612
  0
LINE
  8
0
 10
26.6768
 20
6.38612
 11
26.8345
 21
6.28297
  0
LINE
  8
0
 10
26.8345
 20
6.28297
 11
26.9779
 21
6.16089
  0
LINE
  8
0
 10
26.9779
 20
6.16089
 11
27.1049
 21
6.02179
  0
LINE
  8
0
 10
27.1049
 20
6.02179
 11
27.2135
 21
5.86786
  0
LINE
  8
0
 10
27.2135
 20
5.86786
 11
27.302
 21
5.70154
  0
LINE
  8
0
 10
27.302
 20
5.70154
 11
27.3689
 21
5.52544
  0
LINE
  8
0
 10
27.3689
 20
5.52544
 11
27.4131
 21
5.34235
  0
LINE
  8
0
 10
27.4131
 20
5.34235
 11
27.4341
 21
5.15515
  0
LINE
  8
0
 10
27.4341
 20
5.15515
 11
27.4315
 21
4.9668
  0
LINE
  8
0
 10
27.4315
 20
4.9668
 11
27.4053
 21
4.78026
  0
LINE
  8
0
 10
27.4053
 20
4.78026
 11
27.3559
 21
4.59848
  0
LINE
  8
0
 10
27.3559
 20
4.59848
 11
27.2841
 21
4.42432
  0
LINE
  8
0
 10
27.2841
 20
4.42432
 11
27.1911
 21
4.26053
  0
LINE
  8
0
 10
27.1911
 20
4.26053
 11
27.0782
 21
4.1097
  0
LINE
  8
0
 10
27.0782
 20
4.1097
 11
26.9474
 21
3.9742
  0
LINE
  8
0
 10
26.9474
 20
3.9742
 11
26.8006
 21
3.85616
  0
LINE
  8
0
 10
26.8006
 20
3.85616
 11
26.6402
 21
3.75746
  0
LINE
  8
0
 10
26.6402
 20
3.75746
 11
26.4686
 21
3.67964
  0
LINE
  8
0
 10
26.4686
 20
3.67964
 11
26.2887
 21
3.62393
  0
LINE
  8
0
 10
26.2887
 20
3.62393
 11
26.1031
 21
3.59122
  0
LINE
  8
0
 10
26.1031
 20
3.59122
 11
25.915
 21
3.58202
  0
LINE
  8
0
 10
25.915
 20
3.58202
 11
25.7272
 21
3.59648
  0
LINE
  8
0
 10
-163.062
 20
-4.34665
 11
-163.248
 21
-4.31395
  0
LINE
  8
0
 10
-163.248
 20
-4.31395
 11
-163.428
 21
-4.25824
  0
LINE
  8
0
 10
-163.428
 20
-4.25824
 11
-163.599
 21
-4.18042
  0
LINE
  8
0
 10
-163.599
 20
-4.18042
 11
-163.76
 21
-4.08171
  0
LINE
  8
0
 10
-163.76
 20
-4.08171
 11
-163.907
 21
-3.96368
  0
LINE
  8
0
 10
-163.907
 20
-3.96368
 11
-164.037
 21
-3.82819
  0
LINE
  8
0
 10
-164.037
 20
-3.82819
 11
-164.15
 21
-3.67735
  0
LINE
  8
0
 10
-164.15
 20
-3.67735
 11
-164.243
 21
-3.51355
  0
LINE
  8
0
 10
-164.243
 20
-3.51355
 11
-164.315
 21
-3.3394
  0
LINE
  8
0
 10
-164.315
 20
-3.3394
 11
-164.364
 21
-3.15762
  0
LINE
  8
0
 10
-164.364
 20
-3.15762
 11
-164.391
 21
-2.97108
  0
LINE
  8
0
 10
-164.391
 20
-2.97108
 11
-164.393
 21
-2.78273
  0
LINE
  8
0
 10
-164.393
 20
-2.78273
 11
-164.372
 21
-2.59554
  0
LINE
  8
0
 10
-164.372
 20
-2.59554
 11
-164.328
 21
-2.41245
  0
LINE
  8
0
 10
-164.328
 20
-2.41245
 11
-164.261
 21
-2.23634
  0
LINE
  8
0
 10
-164.261
 20
-2.23634
 11
-164.173
 21
-2.07002
  0
LINE
  8
0
 10
-164.173
 20
-2.07002
 11
-164.064
 21
-1.91609
  0
LINE
  8
0
 10
-164.064
 20
-1.91609
 11
-163.937
 21
-1.77699
  0
LINE
  8
0
 10
-163.937
 20
-1.77699
 11
-163.794
 21
-1.65491
  0
LINE
  8
0
 10
-163.794
 20
-1.65491
 11
-163.636
 21
-1.55176
  0
LINE
  8
0
 10
-163.636
 20
-1.55176
 11
-163.467
 21
-1.46918
  0
LINE
  8
0
 10
-163.467
 20
-1.46918
 11
-163.288
 21
-1.40848
  0
LINE
  8
0
 10
-163.288
 20
-1.40848
 11
-163.104
 21
-1.37061
  0
LINE
  8
0
 10
-163.104
 20
-1.37061
 11
-162.916
 21
-1.35614
  0
LINE
  8
0
 10
-162.916
 20
-1.35614
 11
-162.728
 21
-1.36536
  0
LINE
  8
0
 10
-162.728
 20
-1.36536
 11
-162.542
 21
-1.39806
  0
LINE
  8
0
 10
-162.542
 20
-1.39806
 11
-162.362
 21
-1.45377
  0
LINE
  8
0
 10
-162.362
 20
-1.45377
 11
-162.191
 21
-1.53159
  0
LINE
  8
0
 10
-162.191
 20
-1.53159
 11
-162.03
 21
-1.63028
  0
LINE
  8
0
 10
-162.03
 20
-1.63028
 11
-161.884
 21
-1.74832
  0
LINE
  8
0
 10
-161.884
 20
-1.74832
 11
-161.753
 21
-1.88382
  0
LINE
  8
0
 10
-161.753
 20
-1.88382
 11
-161.64
 21
-2.03465
  0
LINE
  8
0
 10
-161.64
 20
-2.03465
 11
-161.547
 21
-2.19844
  0
LINE
  8
0
 10
-161.547
 20
-2.19844
 11
-161.475
 21
-2.3726
  0
LINE
  8
0
 10
-161.475
 20
-2.3726
 11
-161.426
 21
-2.55438
  0
LINE
  8
0
 10
-161.426
 20
-2.55438
 11
-161.399
 21
-2.74092
  0
LINE
  8
0
 10
-161.399
 20
-2.74092
 11
-161.397
 21
-2.92928
  0
LINE
  8
0
 10
-161.397
 20
-2.92928
 11
-161.418
 21
-3.11647
  0
LINE
  8
0
 10
-161.418
 20
-3.11647
 11
-161.462
 21
-3.29956
  0
LINE
  8
0
 10
-161.462
 20
-3.29956
 11
-161.529
 21
-3.47566
  0
LINE
  8
0
 10
-161.529
 20
-3.47566
 11
-161.617
 21
-3.64198
  0
LINE
  8
0
 10
-161.617
 20
-3.64198
 11
-161.726
 21
-3.79591
  0
LINE
  8
0
 10
-161.726
 20
-3.79591
 11
-161.853
 21
-3.93501
  0
LINE
  8
0
 10
-161.853
 20
-3.93501
 11
-161.997
 21
-4.0571
  0
LINE
  8
0
 10
-161.997
 20
-4.0571
 11
-162.154
 21
-4.16025
  0
LINE
  8
0
 10
-162.154
 20
-4.16025
 11
-162.323
 21
-4.24281
  0
LINE
  8
0
 10
-162.323
 20
-4.24281
 11
-162.502
 21
-4.30353
  0
LINE
  8
0
 10
-162.502
 20
-4.30353
 11
-162.686
 21
-4.3414
  0
LINE
  8
0
 10
-162.686
 20
-4.3414
 11
-162.874
 21
-4.35585
  0
LINE
  8
0
 10
-162.874
 20
-4.35585
 11
-163.062
 21
-4.34665
  0
LINE
  8
0
 10
162.686
 20
-4.3414
 11
162.502
 21
-4.30353
  0
LINE
  8
0
 10
162.502
 20
-4.30353
 11
162.323
 21
-4.24281
  0
LINE
  8
0
 10
162.323
 20
-4.24281
 11
162.154
 21
-4.16025
  0
LINE
  8
0
 10
162.154
 20
-4.16025
 11
161.997
 21
-4.0571
  0
LINE
  8
0
 10
161.997
 20
-4.0571
 11
161.853
 21
-3.93501
  0
LINE
  8
0
 10
161.853
 20
-3.93501
 11
161.726
 21
-3.79591
  0
LINE
  8
0
 10
161.726
 20
-3.79591
 11
161.617
 21
-3.64198
  0
LINE
  8
0
 10
161.617
 20
-3.64198
 11
161.529
 21
-3.47566
  0
LINE
  8
0
 10
161.529
 20
-3.47566
 11
161.462
 21
-3.29956
  0
LINE
  8
0
 10
161.462
 20
-3.29956
 11
161.418
 21
-3.11647
  0
LINE
  8
0
 10
161.418
 20
-3.11647
 11
161.397
 21
-2.92928
  0
LINE
  8
0
 10
161.397
 20
-2.92928
 11
161.399
 21
-2.74092
  0
LINE
  8
0
 10
161.399
 20
-2.74092
 11
161.426
 21
-2.55438
  0
LINE
  8
0
 10
161.426
 20
-2.55438
 11
161.475
 21
-2.3726
  0
LINE
  8
0
 10
161.475
 20
-2.3726
 11
161.547
 21
-2.19844
  0
LINE
  8
0
 10
161.547
 20
-2.19844
 11
161.64
 21
-2.03465
  0
LINE
  8
0
 10
161.64
 20
-2.03465
 11
161.753
 21
-1.88382
  0
LINE
  8
0
 10
161.753
 20
-1.88382
 11
161.884
 21
-1.74832
  0
LINE
  8
0
 10
161.884
 20
-1.74832
 11
162.03
 21
-1.63028
  0
LINE
  8
0
 10
162.03
 20
-1.63028
 11
162.191
 21
-1.53159
  0
LINE
  8
0
 10
162.191
 20
-1.53159
 11
162.362
 21
-1.45377
  0
LINE
  8
0
 10
162.362
 20
-1.45377
 11
162.542
 21
-1.39806
  0
LINE
  8
0
 10
162.542
 20
-1.39806
 11
162.728
 21
-1.36536
  0
LINE
  8
0
 10
162.728
 20
-1.36536
 11
162.916
 21
-1.35614
  0
LINE
  8
0
 10
162.916
 20
-1.35614
 11
163.104
 21
-1.37061
  0
LINE
  8
0
 10
163.104
 20
-1.37061
 11
163.288
 21
-1.40848
  0
LINE
  8
0
 10
163.288
 20
-1.40848
 11
163.467
 21
-1.46918
  0
LINE
  8
0
 10
163.467
 20
-1.46918
 11
163.636
 21
-1.55176
  0
LINE
  8
0
 10
163.636
 20
-1.55176
 11
163.794
 21
-1.65491
  0
LINE
  8
0
 10
163.794
 20
-1.65491
 11
163.937
 21
-1.77699
  0
LINE
  8
0
 10
163.937
 20
-1.77699
 11
164.064
 21
-1.91609
  0
LINE
  8
0
 10
164.064
 20
-1.91609
 11
164.173
 21
-2.07002
  0
LINE
  8
0
 10
164.173
 20
-2.07002
 11
164.261
 21
-2.23634
  0
LINE
  8
0
 10
164.261
 20
-2.23634
 11
164.328
 21
-2.41245
  0
LINE
  8
0
 10
164.328
 20
-2.41245
 11
164.372
 21
-2.59554
  0
LINE
  8
0
 10
164.372
 20
-2.59554
 11
164.393
 21
-2.78273
  0
LINE
  8
0
 10
164.393
 20
-2.78273
 11
164.391
 21
-2.97108
  0
LINE
  8
0
 10
164.391
 20
-2.97108
 11
164.364
 21
-3.15762
  0
LINE
  8
0
 10
164.364
 20
-3.15762
 11
164.315
 21
-3.3394
  0
LINE
  8
0
 10
164.315
 20
-3.3394
 11
164.243
 21
-3.51355
  0
LINE
  8
0
 10
164.243
 20
-3.51355
 11
164.15
 21
-3.67735
  0
LINE
  8
0
 10
164.15
 20
-3.67735
 11
164.037
 21
-3.82819
  0
LINE
  8
0
 10
164.037
 20
-3.82819
 11
163.907
 21
-3.96368
  0
LINE
  8
0
 10
163.907
 20
-3.96368
 11
163.76
 21
-4.08171
  0
LINE
  8
0
 10
163.76
 20
-4.08171
 11
163.599
 21
-4.18042
  0
LINE
  8
0
 10
163.599
 20
-4.18042
 11
163.428
 21
-4.25824
  0
LINE
  8
0
 10
163.428
 20
-4.25824
 11
163.248
 21
-4.31395
  0
LINE
  8
0
 10
163.248
 20
-4.31395
 11
163.062
 21
-4.34665
  0
LINE
  8
0
 10
163.062
 20
-4.34665
 11
162.874
 21
-4.35585
  0
LINE
  8
0
 10
162.874
 20
-4.35585
 11
162.686
 21
-4.3414
  0
ENDSEC
  0
SECTION
  2
OBJECTS
  0
DICTIONARY
  0
ENDSEC
  0
EOF
